<?xml version="1.0" standalone="no"?>
<!DOCTYPE svg PUBLIC "-//W3C//DTD SVG 1.1//EN" "http://www.w3.org/Graphics/SVG/1.1/DTD/svg11.dtd" >
<svg xmlns="http://www.w3.org/2000/svg" xmlns:xlink="http://www.w3.org/1999/xlink" version="1.1">
<metadata></metadata>
<defs>
<font id="gt_walsheim_prolight" horiz-adv-x="1210" >
<font-face units-per-em="2048" ascent="1434" descent="-614" />
<missing-glyph horiz-adv-x="522" />
<glyph unicode="&#xfb01;" horiz-adv-x="1159" d="M47 819v115h205v186q0 100 27.5 169t73.5 100.5t88 44t89 12.5q84 0 138 -25v-114q-61 20 -107 20q-35 0 -61.5 -6t-55 -24.5t-44 -61.5t-15.5 -109v-192h283v-115h-283v-819h-133v819h-205zM807 1243q0 51 35 87t88 36t88 -36t35 -87q0 -53 -35 -88t-88 -35t-88 35 t-35 88zM862 0v934h133v-934h-133z" />
<glyph unicode="&#xfb02;" horiz-adv-x="1159" d="M47 819v115h205v186q0 100 27.5 169t73.5 100.5t88 44t89 12.5q84 0 138 -25v-114q-61 20 -107 20q-35 0 -61.5 -6t-55 -24.5t-44 -61.5t-15.5 -109v-192h283v-115h-283v-819h-133v819h-205zM862 0v1434h133v-1434h-133z" />
<glyph horiz-adv-x="0" />
<glyph horiz-adv-x="682" />
<glyph unicode="&#xd;" horiz-adv-x="681" />
<glyph unicode=" "  horiz-adv-x="522" />
<glyph unicode="&#x09;" horiz-adv-x="522" />
<glyph unicode="&#xa0;" horiz-adv-x="522" />
<glyph unicode="!" horiz-adv-x="520" d="M135 114.5q0 53.5 36 89.5t89 36t90 -37t37 -88q0 -53 -38 -90t-89 -37q-53 0 -89 36.5t-36 90zM195 406v1028h131v-1028h-131z" />
<glyph unicode="&#x22;" horiz-adv-x="796" d="M123 1300q0 49 33.5 83t85.5 34q49 0 83.5 -34t34.5 -83q0 -8 -4 -40l-75 -365h-74l-80 365q-4 33 -4 40zM436 1300q0 49 34 83t85 34q49 0 84 -34t35 -83q0 -8 -4 -40l-76 -365h-74l-80 365q-4 33 -4 40z" />
<glyph unicode="#" horiz-adv-x="1110" d="M51 438v107h223l48 344h-209v106h225l59 439h113l-61 -439h309l59 439h113l-62 -439h191v-106h-205l-47 -344h190v-107h-206l-62 -438h-111l62 438h-309l-62 -438h-110l61 438h-209zM387 545h307l47 344h-307z" />
<glyph unicode="$" horiz-adv-x="1138" d="M82 438h139q0 -156 98.5 -251t268.5 -95q152 0 236.5 68.5t84.5 193.5q0 195 -231 256l-244 58q-307 78 -307 368q0 152 110.5 261.5t299.5 117.5v182h104v-186q174 -20 274.5 -131t102.5 -285h-139q-4 141 -86 220t-230 79q-143 0 -220 -70.5t-77 -179.5 q0 -205 252 -264l252 -63q277 -72 277 -359q0 -168 -109 -271t-297 -116v-176h-104v176q-215 14 -335 139.5t-120 327.5z" />
<glyph unicode="%" horiz-adv-x="1564" d="M43 1063q0 145 96.5 246.5t258 101.5t259 -101.5t97.5 -246.5t-97.5 -246.5t-259 -101.5t-258 101.5t-96.5 246.5zM160 1063q0 -102 64.5 -172t173 -70t173 70t64.5 172t-63.5 173t-174 71t-174 -71t-63.5 -173zM248 29l966 1396l91 -51l-965 -1397zM813 338 q0 145 96.5 246.5t258 101.5t259 -101.5t97.5 -246.5t-97.5 -246.5t-259 -101.5t-258 101.5t-96.5 246.5zM930 338q0 -102 64.5 -172t173 -70t173 70t64.5 172t-63.5 173t-174 71t-174 -71t-63.5 -173z" />
<glyph unicode="&#x26;" horiz-adv-x="1212" d="M102 389q0 137 84 235.5t215 123.5q-127 29 -198.5 115.5t-71.5 211.5q0 174 124 279.5t331 105.5q199 0 324.5 -106.5t125.5 -296.5h-143q0 127 -82 204.5t-225 77.5q-139 0 -226.5 -71.5t-87.5 -192.5q0 -123 77 -195.5t224 -72.5h56v-127h-54q-162 0 -246.5 -80 t-84.5 -211q0 -127 91 -210t245 -83q162 0 250 101.5t92 275.5h-179v125h455v-125h-135q-4 -231 -132 -365.5t-351 -134.5q-213 0 -345.5 116t-132.5 300z" />
<glyph unicode="'" horiz-adv-x="483" d="M123 1300q0 49 33.5 83t85.5 34q49 0 83.5 -34t34.5 -83q0 -8 -4 -40l-75 -365h-74l-80 365q-4 33 -4 40z" />
<glyph unicode="(" horiz-adv-x="636" d="M133 557q0 557 442 948l82 -78q-195 -184 -293 -394t-98 -476t98.5 -477t292.5 -395l-82 -78q-442 391 -442 950z" />
<glyph unicode=")" horiz-adv-x="636" d="M-20 -315q195 184 293 395t98 477t-98.5 476t-292.5 394l81 78q442 -391 443 -948q-1 -559 -443 -950z" />
<glyph unicode="*" horiz-adv-x="878" d="M61 1155l33 98l307 -114l-14 329h107l-15 -329l305 114l33 -98l-311 -90l209 -268l-88 -64l-187 285l-188 -285l-88 64l211 268z" />
<glyph unicode="+" horiz-adv-x="1032" d="M113 584v121h340v344h127v-344h340v-121h-340v-342h-127v342h-340z" />
<glyph unicode="," horiz-adv-x="598" d="M164 110.5q0 53.5 34.5 89.5t92.5 36q68 0 119 -59.5t51 -162.5q0 -117 -63 -186.5t-169 -69.5q-41 0 -59 4v72q41 -4 61 -4q96 0 117 90q16 43 8 100q-23 -31 -73 -30q-49 0 -84 33.5t-35 87z" />
<glyph unicode="-" horiz-adv-x="843" d="M113 473v119h618v-119h-618z" />
<glyph unicode="." horiz-adv-x="579" d="M164 114.5q0 53.5 37 89.5t88 36q53 0 90 -36t37 -89.5t-37 -90t-90 -36.5q-51 0 -88 36.5t-37 90z" />
<glyph unicode="/" horiz-adv-x="872" d="M31 -78l702 1630l109 -47l-703 -1630z" />
<glyph unicode="0" horiz-adv-x="1243" d="M102 698.5q0 352.5 133.5 535.5t387.5 183t386 -183t132 -535.5t-132 -537t-386 -184.5t-387.5 184.5t-133.5 537zM236 698q0 -596 387 -596t387 596t-387 596t-387 -596z" />
<glyph unicode="1" horiz-adv-x="739" d="M78 1036v119q176 0 235.5 51t59.5 187h127v-1393h-138v1036h-284z" />
<glyph unicode="2" horiz-adv-x="1144" d="M113 0q0 233 78.5 370.5t271.5 231.5l223 111q207 104 207 317q0 117 -78 189.5t-203 72.5q-152 0 -238.5 -94t-86.5 -256h-142q0 215 127 344t340 129q195 0 310.5 -103.5t115.5 -275.5q0 -279 -270 -415l-221 -113q-143 -72 -203.5 -157t-71.5 -224h772v-127h-931z" />
<glyph unicode="3" horiz-adv-x="1134" d="M88 414h139q0 -145 91.5 -230.5t248.5 -85.5q147 0 236.5 78t89.5 205q0 131 -87 206t-239 75h-108v120h108q139 0 218 69t79 191q0 115 -82 184.5t-215 69.5q-143 0 -228 -75.5t-85 -204.5h-137q0 180 122.5 289.5t327.5 109.5q197 0 318 -102.5t121 -268.5 q0 -127 -72 -209.5t-203 -109.5q129 -10 215 -109.5t86 -236.5q0 -178 -129 -290t-336 -112q-221 0 -350 118t-129 319z" />
<glyph unicode="4" horiz-adv-x="1163" d="M143 471v922h138v-795h432v432h137v-432h235v-127h-235v-473h-137v473h-570z" />
<glyph unicode="5" horiz-adv-x="1165" d="M135 350h139q8 -113 95.5 -179.5t228.5 -66.5q158 0 250 98.5t92 268.5q0 166 -85 259t-232 93q-131 0 -207 -46t-121 -146h-131v762h823v-125h-696v-496q102 168 348 168q201 0 317.5 -125t116.5 -340q0 -223 -131 -360.5t-346 -137.5q-197 0 -324 104.5t-137 268.5z " />
<glyph unicode="6" horiz-adv-x="1155" d="M94 467q0 190 109 324l407 602h164l-307 -445q57 10 108 10q217 0 348.5 -140t131.5 -351q0 -209 -131 -350.5t-348.5 -141.5t-349.5 141.5t-132 350.5zM227 467q0 -158 95.5 -264.5t253 -106.5t253 106.5t95.5 264.5q0 160 -94.5 265.5t-254 105.5t-254 -105.5 t-94.5 -265.5z" />
<glyph unicode="7" horiz-adv-x="1021" d="M92 1266v127h930l-739 -1393h-154l684 1266h-721z" />
<glyph unicode="8" horiz-adv-x="1161" d="M102 375q0 133 73 224t200 120q-115 29 -183.5 118t-68.5 210q0 166 127 267t331.5 101t330.5 -101.5t126 -266.5q0 -121 -68.5 -210t-185.5 -118q127 -29 201 -120t74 -224q0 -180 -130 -289t-347 -109t-348.5 109t-131.5 289zM244 383q0 -129 93 -207t244.5 -78t245 78 t93.5 207t-92.5 206t-245.5 77q-152 0 -245 -77t-93 -206zM264 1036q0 -117 87 -187.5t230.5 -70.5t229.5 71t86 187q0 119 -86 191.5t-229.5 72.5t-230.5 -71.5t-87 -192.5z" />
<glyph unicode="9" horiz-adv-x="1112" d="M57 926q0 209 131 350t348.5 141t349.5 -141t132 -350q0 -190 -109 -324l-407 -602h-164l307 444q-57 -10 -108 -10q-217 0 -348.5 140.5t-131.5 351.5zM188 926q0 -160 94.5 -265.5t254 -105.5t254 105.5t94.5 265.5q0 158 -95.5 264t-253 106t-253 -106t-95.5 -264z " />
<glyph unicode=":" horiz-adv-x="579" d="M164 114.5q0 53.5 37 89.5t88 36q53 0 90 -36t37 -89.5t-37 -90t-90 -36.5q-51 0 -88 36.5t-37 90zM164 827.5q0 53.5 37 89t88 35.5q53 0 90 -35.5t37 -89t-37 -90.5t-90 -37q-51 0 -88 37t-37 90.5z" />
<glyph unicode=";" horiz-adv-x="598" d="M164 110.5q0 53.5 34.5 89.5t92.5 36q68 0 119 -59.5t51 -162.5q0 -117 -63 -186.5t-169 -69.5q-41 0 -59 4v72q41 -4 61 -4q96 0 117 90q16 43 8 100q-23 -31 -73 -30q-49 0 -84 33.5t-35 87zM164 827.5q0 53.5 37 89t88 35.5q53 0 90 -35.5t37 -89t-37 -90.5t-90 -37 q-51 0 -88 37t-37 90.5z" />
<glyph unicode="&#x3c;" horiz-adv-x="1026" d="M113 604v101l800 348v-127l-616 -273l616 -270v-129z" />
<glyph unicode="=" horiz-adv-x="1093" d="M113 401v119h868v-119h-868zM113 764v121h868v-121h-868z" />
<glyph unicode="&#x3e;" horiz-adv-x="1026" d="M113 254v129l616 270l-616 273v127l800 -348v-101z" />
<glyph unicode="?" horiz-adv-x="972" d="M27 1012q0 211 122.5 333.5t335.5 122.5q203 0 314.5 -106.5t111.5 -274.5q0 -215 -200 -360l-101 -72q-59 -43 -82.5 -87t-23.5 -124v-38h-131v40q0 104 29.5 167t107.5 118l111 78q150 104 149 274q0 117 -77 190t-212 73q-145 0 -231 -89.5t-86 -244.5h-137z M313 114.5q0 53.5 36 89.5t89.5 36t90 -37t36.5 -88q0 -53 -36.5 -90t-90 -37t-89.5 36.5t-36 90z" />
<glyph unicode="@" horiz-adv-x="1830" d="M82 436q0 381 232.5 606.5t621.5 225.5q371 0 592 -215t221 -633q0 -229 -77 -364.5t-232 -135.5q-125 0 -184.5 69.5t-73.5 217.5q-39 -86 -123 -140.5t-201 -54.5q-180 0 -294.5 123t-114.5 297t115.5 298t295.5 124q115 0 199 -53t123 -142v177h112v-578 q0 -139 41 -191.5t113 -52.5q88 0 140 104.5t52 297.5q0 379 -189 566t-517 187q-340 0 -542 -199.5t-202 -535.5q0 -332 199 -533.5t549 -201.5q252 0 444 125l45 -90q-214 -135 -493 -135q-395 0 -623.5 231t-228.5 606zM563 432q0 -131 85 -224t222.5 -93t224.5 93 t87 224q0 133 -87 226.5t-224.5 93.5t-222.5 -93.5t-85 -226.5z" />
<glyph unicode="A" horiz-adv-x="1181" d="M41 0l487 1434h125l488 -1434h-150l-84 258h-635l-82 -258h-149zM313 383h555l-278 864z" />
<glyph unicode="B" horiz-adv-x="1187" d="M174 0v1434h465q199 0 315.5 -98.5t116.5 -272.5q0 -139 -72.5 -225t-197.5 -111q123 -18 203.5 -109.5t80.5 -232.5q0 -178 -117.5 -281.5t-316.5 -103.5h-477zM313 125h336q137 0 217 71.5t80 200.5q0 119 -76.5 192t-191.5 73h-365v-537zM313 786h346q121 0 197 71 t76 192q0 123 -80 192.5t-219 69.5h-320v-525z" />
<glyph unicode="C" horiz-adv-x="1581" d="M82 716.5q0 321.5 200.5 534.5t538.5 213q276 0 452.5 -132t225.5 -349h-151q-47 164 -181.5 260t-345.5 96q-274 0 -434 -176t-160 -446q0 -268 160 -444.5t434 -176.5q211 0 345 95.5t182 261.5h151q-49 -217 -225.5 -350.5t-452.5 -133.5q-338 0 -538.5 213 t-200.5 534.5z" />
<glyph unicode="D" horiz-adv-x="1409" d="M174 0v1434h430q227 0 398.5 -103.5t253 -264.5t81.5 -349q0 -139 -49 -267t-138 -228.5t-231.5 -161t-314.5 -60.5h-430zM313 127h281q190 0 330.5 86t206 218t65.5 286q0 242 -159.5 417t-442.5 175h-281v-1182z" />
<glyph unicode="E" horiz-adv-x="1120" d="M174 0v1434h803v-125h-664v-533h664v-127h-664v-522h664v-127h-803z" />
<glyph unicode="F" horiz-adv-x="1093" d="M174 0v1434h803v-125h-664v-580h664v-127h-664v-602h-139z" />
<glyph unicode="G" horiz-adv-x="1687" d="M82 713q2 322 197.5 536.5t535.5 214.5q240 0 408 -117.5t204 -304.5h-149q-41 135 -164 216t-299 81q-279 0 -435 -177q-153 -175 -153 -442v-7v-7q0 -261 157 -434q159 -176 431 -176q225 0 356.5 118t167.5 333h-417v127h720v-127h-157q-41 -268 -213 -423t-457 -155 q-338 0 -535.5 212t-197.5 532z" />
<glyph unicode="H" horiz-adv-x="1366" d="M174 0v1434h139v-658h740v658h139v-1434h-139v649h-740v-649h-139z" />
<glyph unicode="I" horiz-adv-x="487" d="M174 0v1434h139v-1434h-139z" />
<glyph unicode="J" horiz-adv-x="1099" d="M51 444h139q0 -164 90.5 -256t235.5 -92q143 0 227 95.5t84 261.5v981h140v-981q0 -225 -122 -354.5t-329 -129.5t-336 127t-129 348z" />
<glyph unicode="K" horiz-adv-x="1198" d="M174 0v1434h139v-686l668 686h180l-712 -711l712 -723h-182l-666 686v-686h-139z" />
<glyph unicode="L" horiz-adv-x="1044" d="M174 0v1434h139v-1303h645v-131h-784z" />
<glyph unicode="M" horiz-adv-x="1667" d="M174 0v1434h135l525 -1241l526 1241h133v-1434h-133v1143l-471 -1143h-111l-471 1149v-1149h-133z" />
<glyph unicode="N" horiz-adv-x="1353" d="M174 0v1434h150l723 -1205v1205h133v-1434h-150l-723 1206v-1206h-133z" />
<glyph unicode="O" horiz-adv-x="1638" d="M82 717q0 311 201.5 529t535.5 218t535.5 -218t201.5 -529t-201.5 -529.5t-535.5 -218.5t-535.5 218.5t-201.5 529.5zM227 717v-6q0 -253 160 -433q162 -182 432.5 -182t432 181.5t161.5 439.5q0 260 -161.5 441t-432 181t-432.5 -181q-160 -179 -160 -435v-6z" />
<glyph unicode="P" horiz-adv-x="1181" d="M174 0v1434h500q205 0 339 -137.5t134 -350.5t-133 -351t-340 -138h-361v-457h-139zM313 584h355q147 0 243.5 102t96.5 260t-96.5 260.5t-243.5 102.5h-355v-725z" />
<glyph unicode="Q" horiz-adv-x="1638" d="M82 717q0 311 201.5 529t535.5 218t535.5 -218t201.5 -529q0 -268 -154.5 -473t-420.5 -258l172 -222l-123 -61l-203 266h-8q-334 0 -535.5 218.5t-201.5 529.5zM227 717v-6q0 -254 160 -433q162 -182 432.5 -182t432 181.5t161.5 439.5q0 260 -161.5 441t-432 181 t-432.5 -181q-160 -179 -160 -435v-6z" />
<glyph unicode="R" horiz-adv-x="1239" d="M174 0v1434h500q205 0 339 -137.5t134 -350.5q0 -170 -88 -295t-234 -172l303 -479h-159l-287 457h-8h-361v-457h-139zM313 584h355q147 0 243.5 102t96.5 260t-96.5 260.5t-243.5 102.5h-355v-725z" />
<glyph unicode="S" horiz-adv-x="1148" d="M82 444h139q0 -162 100.5 -257t272.5 -95q154 0 240 72t86 201q0 205 -248 274l-242 74q-305 84 -305 372q0 170 124 274.5t322 104.5q209 0 333 -115.5t124 -314.5h-139q0 147 -85 228t-237 81q-137 0 -220 -68.5t-83 -180.5q0 -104 65.5 -172t202.5 -107l234 -70 q291 -82 291 -376q0 -182 -125 -291t-338 -109q-238 0 -375 127t-137 348z" />
<glyph unicode="T" horiz-adv-x="1046" d="M16 1303v131h1014v-131h-438v-1303h-139v1303h-437z" />
<glyph unicode="U" horiz-adv-x="1290" d="M133 467v967h139v-959q0 -182 99.5 -280.5t273.5 -98.5t274.5 98.5t100.5 280.5v959h137v-967q0 -238 -137 -368t-375 -130q-236 0 -374 130t-138 368z" />
<glyph unicode="V" horiz-adv-x="1138" d="M6 1434h150l413 -1221l416 1221h150l-498 -1434h-133z" />
<glyph unicode="W" horiz-adv-x="1931" d="M10 1434h146l397 -1211l358 1211h109l360 -1211l396 1211h145l-485 -1434h-107l-362 1198l-365 -1198h-106z" />
<glyph unicode="X" horiz-adv-x="1212" d="M51 0l477 717l-477 717h158l397 -603l400 603h155l-477 -717l477 -717h-155l-400 602l-397 -602h-158z" />
<glyph unicode="Y" horiz-adv-x="1110" d="M-10 1434h162l456 -723l371 723h151l-731 -1434h-151l289 569z" />
<glyph unicode="Z" horiz-adv-x="1157" d="M51 0l793 1309h-727v125h958l-786 -1307h794v-127h-1032z" />
<glyph unicode="[" horiz-adv-x="583" d="M174 -395v1896h393v-110h-270v-1678h270v-108h-393z" />
<glyph unicode="\" horiz-adv-x="872" d="M31 1505l108 47l703 -1630l-109 -47z" />
<glyph unicode="]" horiz-adv-x="583" d="M16 -287h271v1678h-271v110h394v-1896h-394v108z" />
<glyph unicode="^" horiz-adv-x="1101" d="M102 621l398 823h98l401 -823h-149l-301 659l-301 -659h-146z" />
<glyph unicode="_" horiz-adv-x="1044" d="M0 -344h1044v-96h-1044v96z" />
<glyph unicode="`" horiz-adv-x="1228" d="M14 1298l47 101l543 -250l-45 -105z" />
<glyph unicode="a" d="M82 465q0 213 128 353t341 140q127 0 223 -62t139 -167v205h134v-934h-134v201q-43 -100 -142 -163t-222 -63q-215 0 -341 138.5t-126 351.5zM215 465q0 -160 96 -264.5t254 -104.5q164 0 260.5 106.5t96.5 262.5q0 158 -96.5 265.5t-260.5 107.5q-158 0 -254 -105.5 t-96 -267.5z" />
<glyph unicode="b" d="M164 0v934h2v500h131v-705q45 106 145.5 167.5t227.5 61.5q201 0 329.5 -138t128.5 -355q0 -213 -131 -351.5t-333 -138.5q-123 0 -221.5 61.5t-145.5 164.5v-201h-133zM289 465q0 -160 101 -264.5t257 -104.5q152 0 250 104.5t98 264.5q0 162 -98 267.5t-250 105.5 q-156 0 -257 -104.5t-101 -268.5z" />
<glyph unicode="c" horiz-adv-x="1056" d="M82 467q0 219 127 353t338 134q182 0 296.5 -91t131.5 -247h-133q-18 106 -95 163t-202 57q-152 0 -241 -99.5t-89 -269.5t89 -269.5t241 -99.5q125 0 201.5 54.5t95.5 158.5h133q-16 -154 -131 -244t-297 -90q-211 0 -338 135.5t-127 354.5z" />
<glyph unicode="d" d="M82 465q0 213 128 353t341 140q127 0 223 -62t139 -167v205h2v500h132v-1434h-134v201q-43 -100 -142 -163t-222 -63q-215 0 -341 138.5t-126 351.5zM215 465q0 -160 96 -264.5t254 -104.5q164 0 260.5 106.5t96.5 262.5q0 158 -96.5 265.5t-260.5 107.5 q-158 0 -254 -105.5t-96 -267.5z" />
<glyph unicode="e" horiz-adv-x="1054" d="M82 469q0 221 125 355t330 134q195 0 315.5 -122t120.5 -312q0 -53 -4 -88h-754q0 -156 89 -249t239 -93q104 0 179 45t105 125h134q-27 -129 -143 -209t-273 -80q-211 0 -337 134.5t-126 359.5zM215 541h629q-2 139 -84 224t-225 85q-137 0 -223.5 -85t-96.5 -224z" />
<glyph unicode="f" horiz-adv-x="698" d="M47 819v115h205v186q0 100 27.5 169t73.5 100.5t88 44t89 12.5q84 0 138 -25v-114q-62 20 -107 20q-35 0 -61.5 -6t-55 -24.5t-44 -61.5t-15.5 -109v-192h283v-115h-283v-819h-133v819h-205z" />
<glyph unicode="g" d="M82 465q0 211 132 352t337 141q125 0 221 -60t141 -169v203h134v-924q0 -258 -158 -381q-117 -92 -322 -92q-211 0 -336 94q-123 94 -127 240h138q6 -96 90 -158.5t233 -62.5q348 0 348 350v203q-45 -104 -144 -165t-220 -61q-207 0 -337 139.5t-130 350.5zM215 465 q0 -160 98 -264.5t252 -104.5q158 0 257.5 106.5t99.5 262.5q0 160 -99.5 266.5t-257.5 106.5q-154 0 -252 -105.5t-98 -267.5z" />
<glyph unicode="h" horiz-adv-x="1159" d="M170 0v1434h131v-500h2v-215q33 109 123 174t225 65q176 0 265.5 -101t89.5 -294v-563h-132v510q0 332 -266 332q-150 0 -227.5 -99.5t-77.5 -267.5v-475h-133z" />
<glyph unicode="i" horiz-adv-x="460" d="M109 1243q0 51 34.5 87t88 36t88 -36t34.5 -87q0 -53 -34.5 -88t-88 -35t-88 35t-34.5 88zM164 0v934h133v-934h-133z" />
<glyph unicode="j" horiz-adv-x="466" d="M-59 -307q49 -20 106 -21q123 0 123 158v1104h133v-1137q0 -119 -61 -184.5t-170 -65.5q-84 0 -131 23v123zM115 1243q0 51 34.5 87t88 36t88 -36t34.5 -87q0 -53 -34.5 -88t-88 -35t-88 35t-34.5 88z" />
<glyph unicode="k" horiz-adv-x="1007" d="M164 0v934h2v500h131v-940l477 440h172l-502 -455l502 -479h-178l-471 451v-451h-133z" />
<glyph unicode="l" horiz-adv-x="460" d="M164 0v1434h133v-1434h-133z" />
<glyph unicode="m" horiz-adv-x="1703" d="M164 0v934h133v-211q27 98 101.5 166.5t197.5 68.5q121 0 201 -59t102 -176q29 100 115 167.5t203 67.5q164 0 248.5 -94t84.5 -272v-592h-131v563q0 143 -62.5 211t-170.5 68q-125 0 -193.5 -95.5t-68.5 -269.5v-477h-133v537q0 305 -232 305q-129 0 -195.5 -98.5 t-66.5 -266.5v-477h-133z" />
<glyph unicode="n" horiz-adv-x="1153" d="M164 0v934h133v-215q33 109 123 174t225 65q176 0 265 -101t89 -294v-563h-131v510q0 332 -266 332q-150 0 -227.5 -99.5t-77.5 -267.5v-475h-133z" />
<glyph unicode="o" horiz-adv-x="1124" d="M82 467q0 209 132 350t349 141t348 -140t131 -351q0 -209 -131 -350.5t-348 -141.5t-349 141.5t-132 350.5zM215 467q0 -158 95.5 -264.5t253 -106.5t252.5 106.5t95 264.5q0 160 -94 265.5t-254 105.5t-254 -105.5t-94 -265.5z" />
<glyph unicode="p" d="M164 0v934h133v-205q45 106 145.5 167.5t227.5 61.5q201 0 329.5 -138t128.5 -355q0 -213 -131 -351.5t-333 -138.5q-123 0 -221.5 61.5t-145.5 164.5v-641h-131v440h-2zM289 465q0 -160 101 -264.5t257 -104.5q152 0 250 104.5t98 264.5q0 162 -98 267.5t-250 105.5 q-156 0 -257 -104.5t-101 -268.5z" />
<glyph unicode="q" d="M82 465q0 213 128 353t341 140q127 0 223 -62t139 -167v205h134v-1374h-132v440h-2v201q-43 -100 -142 -163t-222 -63q-215 0 -341 138.5t-126 351.5zM215 465q0 -160 96 -264.5t254 -104.5q164 0 260.5 106.5t96.5 262.5q0 158 -96.5 265.5t-260.5 107.5 q-158 0 -254 -105.5t-96 -267.5z" />
<glyph unicode="r" horiz-adv-x="727" d="M164 0v934h133v-246q29 131 112 197.5t189 66.5q39 0 84 -8v-123q-43 6 -88 6q-150 0 -223.5 -124.5t-73.5 -299.5v-403h-133z" />
<glyph unicode="s" horiz-adv-x="905" d="M82 274h133q0 -80 67.5 -134t184.5 -54q96 0 154.5 42t58.5 116q0 51 -27.5 92t-83.5 55l-260 66q-198 49 -198 239q0 119 94 190.5t246 71.5q164 0 256 -74.5t92 -197.5h-129q-2 78 -61.5 122t-164.5 44q-88 0 -145 -39t-57 -111q0 -109 129 -141l243 -63 q98 -25 148.5 -91.5t50.5 -148.5q0 -131 -94 -207t-256 -76q-174 0 -277.5 86t-103.5 213z" />
<glyph unicode="t" horiz-adv-x="708" d="M47 819v115h180v309h131v-309h258v-115h-258v-489q0 -133 42 -177t122 -44q72 0 125 14v-119q-53 -16 -151 -16q-53 0 -92 9t-83.5 39t-69 98.5t-24.5 170.5v514h-180z" />
<glyph unicode="u" horiz-adv-x="1153" d="M154 371v563h133v-535q0 -307 266 -307q150 0 226.5 104.5t76.5 241.5v496h133v-934h-133v211q-35 -102 -124 -169t-214 -67q-166 0 -265 101.5t-99 294.5z" />
<glyph unicode="v" horiz-adv-x="968" d="M10 934h144l331 -758l332 758h141l-417 -934h-111z" />
<glyph unicode="w" horiz-adv-x="1486" d="M20 934h146l254 -748l252 748h143l250 -748l258 748h143l-344 -934h-114l-265 770l-264 -770h-112z" />
<glyph unicode="x" horiz-adv-x="952" d="M41 0l358 469l-354 465h162l268 -367l270 367h164l-356 -465l358 -469h-161l-275 373l-272 -373h-162z" />
<glyph unicode="y" horiz-adv-x="1161" d="M154 -131h133q10 -221 282 -221q297 0 297 329v230q-41 -102 -131 -166t-217 -64q-365 0 -364 414v543h131v-518q0 -156 62.5 -237t211.5 -81q147 0 227 106.5t80 252.5v477h131v-965q0 -227 -131 -340q-111 -94 -295 -94q-201 0 -313 94q-102 88 -104 240z" />
<glyph unicode="z" horiz-adv-x="894" d="M41 0l590 819h-553v115h782l-594 -819h580v-115h-805z" />
<glyph unicode="{" horiz-adv-x="634" d="M51 498v112q61 0 125 50.5t64 140.5v418q0 135 81.5 209.5t188.5 74.5h108v-108h-92q-78 0 -121 -55.5t-43 -143.5v-410q0 -104 -55 -159.5t-127 -73.5q72 -18 127 -72.5t55 -158.5v-412q0 -88 43.5 -143.5t120.5 -55.5h92v-108h-108q-106 0 -188 74.5t-82 209.5v418 q0 90 -63.5 141.5t-125.5 51.5z" />
<glyph unicode="|" horiz-adv-x="454" d="M174 -395v1896h107v-1896h-107z" />
<glyph unicode="}" horiz-adv-x="634" d="M16 -289h93q78 0 120.5 55.5t42.5 143.5v412q0 104 55.5 158.5t127.5 72.5q-72 18 -127.5 73.5t-55.5 159.5v410q0 88 -43 143.5t-120 55.5h-93v108h109q106 0 188 -74.5t82 -209.5v-418q0 -90 63.5 -140.5t125.5 -50.5v-112q-61 0 -125 -51.5t-64 -141.5v-418 q0 -135 -82 -209.5t-188 -74.5h-109v108z" />
<glyph unicode="~" horiz-adv-x="1103" d="M102 481v123q88 102 211 103q84 0 242 -66q14 -6 47 -19.5t50.5 -20.5t43 -16.5t45 -13.5t35.5 -4q106 0 225 111v-121q-98 -108 -225 -108q-72 0 -229 71q-143 68 -238 68q-106 0 -207 -107z" />
<glyph unicode="&#xa1;" horiz-adv-x="520" d="M135 878.5q0 53.5 36 90.5t89 37q51 0 89 -38t38 -89.5t-37 -88t-90 -36.5t-89 35.5t-36 89zM195 -440v1028h131v-1028h-131z" />
<glyph unicode="&#xa2;" horiz-adv-x="1056" d="M82 696q0 203 110.5 335t301.5 151v211h104v-211q162 -14 261 -103.5t116 -232.5h-133q-18 106 -95 162.5t-202 56.5q-152 0 -241 -99.5t-89 -269.5t89 -269t241 -99q125 0 201.5 54t95.5 159h133q-16 -141 -116.5 -230.5t-260.5 -101.5v-209h-104v209 q-190 18 -301 150.5t-111 336.5z" />
<glyph unicode="&#xa3;" horiz-adv-x="1052" d="M78 707v104h137v164q0 219 110.5 330.5t303.5 111.5q188 0 295.5 -104.5t107.5 -284.5h-139q0 129 -68.5 202t-197.5 73q-141 0 -207 -83t-66 -257v-152h379v-104h-379v-211q0 -248 -116 -369h731v-127h-887v98q133 125 133 373v236h-137z" />
<glyph unicode="&#xa4;" horiz-adv-x="1191" d="M72 322l145 145q-94 125 -94 291q0 168 94 291l-143 145l84 86l143 -145q125 98 295 98t297 -96l143 141l84 -84l-143 -143q98 -123 98 -293t-98 -293l143 -141l-84 -86l-143 143q-123 -96 -297 -96q-172 0 -293 98l-145 -145zM254 758q0 -147 95 -251t247 -104 q156 0 252 103.5t96 251.5q0 150 -96 253t-252 103q-152 0 -247 -103.5t-95 -252.5z" />
<glyph unicode="&#xa5;" horiz-adv-x="1101" d="M31 1393h155l365 -721l364 721h156l-444 -834h317v-94h-321v-176h321v-99h-321v-190h-142v190h-321v99h321v176h-321v94h317z" />
<glyph unicode="&#xa6;" horiz-adv-x="454" d="M174 -395v878h107v-878h-107zM174 659v842h107v-842h-107z" />
<glyph unicode="&#xa7;" horiz-adv-x="1107" d="M106 -92h142q0 -115 75.5 -183.5t225.5 -68.5q131 0 206.5 56.5t75.5 163t-74.5 174t-180 103t-211 74.5t-180 115t-74.5 193q0 195 208 280q-188 109 -188 309q0 160 118 252t310 92q217 0 329.5 -102t112.5 -270h-145q0 117 -73.5 186.5t-221.5 69.5 q-131 0 -206.5 -57.5t-75.5 -166.5q0 -90 53 -152.5t133 -93t173 -65.5t173 -68.5t133 -102.5t53 -167q0 -197 -211 -286q190 -109 191 -314q0 -164 -116 -252t-312 -88q-215 0 -329 101.5t-114 267.5zM248 543q0 -43 18.5 -79t44 -58.5t72.5 -47t83 -37t98.5 -35 t97.5 -34.5q201 70 200 219q0 43 -18.5 78t-43 57.5t-72.5 46t-84 36.5t-100.5 34.5t-97.5 34.5q-199 -66 -198 -215z" />
<glyph unicode="&#xa8;" horiz-adv-x="1228" d="M143 1237q0 49 34 84t83 35q51 0 85 -35t34 -84t-35 -83t-84 -34t-83 34t-34 83zM547 1237q0 49 33.5 84t83 35t84 -35t34.5 -84t-34.5 -83t-84 -34t-83 34t-33.5 83z" />
<glyph unicode="&#xa9;" horiz-adv-x="1636" d="M82 716.5q0 321.5 201.5 536.5t535.5 215t534.5 -215t200.5 -536.5t-200.5 -536.5t-534.5 -215t-535.5 215t-201.5 536.5zM193 717q0 -276 170.5 -465t455.5 -189q283 0 454 188.5t171 465.5q0 279 -171 467t-454 188q-285 0 -455.5 -188.5t-170.5 -466.5zM397 717 q0 180 116 306t312 126q156 0 254.5 -77t118.5 -202h-98q-18 86 -91 139.5t-184 53.5q-152 0 -241.5 -100.5t-89.5 -245.5q0 -143 90 -244.5t241 -101.5q111 0 183.5 53t91.5 139h98q-20 -123 -118.5 -200.5t-254.5 -77.5q-197 0 -312.5 126t-115.5 306z" />
<glyph unicode="&#xaa;" horiz-adv-x="749" d="M51 1090q0 123 78 204.5t203 81.5q160 0 219 -129v115h111v-541h-111v113q-27 -57 -85 -92t-136 -35q-125 0 -202 81t-77 202zM162 1090q0 -80 54 -135.5t140 -55.5q90 0 144.5 55.5t54.5 135.5q0 82 -54.5 138t-144.5 56q-86 0 -140 -56.5t-54 -137.5z" />
<glyph unicode="&#xab;" horiz-adv-x="985" d="M16 535l420 387l78 -80l-334 -307l334 -308l-78 -77zM453 535l419 387l78 -80l-334 -307l334 -308l-78 -77z" />
<glyph unicode="&#xac;" horiz-adv-x="1032" d="M113 725v119h807v-418h-132v299h-675z" />
<glyph unicode="&#xad;" horiz-adv-x="843" d="M113 473v119h618v-119h-618z" />
<glyph unicode="&#xae;" horiz-adv-x="1208" d="M82 936q0 229 143.5 380.5t381 151.5t378.5 -151.5t141 -380.5q0 -227 -141 -380t-378.5 -153t-381 153t-143.5 380zM162 936q0 -197 120.5 -330t323.5 -133q201 0 322 133t121 330q0 199 -121 332t-322 133q-203 0 -323.5 -133t-120.5 -332zM422 655v578h213 q86 0 139 -56.5t53 -136.5q0 -63 -36.5 -113t-98.5 -67l131 -205h-80l-122 197h-129v-197h-70zM494 913h137q57 0 91 37t34 90q0 55 -34 93t-91 38h-137v-258z" />
<glyph unicode="&#xaf;" horiz-adv-x="1228" d="M158 1137v108h649v-108h-649z" />
<glyph unicode="&#xb0;" horiz-adv-x="739" d="M61 1110q0 129 88.5 218t221.5 89q131 0 219 -89t88 -218t-88 -218t-219 -89q-133 0 -221.5 89t-88.5 218zM170 1110q0 -86 55.5 -144.5t145.5 -58.5q88 0 143 58.5t55 144.5t-55 144.5t-143 58.5q-90 0 -145.5 -58.5t-55.5 -144.5z" />
<glyph unicode="&#xb1;" horiz-adv-x="1032" d="M113 315v119h807v-119h-807zM113 797v118h338v244h131v-244h338v-118h-338v-240h-131v240h-338z" />
<glyph unicode="&#xb2;" horiz-adv-x="765" d="M80 819q0 141 48 223t167 138l137 65q119 55 119 168q0 61 -42 98t-112 37q-84 0 -132 -48t-48 -134h-117q0 125 81 200.5t216 75.5q125 0 199 -61t74 -164q0 -162 -164 -239l-133 -66q-78 -37 -113 -81t-41 -113h451v-99h-590z" />
<glyph unicode="&#xb3;" horiz-adv-x="780" d="M88 1061h117q0 -76 50 -120t134 -44q82 0 130 40t48 107q0 70 -47 109t-133 39h-76v90h76q80 0 124 36t44 101q0 59 -45 96t-119 37q-78 0 -125 -39.5t-47 -105.5h-117q0 104 79 169.5t212 65.5q127 0 204 -59t77 -158q0 -152 -172 -186q80 -8 132 -63.5t52 -135.5 q0 -106 -81 -170.5t-218 -64.5q-141 0 -220 67.5t-79 188.5z" />
<glyph unicode="&#xb4;" horiz-adv-x="1228" d="M80 1149l543 250l47 -101l-545 -254z" />
<glyph unicode="&#xb5;" horiz-adv-x="1163" d="M164 -440v1374h133v-535q0 -307 266 -307q150 0 226.5 104.5t76.5 241.5v496h133v-934h-133v211q-35 -102 -124 -169t-214 -67q-141 0 -231 70v-485h-133z" />
<glyph unicode="&#xb6;" horiz-adv-x="1341" d="M102 1065q0 102 37 179t90.5 119t128 66.5t133 31.5t121.5 7h627v-112h-109v-1659h-124v1657h-334v-1657h-127v977q-199 0 -321 99t-122 292z" />
<glyph unicode="&#xb7;" horiz-adv-x="579" d="M164 641q0 51 37 88t88 37q53 0 90 -36t37 -89t-37 -90t-90 -37q-51 0 -88 37t-37 90z" />
<glyph unicode="&#xb8;" horiz-adv-x="1228" d="M117 -297h78q4 -35 28.5 -55.5t63.5 -20.5q45 0 71.5 29t26.5 80q0 104 -96 104q-61 0 -90 -49h-68v209h80v-137q29 39 102 39q66 0 110 -45t44 -121q0 -78 -47 -127t-133 -49q-72 0 -119 39t-51 104z" />
<glyph unicode="&#xb9;" horiz-adv-x="546" d="M72 1397v88q115 0 155.5 31.5t40.5 109.5h101v-807h-113v578h-184z" />
<glyph unicode="&#xba;" horiz-adv-x="712" d="M53 1091.5q0 122.5 83 203.5t220.5 81t221.5 -81t84 -203.5t-84 -203.5t-221.5 -81t-220.5 81t-83 203.5zM160 1092q0 -82 54 -137.5t142 -55.5t141.5 55.5t53.5 137.5t-53.5 137t-141.5 55t-142 -55t-54 -137z" />
<glyph unicode="&#xbb;" horiz-adv-x="985" d="M35 227l334 308l-334 307l78 80l419 -387l-419 -385zM471 227l334 308l-334 307l78 80l420 -387l-420 -385z" />
<glyph unicode="&#xbc;" horiz-adv-x="1615" d="M72 1163v88q115 0 155.5 32t40.5 110h101v-807h-113v577h-184zM158 29l966 1396l93 -57l-969 -1399zM948 260v547h113v-447h237v240h115v-240h131v-100h-131v-262h-115v262h-350z" />
<glyph unicode="&#xbd;" horiz-adv-x="1572" d="M72 1163v88q115 0 155.5 32t40.5 110h101v-807h-113v577h-184zM158 29l966 1396l93 -57l-969 -1399zM887 0q0 141 48 223t167 137l137 66q119 55 119 168q0 61 -42 98t-112 37q-84 0 -132 -48t-48 -134h-117q0 125 81 200.5t216 75.5q125 0 199 -61.5t74 -163.5 q0 -162 -164 -240l-133 -65q-78 -37 -113 -81t-41 -114h451v-98h-590z" />
<glyph unicode="&#xbe;" horiz-adv-x="1812" d="M88 827h117q0 -76 50 -119.5t134 -43.5q82 0 130 39.5t48 107.5q0 70 -47 108.5t-133 38.5h-76v91h76q80 0 124 35.5t44 101.5q0 59 -45 96t-119 37q-78 0 -125 -40t-47 -105h-117q0 104 79 169.5t212 65.5q127 0 204 -59.5t77 -157.5q0 -152 -172 -186q80 -8 132 -63.5 t52 -135.5q0 -106 -81 -171t-218 -65q-141 0 -220 68t-79 188zM354 29l967 1396l92 -57l-969 -1399zM1145 260v547h112v-447h238v240h115v-240h131v-100h-131v-262h-115v262h-350z" />
<glyph unicode="&#xbf;" horiz-adv-x="972" d="M61 -70q0 215 201 361l100 71q59 43 83 87.5t24 123.5v39h131v-41q0 -104 -29.5 -166.5t-107.5 -117.5l-111 -78q-150 -104 -149 -275q0 -117 76.5 -189.5t212.5 -72.5q145 0 231 89t86 245h137q0 -211 -123 -334t-336 -123q-203 0 -314.5 106.5t-111.5 274.5zM408 903 q0 51 38 89t89 38q53 0 88.5 -37t35.5 -90t-35.5 -89t-89 -36t-90 37t-36.5 88z" />
<glyph unicode="&#xc0;" horiz-adv-x="1181" d="M41 0l487 1434h125l488 -1434h-150l-84 258h-635l-82 -258h-149zM313 383h555l-278 864zM328 1733l49 92l467 -234l-49 -94z" />
<glyph unicode="&#xc1;" horiz-adv-x="1181" d="M41 0l487 1434h125l488 -1434h-150l-84 258h-635l-82 -258h-149zM313 383h555l-278 864zM338 1591l467 234l49 -92l-467 -236z" />
<glyph unicode="&#xc2;" horiz-adv-x="1181" d="M41 0l487 1434h125l488 -1434h-150l-84 258h-635l-82 -258h-149zM313 383h555l-278 864zM324 1577l264 231l266 -231l-72 -68l-194 177l-193 -177z" />
<glyph unicode="&#xc3;" horiz-adv-x="1181" d="M41 0l487 1434h125l488 -1434h-150l-84 258h-635l-82 -258h-149zM217 1616q88 150 211 149q61 0 166.5 -62.5t153.5 -62.5q90 0 159 103l60 -60q-80 -143 -211 -147q-72 -4 -175.5 60.5t-148.5 64.5q-88 0 -153 -100zM313 383h555l-278 864z" />
<glyph unicode="&#xc4;" horiz-adv-x="1181" d="M41 0l487 1434h125l488 -1434h-150l-84 258h-635l-82 -258h-149zM233 1667q0 49 34 84t83 35q51 0 85 -35t34 -84t-34 -83t-85 -34q-49 0 -83 34t-34 83zM313 383h555l-278 864zM713 1667q0 49 33.5 84t82.5 35q51 0 85 -35t34 -84t-34 -83t-85 -34q-49 0 -82.5 34 t-33.5 83z" />
<glyph unicode="&#xc5;" horiz-adv-x="1181" d="M41 0l467 1374q-72 27 -116 88.5t-44 136.5q0 100 70.5 171t173.5 71q104 0 177 -71.5t73 -170.5q0 -78 -47 -140t-121 -87l467 -1372h-150l-84 258h-635l-82 -258h-149zM313 383h555l-278 864zM438 1599.5q0 -63.5 45 -108.5t109 -45q66 0 111 44t45 109.5t-44.5 110.5 t-111.5 45q-63 0 -108.5 -46t-45.5 -109.5z" />
<glyph unicode="&#xc6;" horiz-adv-x="1677" d="M31 0l723 1434h780v-125h-582v-533h582v-127h-582v-522h582v-127h-721v262h-502l-129 -262h-151zM369 383h444v907z" />
<glyph unicode="&#xc7;" horiz-adv-x="1581" d="M82 717q0 322 200.5 534.5t538.5 212.5q276 0 452.5 -132t225.5 -349h-151q-47 164 -181.5 260t-345.5 96q-274 0 -434 -176t-160 -446q0 -268 160 -444.5t434 -176.5q211 0 345 95.5t182 261.5h151q-47 -209 -213 -341t-426 -143v-106q29 39 103 39q66 0 109.5 -45 t43.5 -121q0 -78 -47 -127t-133 -49q-72 0 -119 39t-51 104h78q4 -35 28.5 -55.5t63.5 -20.5q45 0 71.5 29t26.5 80q0 104 -96 104q-61 0 -90 -49h-68v178q-319 14 -508.5 225.5t-189.5 522.5z" />
<glyph unicode="&#xc8;" horiz-adv-x="1120" d="M174 0v1434h803v-125h-664v-533h664v-127h-664v-522h664v-127h-803zM326 1733l49 92l467 -234l-49 -94z" />
<glyph unicode="&#xc9;" horiz-adv-x="1120" d="M174 0v1434h803v-125h-664v-533h664v-127h-664v-522h664v-127h-803zM336 1591l467 234l49 -92l-467 -236z" />
<glyph unicode="&#xca;" horiz-adv-x="1120" d="M174 0v1434h803v-125h-664v-533h664v-127h-664v-522h664v-127h-803zM322 1577l264 231l266 -231l-72 -68l-194 177l-193 -177z" />
<glyph unicode="&#xcb;" horiz-adv-x="1120" d="M174 0v1434h803v-125h-664v-533h664v-127h-664v-522h664v-127h-803zM231 1667q0 49 34 84t83 35q51 0 85 -35t34 -84t-34 -83t-85 -34q-49 0 -83 34t-34 83zM711 1667q0 49 33.5 84t82.5 35q51 0 85 -35t34 -84t-34 -83t-85 -34q-49 0 -82.5 34t-33.5 83z" />
<glyph unicode="&#xcc;" horiz-adv-x="487" d="M66 1700l61 92l291 -174l-60 -92zM174 0v1434h139v-1434h-139z" />
<glyph unicode="&#xcd;" horiz-adv-x="487" d="M57 1614l310 188l61 -90l-309 -188zM174 0v1434h139v-1434h-139z" />
<glyph unicode="&#xce;" horiz-adv-x="487" d="M27 1604l215 186l217 -186l-66 -72l-151 135l-150 -135zM174 0v1434h139v-1434h-139z" />
<glyph unicode="&#xcf;" horiz-adv-x="487" d="M2 1665q0 49 32 81t79 32t79.5 -32t32.5 -81t-31.5 -80t-80.5 -31q-47 0 -79 31t-32 80zM174 0v1434h139v-1434h-139zM262 1665q0 49 32 81t79 32t78.5 -32t31.5 -81t-31.5 -80t-78.5 -31t-79 31t-32 80z" />
<glyph unicode="&#xd0;" horiz-adv-x="1409" d="M10 664v118h164v652h430q227 0 398.5 -103.5t253 -264.5t81.5 -349q0 -139 -49 -267t-138 -228.5t-231.5 -161t-314.5 -60.5h-430v664h-164zM313 127h281q190 0 330.5 86t206 218t65.5 286q0 242 -159.5 417t-442.5 175h-281v-527h293v-118h-293v-537z" />
<glyph unicode="&#xd1;" horiz-adv-x="1353" d="M174 0v1434h150l723 -1205v1205h133v-1434h-150l-723 1206v-1206h-133zM303 1616q88 150 211 149q61 0 166.5 -62.5t153.5 -62.5q90 0 159 103l60 -60q-80 -143 -211 -147q-72 -4 -175.5 60.5t-148.5 64.5q-88 0 -153 -100z" />
<glyph unicode="&#xd2;" horiz-adv-x="1638" d="M82 717q0 311 201.5 529t535.5 218t535.5 -218t201.5 -529t-201.5 -529.5t-535.5 -218.5t-535.5 218.5t-201.5 529.5zM227 717q-2 -258 160 -439.5t432.5 -181.5t432 181.5t161.5 439.5q0 260 -161.5 441t-432 181t-432.5 -181t-160 -441zM555 1733l49 92l467 -234 l-49 -94z" />
<glyph unicode="&#xd3;" horiz-adv-x="1638" d="M82 717q0 311 201.5 529t535.5 218t535.5 -218t201.5 -529t-201.5 -529.5t-535.5 -218.5t-535.5 218.5t-201.5 529.5zM227 717q-2 -258 160 -439.5t432.5 -181.5t432 181.5t161.5 439.5q0 260 -161.5 441t-432 181t-432.5 -181t-160 -441zM565 1591l467 234l49 -92 l-467 -236z" />
<glyph unicode="&#xd4;" horiz-adv-x="1638" d="M82 717q0 311 201.5 529t535.5 218t535.5 -218t201.5 -529t-201.5 -529.5t-535.5 -218.5t-535.5 218.5t-201.5 529.5zM227 717q-2 -258 160 -439.5t432.5 -181.5t432 181.5t161.5 439.5q0 260 -161.5 441t-432 181t-432.5 -181t-160 -441zM551 1577l264 231l266 -231 l-71 -68l-195 177l-192 -177z" />
<glyph unicode="&#xd5;" horiz-adv-x="1638" d="M82 717q0 311 201.5 529t535.5 218t535.5 -218t201.5 -529t-201.5 -529.5t-535.5 -218.5t-535.5 218.5t-201.5 529.5zM227 717q-2 -258 160 -439.5t432.5 -181.5t432 181.5t161.5 439.5q0 260 -161.5 441t-432 181t-432.5 -181t-160 -441zM444 1616q88 150 211 149 q61 0 167 -62.5t153 -62.5q90 0 160 103l59 -60q-80 -143 -211 -147q-72 -4 -175 60.5t-149 64.5q-88 0 -153 -100z" />
<glyph unicode="&#xd6;" horiz-adv-x="1638" d="M82 717q0 311 201.5 529t535.5 218t535.5 -218t201.5 -529t-201.5 -529.5t-535.5 -218.5t-535.5 218.5t-201.5 529.5zM227 717q-2 -258 160 -439.5t432.5 -181.5t432 181.5t161.5 439.5q0 260 -161.5 441t-432 181t-432.5 -181t-160 -441zM461 1667q0 49 33.5 84t83.5 35 q51 0 84.5 -35t33.5 -84t-33.5 -83t-84.5 -34q-49 0 -83 34t-34 83zM940 1667q0 49 34 84t83 35q51 0 85 -35t34 -84t-34 -83t-85 -34q-49 0 -83 34t-34 83z" />
<glyph unicode="&#xd7;" horiz-adv-x="978" d="M113 352l293 293l-293 291l84 86l292 -293l291 293l86 -84l-293 -293l291 -293l-84 -84l-291 291l-290 -289z" />
<glyph unicode="&#xd8;" horiz-adv-x="1638" d="M82 717q0 311 201.5 529t535.5 218q133 0 244 -37l67 156l97 -43l-66 -151q186 -92 290.5 -273.5t104.5 -398.5q0 -311 -201.5 -529.5t-535.5 -218.5q-131 0 -248 39l-69 -162l-99 41l70 160q-184 92 -287.5 272.5t-103.5 397.5zM227 717q-2 -174 77 -322.5t220 -226.5 l490 1143q-92 29 -195 28q-270 0 -432 -181t-160 -441zM623 127q90 -31 196 -31q270 0 432 181.5t162 439.5q0 178 -80 326.5t-223 226.5z" />
<glyph unicode="&#xd9;" horiz-adv-x="1290" d="M133 467v967h139v-959q0 -182 99.5 -280.5t273.5 -98.5t274.5 98.5t100.5 280.5v959h137v-967q0 -238 -137 -368t-375 -130q-236 0 -374 130t-138 368zM381 1733l49 92l467 -234l-49 -94z" />
<glyph unicode="&#xda;" horiz-adv-x="1290" d="M133 467v967h139v-959q0 -182 99.5 -280.5t273.5 -98.5t274.5 98.5t100.5 280.5v959h137v-967q0 -238 -137 -368t-375 -130q-236 0 -374 130t-138 368zM391 1591l467 234l49 -92l-467 -236z" />
<glyph unicode="&#xdb;" horiz-adv-x="1290" d="M133 467v967h139v-959q0 -182 99.5 -280.5t273.5 -98.5t274.5 98.5t100.5 280.5v959h137v-967q0 -238 -137 -368t-375 -130q-236 0 -374 130t-138 368zM377 1577l264 231l266 -231l-71 -68l-195 177l-192 -177z" />
<glyph unicode="&#xdc;" horiz-adv-x="1290" d="M133 467v967h139v-959q0 -182 99.5 -280.5t273.5 -98.5t274.5 98.5t100.5 280.5v959h137v-967q0 -238 -137 -368t-375 -130q-236 0 -374 130t-138 368zM287 1667q0 49 33.5 84t82.5 35q51 0 85 -35t34 -84t-34 -83t-85 -34q-49 0 -82.5 34t-33.5 83zM766 1667q0 49 34 84 t83 35q51 0 84.5 -35t33.5 -84t-33.5 -83t-84.5 -34q-49 0 -83 34t-34 83z" />
<glyph unicode="&#xdd;" horiz-adv-x="1110" d="M-10 1434h162l456 -723l371 723h151l-731 -1434h-151l289 569zM328 1591l467 234l49 -92l-467 -236z" />
<glyph unicode="&#xde;" horiz-adv-x="1183" d="M174 0v1434h139v-242h363q213 0 342 -137t129 -338q0 -199 -130 -336t-341 -137h-363v-244h-139zM313 369h355q154 0 248 101t94 247q0 147 -94.5 248.5t-247.5 101.5h-355v-698z" />
<glyph unicode="&#xdf;" horiz-adv-x="1157" d="M160 0v1028q0 190 115.5 313t316.5 123q203 0 315.5 -103.5t112.5 -275.5q0 -133 -81 -227t-212 -110q145 -14 236.5 -124t91.5 -253q0 -186 -126 -292t-323 -106q-104 0 -184 27v119q80 -25 174 -25q147 0 236.5 78t89.5 213q0 121 -87 210t-247 89h-117v121h102 q152 0 233 74.5t81 195.5t-78 196t-217 75q-143 0 -222 -90.5t-79 -227.5v-1028h-131z" />
<glyph unicode="&#xe0;" d="M82 465q0 213 128 353t341 140q127 0 223 -62t139 -167v205h134v-934h-134v201q-43 -100 -142 -163t-222 -63q-215 0 -341 138.5t-126 351.5zM215 465q0 -160 96 -264.5t254 -104.5q164 0 260.5 106.5t96.5 262.5q0 158 -96.5 265.5t-260.5 107.5q-158 0 -254 -105.5 t-96 -267.5zM262 1296l47 101l543 -250l-45 -105z" />
<glyph unicode="&#xe1;" d="M82 465q0 213 128 353t341 140q127 0 223 -62t139 -167v205h134v-934h-134v201q-43 -100 -142 -163t-222 -63q-215 0 -341 138.5t-126 351.5zM215 465q0 -160 96 -264.5t254 -104.5q164 0 260.5 106.5t96.5 262.5q0 158 -96.5 265.5t-260.5 107.5q-158 0 -254 -105.5 t-96 -267.5zM264 1149l543 250l47 -101l-545 -254z" />
<glyph unicode="&#xe2;" d="M82 465q0 213 128 353t341 140q127 0 223 -62t139 -167v205h134v-934h-134v201q-43 -100 -142 -163t-222 -63q-215 0 -341 138.5t-126 351.5zM215 465q0 -160 96 -264.5t254 -104.5q164 0 260.5 106.5t96.5 262.5q0 158 -96.5 265.5t-260.5 107.5q-158 0 -254 -105.5 t-96 -267.5zM223 1110l346 299l351 -299l-74 -80l-277 244l-272 -244z" />
<glyph unicode="&#xe3;" d="M82 465q0 213 128 353t341 140q127 0 223 -62t139 -167v205h134v-934h-134v201q-43 -100 -142 -163t-222 -63q-215 0 -341 138.5t-126 351.5zM215 465q0 -160 96 -264.5t254 -104.5q164 0 260.5 106.5t96.5 262.5q0 158 -96.5 265.5t-260.5 107.5q-158 0 -254 -105.5 t-96 -267.5zM219 1202q82 135 203 135q53 0 152.5 -58t142.5 -58q82 0 145 92l56 -70q-78 -135 -195 -135q-59 0 -155.5 59.5t-141.5 59.5q-86 0 -152 -97z" />
<glyph unicode="&#xe4;" d="M82 465q0 213 128 353t341 140q127 0 223 -62t139 -167v205h134v-934h-134v201q-43 -100 -142 -163t-222 -63q-215 0 -341 138.5t-126 351.5zM215 465q0 -160 96 -264.5t254 -104.5q164 0 260.5 106.5t96.5 262.5q0 158 -96.5 265.5t-260.5 107.5q-158 0 -254 -105.5 t-96 -267.5zM250 1237q0 49 33.5 84t83.5 35q51 0 84.5 -35t33.5 -84t-34.5 -83t-84 -34t-83 34t-33.5 83zM653 1237q0 49 34 84t83 35t84 -35t35 -84t-35 -83t-84 -34t-83 34t-34 83z" />
<glyph unicode="&#xe5;" d="M82 465q0 213 128 353t341 140q127 0 223 -62t139 -167v205h134v-934h-134v201q-43 -100 -142 -163t-222 -63q-215 0 -341 138.5t-126 351.5zM215 465q0 -160 96 -264.5t254 -104.5q164 0 260.5 106.5t96.5 262.5q0 158 -96.5 265.5t-260.5 107.5q-158 0 -254 -105.5 t-96 -267.5zM346 1237q0 96 64.5 158.5t159 62.5t159 -62.5t64.5 -158.5t-64.5 -158.5t-159 -62.5t-159 62.5t-64.5 158.5zM428 1237q0 -63 41 -104t100 -41q61 0 101.5 41t40.5 104q0 66 -40 106.5t-102 40.5q-59 0 -100 -40.5t-41 -106.5z" />
<glyph unicode="&#xe6;" horiz-adv-x="1800" d="M92 244q0 150 109 221q104 72 379 72h256v79q0 106 -73 169t-216 63q-129 0 -205 -58.5t-84 -164.5h-131q8 154 123 243.5t299 89.5q285 0 373 -184q127 182 362 182q190 0 312 -123t122 -311q0 -18 -4 -88h-756q2 -158 92.5 -250t241.5 -92q102 0 176 47t105 131h133 q-29 -133 -142.5 -215t-271.5 -82q-135 0 -240.5 62.5t-160.5 173.5q-121 -233 -432 -234q-164 0 -265.5 74t-101.5 195zM227 252q0 -168 265 -168q145 0 244.5 80t99.5 221v27q0 4 -1 11t-1 11h-312q-295 0 -295 -182zM958 539h629q0 139 -83 225t-220 86 q-143 0 -232.5 -85t-93.5 -226z" />
<glyph unicode="&#xe7;" horiz-adv-x="1056" d="M82 467q0 219 127 353t338 134q182 0 296.5 -91t131.5 -247h-133q-18 106 -95 163t-202 57q-152 0 -241 -99.5t-89 -269.5t89 -269.5t241 -99.5q125 0 201.5 54.5t95.5 158.5h133q-16 -145 -120.5 -235t-272.5 -99v-114q29 39 102 39q66 0 110 -45t44 -121 q0 -78 -47.5 -127t-133.5 -49q-72 0 -118.5 39t-51.5 104h78q4 -35 28.5 -55.5t63.5 -20.5q45 0 72 29t27 80q0 104 -97 104q-61 0 -90 -49h-67v189q-193 14 -306.5 148t-113.5 339z" />
<glyph unicode="&#xe8;" horiz-adv-x="1054" d="M82 469q0 221 125 355t330 134q195 0 315.5 -122t120.5 -312q0 -53 -4 -88h-754q0 -156 89 -249t239 -93q104 0 179 45t105 125h134q-27 -129 -143 -209t-273 -80q-211 0 -337 134.5t-126 359.5zM215 541h629q-2 139 -84 224t-225 85q-137 0 -223.5 -85t-96.5 -224z M231 1294l48 101l542 -250l-45 -105z" />
<glyph unicode="&#xe9;" horiz-adv-x="1054" d="M82 469q0 221 125 355t330 134q195 0 315.5 -122t120.5 -312q0 -53 -4 -88h-754q0 -156 89 -249t239 -93q104 0 179 45t105 125h134q-27 -129 -143 -209t-273 -80q-211 0 -337 134.5t-126 359.5zM215 541h629q-2 139 -84 224t-225 85q-137 0 -223.5 -85t-96.5 -224z M233 1147l543 250l47 -101l-544 -254z" />
<glyph unicode="&#xea;" horiz-adv-x="1054" d="M82 469q0 221 125 355t330 134q195 0 315.5 -122t120.5 -312q0 -53 -4 -88h-754q0 -156 89 -249t239 -93q104 0 179 45t105 125h134q-27 -129 -143 -209t-273 -80q-211 0 -337 134.5t-126 359.5zM193 1108l346 299l350 -299l-74 -80l-276 244l-273 -244zM215 541h629 q-2 139 -84 224t-225 85q-137 0 -223.5 -85t-96.5 -224z" />
<glyph unicode="&#xeb;" horiz-adv-x="1054" d="M82 469q0 221 125 355t330 134q195 0 315.5 -122t120.5 -312q0 -53 -4 -88h-754q0 -156 89 -249t239 -93q104 0 179 45t105 125h134q-27 -129 -143 -209t-273 -80q-211 0 -337 134.5t-126 359.5zM215 541h629q-2 139 -84 224t-225 85q-137 0 -223.5 -85t-96.5 -224z M219 1235q0 49 34 84t83 35q51 0 85 -35t34 -84t-35 -83t-84 -34t-83 34t-34 83zM623 1235q0 49 33.5 84t82.5 35t84 -35t35 -84t-35 -83t-84 -34t-82.5 34t-33.5 83z" />
<glyph unicode="&#xec;" horiz-adv-x="460" d="M47 1253l62 95l307 -189l-62 -94zM164 0v934h133v-934h-133z" />
<glyph unicode="&#xed;" horiz-adv-x="460" d="M47 1159l307 189l62 -95l-307 -188zM164 0v934h133v-934h-133z" />
<glyph unicode="&#xee;" horiz-adv-x="460" d="M0 1147l229 221l232 -221l-76 -78l-156 156l-153 -156zM164 0v934h133v-934h-133z" />
<glyph unicode="&#xef;" horiz-adv-x="460" d="M0 1233q0 45 29.5 75.5t72.5 30.5q45 0 76 -30.5t31 -75.5q0 -43 -31 -73t-76 -30q-43 0 -72.5 30t-29.5 73zM164 0v934h133v-934h-133zM256 1233q0 45 29.5 75.5t72.5 30.5q45 0 76 -30.5t31 -75.5q0 -43 -31 -73t-76 -30q-43 0 -72.5 30t-29.5 73z" />
<glyph unicode="&#xf0;" horiz-adv-x="1124" d="M82 467q0 209 132 350t349 141q51 0 107 -10l-127 191l-193 -105l-41 78l185 100l-150 222h166l104 -158l181 98l43 -74l-176 -96l284 -428q96 -131 96 -309q0 -209 -131 -350.5t-348 -141.5t-349 141.5t-132 350.5zM215 467q0 -158 95.5 -264.5t253 -106.5t252.5 106.5 t95 264.5q0 160 -94 265.5t-254 105.5t-254 -105.5t-94 -265.5z" />
<glyph unicode="&#xf1;" horiz-adv-x="1153" d="M164 0v934h133v-215q33 109 123 174t225 65q176 0 265 -101t89 -294v-563h-131v510q0 332 -266 332q-150 0 -227.5 -99.5t-77.5 -267.5v-475h-133zM223 1200q82 135 203 135q53 0 152.5 -58t142.5 -58q82 0 145 92l56 -70q-78 -135 -195 -135q-59 0 -155.5 59.5 t-141.5 59.5q-86 0 -151 -97z" />
<glyph unicode="&#xf2;" horiz-adv-x="1124" d="M82 467q0 209 132 350t349 141t348 -140t131 -351q0 -209 -131 -350.5t-348 -141.5t-349 141.5t-132 350.5zM215 467q0 -158 95.5 -264.5t253 -106.5t252.5 106.5t95 264.5q0 160 -94 265.5t-254 105.5t-254 -105.5t-94 -265.5zM256 1294l47 101l543 -250l-45 -105z" />
<glyph unicode="&#xf3;" horiz-adv-x="1124" d="M82 467q0 209 132 350t349 141t348 -140t131 -351q0 -209 -131 -350.5t-348 -141.5t-349 141.5t-132 350.5zM215 467q0 -158 95.5 -264.5t253 -106.5t252.5 106.5t95 264.5q0 160 -94 265.5t-254 105.5t-254 -105.5t-94 -265.5zM258 1147l543 250l47 -101l-545 -254z" />
<glyph unicode="&#xf4;" horiz-adv-x="1124" d="M82 467q0 209 132 350t349 141t348 -140t131 -351q0 -209 -131 -350.5t-348 -141.5t-349 141.5t-132 350.5zM215 467q0 -158 95.5 -264.5t253 -106.5t252.5 106.5t95 264.5q0 160 -94 265.5t-254 105.5t-254 -105.5t-94 -265.5zM217 1108l346 299l350 -299l-73 -80 l-277 244l-272 -244z" />
<glyph unicode="&#xf5;" horiz-adv-x="1124" d="M82 467q0 209 132 350t349 141t348 -140t131 -351q0 -209 -131 -350.5t-348 -141.5t-349 141.5t-132 350.5zM213 1200q82 135 203 135q53 0 152.5 -58t142.5 -58q82 0 145 92l55 -70q-77 -135 -194 -135q-59 0 -155.5 59.5t-141.5 59.5q-86 0 -152 -97zM215 467 q0 -158 95.5 -264.5t253 -106.5t252.5 106.5t95 264.5q0 160 -94 265.5t-254 105.5t-254 -105.5t-94 -265.5z" />
<glyph unicode="&#xf6;" horiz-adv-x="1124" d="M82 467q0 209 132 350t349 141t348 -140t131 -351q0 -209 -131 -350.5t-348 -141.5t-349 141.5t-132 350.5zM215 467q0 -158 95.5 -264.5t253 -106.5t252.5 106.5t95 264.5q0 160 -94 265.5t-254 105.5t-254 -105.5t-94 -265.5zM244 1235q0 49 33.5 84t82.5 35 q51 0 85 -35t34 -84t-34.5 -83t-84 -34t-83 34t-33.5 83zM647 1235q0 49 34 84t83 35t84 -35t35 -84t-35 -83t-84 -34t-83 34t-34 83z" />
<glyph unicode="&#xf7;" horiz-adv-x="1032" d="M113 580v120h807v-120h-807zM395 344q0 51 35 87t86 36t87 -36t36 -87t-36 -86t-87 -35t-86 35t-35 86zM395 944q0 51 35 87t86 36t87 -36t36 -87t-36 -86t-87 -35t-86 35t-35 86z" />
<glyph unicode="&#xf8;" horiz-adv-x="1124" d="M82 467q0 209 132 350t349 141q88 0 166 -24l47 108l82 -36l-47 -109q111 -63 171 -177t60 -253q0 -209 -131 -350.5t-348 -141.5q-76 0 -143 19l-58 -133l-79 37l55 129q-121 59 -188.5 177t-67.5 263zM215 467q0 -106 45 -193.5t127 -132.5l293 678q-53 18 -117 19 q-160 0 -254 -105.5t-94 -265.5zM469 109q43 -13 94 -13q158 0 253 106.5t95 264.5q0 213 -151 313z" />
<glyph unicode="&#xf9;" horiz-adv-x="1153" d="M154 371v563h133v-535q0 -307 266 -307q150 0 226.5 104.5t76.5 241.5v496h133v-934h-133v211q-35 -102 -124 -169t-214 -67q-166 0 -265 101.5t-99 294.5zM272 1294l47 101l543 -250l-45 -105z" />
<glyph unicode="&#xfa;" horiz-adv-x="1153" d="M154 371v563h133v-535q0 -307 266 -307q150 0 226.5 104.5t76.5 241.5v496h133v-934h-133v211q-35 -102 -124 -169t-214 -67q-166 0 -265 101.5t-99 294.5zM274 1147l543 250l47 -101l-545 -254z" />
<glyph unicode="&#xfb;" horiz-adv-x="1153" d="M154 371v563h133v-535q0 -307 266 -307q150 0 226.5 104.5t76.5 241.5v496h133v-934h-133v211q-35 -102 -124 -169t-214 -67q-166 0 -265 101.5t-99 294.5zM233 1108l347 299l350 -299l-74 -80l-276 244l-273 -244z" />
<glyph unicode="&#xfc;" horiz-adv-x="1153" d="M154 371v563h133v-535q0 -307 266 -307q150 0 226.5 104.5t76.5 241.5v496h133v-934h-133v211q-35 -102 -124 -169t-214 -67q-166 0 -265 101.5t-99 294.5zM260 1235q0 49 34 84t83 35q51 0 85 -35t34 -84t-35 -83t-84 -34t-83 34t-34 83zM664 1235q0 49 33.5 84t82.5 35 t84 -35t35 -84t-35 -83t-84 -34t-82.5 34t-33.5 83z" />
<glyph unicode="&#xfd;" horiz-adv-x="1161" d="M154 -131h133q10 -221 282 -221q297 0 297 329v230q-41 -102 -131 -166t-217 -64q-365 0 -364 414v543h131v-518q0 -156 62.5 -237t211.5 -81q147 0 227 106.5t80 252.5v477h131v-965q0 -227 -131 -340q-111 -94 -295 -94q-201 0 -313 94q-102 88 -104 240zM266 1147 l543 250l47 -101l-545 -254z" />
<glyph unicode="&#xfe;" d="M164 0v934h2v500h131v-705q45 106 145.5 167.5t227.5 61.5q201 0 329.5 -138t128.5 -355q0 -213 -131 -351.5t-333 -138.5q-123 0 -221.5 61.5t-145.5 164.5v-641h-131v440h-2zM289 465q0 -160 101 -264.5t257 -104.5q152 0 250 104.5t98 264.5q0 162 -98 267.5 t-250 105.5q-156 0 -257 -104.5t-101 -268.5z" />
<glyph unicode="&#xff;" horiz-adv-x="1161" d="M154 -131h133q10 -221 282 -221q297 0 297 329v230q-41 -102 -131 -166t-217 -64q-365 0 -364 414v543h131v-518q0 -156 62.5 -237t211.5 -81q147 0 227 106.5t80 252.5v477h131v-965q0 -227 -131 -340q-111 -94 -295 -94q-201 0 -313 94q-102 88 -104 240zM252 1235 q0 49 33.5 84t83.5 35q51 0 84.5 -35t33.5 -84t-34.5 -83t-84 -34t-83 34t-33.5 83zM655 1235q0 49 34 84t83 35t84 -35t35 -84t-35 -83t-84 -34t-83 34t-34 83z" />
<glyph unicode="&#x152;" horiz-adv-x="1771" d="M82 717q0 297 185.5 507t490.5 210h870v-125h-594v-533h594v-127h-594v-522h594v-127h-870q-305 0 -490.5 210t-185.5 507zM227 717q0 -246 143.5 -418t387.5 -172h139v1182h-139q-244 0 -387.5 -172t-143.5 -420z" />
<glyph unicode="&#x153;" horiz-adv-x="1884" d="M82 467q0 209 132 350t349 141q137 0 243.5 -59t166.5 -164q57 106 159.5 164.5t233.5 58.5q195 0 315.5 -122t120.5 -312q0 -53 -4 -88h-754q0 -156 89.5 -249t238.5 -93q104 0 179 45t106 125h133q-27 -129 -142.5 -209t-273.5 -80q-137 0 -240.5 58.5t-160.5 165.5 q-59 -102 -166 -163t-244 -61q-217 0 -349 141.5t-132 350.5zM215 467q0 -158 95.5 -264.5t253 -106.5t252.5 106.5t95 264.5q0 160 -94 265.5t-254 105.5t-254 -105.5t-94 -265.5zM1044 541h629q-2 139 -84 224t-225 85q-137 0 -223.5 -85t-96.5 -224z" />
<glyph unicode="&#x178;" horiz-adv-x="1110" d="M-10 1434h162l456 -723l371 723h151l-731 -1434h-151l289 569zM223 1667q0 49 34 84t83 35q51 0 85 -35t34 -84t-34 -83t-85 -34q-49 0 -83 34t-34 83zM702 1667q0 49 34 84t83 35q51 0 85 -35t34 -84t-34 -83t-85 -34q-49 0 -83 34t-34 83z" />
<glyph unicode="&#x2c6;" horiz-adv-x="1228" d="M57 1110l346 299l351 -299l-74 -80l-277 244l-272 -244z" />
<glyph unicode="&#x2dc;" horiz-adv-x="1228" d="M90 1202q82 135 203 135q53 0 152.5 -58t142.5 -58q82 0 145 92l55 -70q-77 -135 -194 -135q-59 0 -155.5 59.5t-141.5 59.5q-86 0 -152 -97z" />
<glyph unicode="&#x2000;" horiz-adv-x="920" />
<glyph unicode="&#x2001;" horiz-adv-x="1841" />
<glyph unicode="&#x2002;" horiz-adv-x="920" />
<glyph unicode="&#x2003;" horiz-adv-x="1841" />
<glyph unicode="&#x2004;" horiz-adv-x="613" />
<glyph unicode="&#x2005;" horiz-adv-x="460" />
<glyph unicode="&#x2006;" horiz-adv-x="306" />
<glyph unicode="&#x2007;" horiz-adv-x="306" />
<glyph unicode="&#x2008;" horiz-adv-x="230" />
<glyph unicode="&#x2009;" horiz-adv-x="368" />
<glyph unicode="&#x200a;" horiz-adv-x="102" />
<glyph unicode="&#x2010;" horiz-adv-x="843" d="M113 473v119h618v-119h-618z" />
<glyph unicode="&#x2011;" horiz-adv-x="843" d="M113 473v119h618v-119h-618z" />
<glyph unicode="&#x2012;" horiz-adv-x="843" d="M113 473v119h618v-119h-618z" />
<glyph unicode="&#x2013;" horiz-adv-x="1216" d="M113 487v111h991v-111h-991z" />
<glyph unicode="&#x2014;" horiz-adv-x="1595" d="M113 498v110h1370v-110h-1370z" />
<glyph unicode="&#x2018;" horiz-adv-x="550" d="M143 1266q0 111 59.5 178t162.5 67q41 0 57 -4v-69q-20 4 -53 4q-92 0 -117 -88q-16 -45 -8 -94q23 29 71 28q47 0 80 -31.5t33 -83t-34 -85t-87 -33.5q-66 0 -115 56t-49 155z" />
<glyph unicode="&#x2019;" horiz-adv-x="550" d="M123 1351.5q0 51.5 34 85t87 33.5q66 0 115 -56t49 -154q0 -111 -59.5 -178.5t-162.5 -67.5q-41 0 -57 4v69q20 -4 53 -4q92 0 117 88q16 45 8 95q-23 -29 -71 -29q-47 0 -80 31.5t-33 83z" />
<glyph unicode="&#x201a;" horiz-adv-x="550" d="M123 100.5q0 51.5 34 85t87 33.5q66 0 115 -56.5t49 -154.5q0 -111 -59.5 -178.5t-162.5 -67.5q-41 0 -57 5v69q20 -4 53 -4q92 0 117 88q16 45 8 94q-23 -29 -71 -28q-47 0 -80 31.5t-33 83z" />
<glyph unicode="&#x201c;" horiz-adv-x="894" d="M143 1266q0 111 59.5 178t162.5 67q41 0 57 -4v-69q-20 4 -53 4q-92 0 -117 -88q-16 -45 -8 -94q23 29 71 28q47 0 80 -31.5t33 -83t-34 -85t-87 -33.5q-66 0 -115 56t-49 155zM487 1266q0 111 59.5 178t162.5 67q41 0 57 -4v-69q-20 4 -53 4q-92 0 -117 -88 q-16 -45 -8 -94q23 29 71 28q47 0 80 -31.5t33 -83t-34 -85t-87 -33.5q-66 0 -115 56t-49 155z" />
<glyph unicode="&#x201d;" horiz-adv-x="894" d="M123 1351.5q0 51.5 34 85t87 33.5q66 0 115 -56t49 -154q0 -111 -59.5 -178.5t-162.5 -67.5q-41 0 -57 4v69q20 -4 53 -4q92 0 117 88q16 45 8 95q-23 -29 -71 -29q-47 0 -80 31.5t-33 83zM467 1351.5q0 51.5 34 85t87 33.5q66 0 115 -56t49 -154q0 -111 -59.5 -178.5 t-162.5 -67.5q-41 0 -57 4v69q20 -4 53 -4q92 0 117 88q16 45 8 95q-23 -29 -71 -29q-47 0 -80 31.5t-33 83z" />
<glyph unicode="&#x201e;" horiz-adv-x="894" d="M123 100.5q0 51.5 34 85t87 33.5q66 0 115 -56.5t49 -154.5q0 -111 -59.5 -178.5t-162.5 -67.5q-41 0 -57 5v69q20 -4 53 -4q92 0 117 88q16 45 8 94q-23 -29 -71 -28q-47 0 -80 31.5t-33 83zM467 100.5q0 51.5 34 85t87 33.5q66 0 115 -56.5t49 -154.5 q0 -111 -59.5 -178.5t-162.5 -67.5q-41 0 -57 5v69q20 -4 53 -4q92 0 117 88q16 45 8 94q-23 -29 -71 -28q-47 0 -80 31.5t-33 83z" />
<glyph unicode="&#x2022;" horiz-adv-x="743" d="M133 639q0 100 69.5 170t168.5 70q100 0 169.5 -70t69.5 -170q0 -98 -69.5 -168t-169.5 -70q-98 0 -168 70t-70 168z" />
<glyph unicode="&#x2026;" horiz-adv-x="1540" d="M164 106.5q0 53.5 37 89t88 35.5q53 0 90 -35.5t37 -89t-37 -90t-90 -36.5q-51 0 -88 36.5t-37 90zM643 106.5q0 53.5 37 89t88 35.5q53 0 90 -35.5t37 -89t-37 -90t-90 -36.5q-51 0 -88 36.5t-37 90zM1124 106.5q0 53.5 36 89t89.5 35.5t90 -35.5t36.5 -89t-37 -90 t-90 -36.5q-51 0 -88 36.5t-37 90z" />
<glyph unicode="&#x202f;" horiz-adv-x="368" />
<glyph unicode="&#x2039;" horiz-adv-x="548" d="M16 535l420 387l78 -80l-334 -307l334 -308l-78 -77z" />
<glyph unicode="&#x203a;" horiz-adv-x="548" d="M35 227l334 308l-334 307l78 80l419 -387l-419 -385z" />
<glyph unicode="&#x205f;" horiz-adv-x="460" />
<glyph unicode="&#x20ac;" horiz-adv-x="1206" d="M47 504l25 98h102q-2 31 -2 96q0 63 2 95h-123l27 98h104q61 526 475 526q190 0 304 -114.5t143 -301.5h-135q-23 135 -100.5 214t-211.5 79q-160 0 -238.5 -105.5t-101.5 -297.5h457l-26 -98h-439q-2 -31 -2 -95q0 -66 2 -96h459l-25 -98h-426q23 -193 101.5 -297.5 t238.5 -104.5q133 0 211 79t101 216h135q-29 -186 -142.5 -303t-304.5 -117q-414 0 -475 527h-135z" />
<glyph unicode="&#x2122;" horiz-adv-x="1695" d="M16 1339v95h531v-95h-215v-739h-103v739h-213zM707 600v834h159l248 -662l248 662h160v-834h-103v698l-260 -698h-92l-258 698v-698h-102z" />
<glyph unicode="&#x25fc;" horiz-adv-x="931" d="M0 0v932h932v-932h-932z" />
<glyph unicode="&#xfb03;" horiz-adv-x="1908" d="M47 819v115h205v186q0 100 27.5 169t73.5 100.5t88 44t89 12.5q84 0 138 -25v-114q-61 20 -107 20q-35 0 -61.5 -6t-55 -24.5t-44 -61.5t-15.5 -109v-192h283v-115h-283v-819h-133v819h-205zM797 819v115h204v186q0 100 28 169t74 100.5t88 44t89 12.5q84 0 137 -25v-114 q-61 20 -106 20q-35 0 -61.5 -6t-55.5 -24.5t-44 -61.5t-15 -109v-192h282v-115h-282v-819h-134v819h-204zM1556 1243q0 51 35 87t88.5 36t88 -36t34.5 -87q0 -53 -34.5 -88t-88 -35t-88.5 35t-35 88zM1612 0v934h133v-934h-133z" />
<glyph unicode="&#xfb04;" horiz-adv-x="1908" d="M47 819v115h205v186q0 100 27.5 169t73.5 100.5t88 44t89 12.5q84 0 138 -25v-114q-61 20 -107 20q-35 0 -61.5 -6t-55 -24.5t-44 -61.5t-15.5 -109v-192h283v-115h-283v-819h-133v819h-205zM797 819v115h204v186q0 100 28 169t74 100.5t88 44t89 12.5q84 0 137 -25v-114 q-61 20 -106 20q-35 0 -61.5 -6t-55.5 -24.5t-44 -61.5t-15 -109v-192h282v-115h-282v-819h-134v819h-204zM1612 0v1434h133v-1434h-133z" />
</font>
</defs>
</svg>
