<?xml version="1.0" standalone="no"?>
<!DOCTYPE svg PUBLIC "-//W3C//DTD SVG 1.1//EN" "http://www.w3.org/Graphics/SVG/1.1/DTD/svg11.dtd" >
<svg xmlns="http://www.w3.org/2000/svg" xmlns:xlink="http://www.w3.org/1999/xlink" version="1.1">
<metadata></metadata>
<defs>
<font id="gt_walsheim_prothin" horiz-adv-x="1208" >
<font-face units-per-em="2048" ascent="1434" descent="-614" />
<missing-glyph horiz-adv-x="528" />
<glyph unicode="&#xfb01;" horiz-adv-x="1112" d="M49 846v76h211v213q0 311 256 311q82 0 131 -27v-80q-53 27 -115 27q-39 0 -66.5 -7t-57 -28.5t-46 -70t-16.5 -119.5v-219h301v-76h-301v-846h-86v846h-211zM795 1235q0 43 28.5 71.5t71.5 28.5q45 0 73.5 -28.5t28.5 -71.5t-28.5 -72.5t-73.5 -29.5q-43 0 -71.5 29.5 t-28.5 72.5zM852 0v922h86v-922h-86z" />
<glyph unicode="&#xfb02;" horiz-adv-x="1112" d="M49 846v76h211v213q0 311 256 311q82 0 131 -27v-80q-53 27 -115 27q-39 0 -66.5 -7t-57 -28.5t-46 -70t-16.5 -119.5v-219h301v-76h-301v-846h-86v846h-211zM852 0v1434h86v-1434h-86z" />
<glyph horiz-adv-x="0" />
<glyph horiz-adv-x="682" />
<glyph unicode="&#xd;" horiz-adv-x="681" />
<glyph unicode=" "  horiz-adv-x="528" />
<glyph unicode="&#x09;" horiz-adv-x="528" />
<glyph unicode="&#xa0;" horiz-adv-x="528" />
<glyph unicode="!" horiz-adv-x="493" d="M143 92q0 43 30 73t73 30t72.5 -30t29.5 -73t-29.5 -72.5t-72.5 -29.5t-73 29.5t-30 72.5zM203 381v1053h86v-1053h-86z" />
<glyph unicode="&#x22;" horiz-adv-x="743" d="M133 1319q0 41 28.5 69.5t69.5 28.5t70 -28.5t29 -69.5q0 -20 -2 -35l-66 -354h-57l-68 354q-4 14 -4 35zM414 1319q0 41 28.5 69.5t69.5 28.5t69.5 -28.5t28.5 -69.5q0 -20 -2 -35l-65 -354h-58l-67 354q-4 14 -4 35z" />
<glyph unicode="#" horiz-adv-x="1120" d="M57 449v73h232l53 389h-223v74h233l62 449h75l-61 -449h358l62 449h76l-62 -449h203v-74h-213l-53 -389h205v-73h-216l-63 -449h-76l62 449h-357l-63 -449h-76l61 449h-219zM365 522h358l53 389h-358z" />
<glyph unicode="$" horiz-adv-x="1163" d="M92 422h90q0 -164 112 -266.5t308 -102.5q174 0 271.5 79t97.5 218q0 227 -254 285l-254 49q-324 68 -324 356q0 152 111.5 260.5t314.5 112.5v184h74v-186q182 -16 285.5 -122.5t107.5 -284.5h-88q-4 158 -100 243.5t-264 85.5q-170 0 -260.5 -84t-90.5 -207 q0 -229 279 -282l260 -53q133 -29 213 -117t80 -238q0 -170 -112.5 -270t-309.5 -111v-176h-74v176q-221 10 -347 133t-126 318z" />
<glyph unicode="%" horiz-adv-x="1533" d="M41 1067q0 145 95 246.5t255 101.5t255 -101.5t95 -246.5t-95 -246.5t-255 -101.5t-255 101.5t-95 246.5zM121 1067q0 -115 72.5 -195.5t197.5 -80.5t199 80.5t74 195.5t-74 195.5t-199 80.5t-197.5 -80.5t-72.5 -195.5zM246 20l966 1397l62 -35l-965 -1398zM793 338 q0 145 95 246.5t255 101.5t255 -101.5t95 -246.5t-95 -246.5t-255 -101.5t-255 101.5t-95 246.5zM872 338q0 -115 73 -196t198 -81t198.5 81t73.5 196t-73.5 195.5t-198.5 80.5t-198 -80.5t-73 -195.5z" />
<glyph unicode="&#x26;" d="M113 381q0 139 85 239.5t226 120.5q-135 27 -211 117t-76 219q0 170 121 274.5t328 104.5q193 0 313.5 -102.5t120.5 -276.5h-92q0 133 -93.5 216t-248.5 83q-164 0 -260.5 -82t-96.5 -217q0 -133 89.5 -214t248.5 -81h56v-84h-58q-168 0 -264 -87t-96 -230 q0 -141 101.5 -231.5t273.5 -90.5q186 0 278 114t96 304h-204v82h444v-82h-147q-4 -227 -122 -363.5t-345 -136.5q-211 0 -339 112t-128 292z" />
<glyph unicode="'" horiz-adv-x="462" d="M133 1319q0 41 28.5 69.5t69.5 28.5t70 -28.5t29 -69.5q0 -20 -2 -35l-66 -354h-57l-68 354q-4 14 -4 35z" />
<glyph unicode="(" horiz-adv-x="620" d="M150 555q0 557 432 942l55 -53q-401 -375 -401 -889t401 -889l-55 -55q-432 385 -432 944z" />
<glyph unicode=")" horiz-adv-x="620" d="M-16 -334q401 375 401 889t-401 889l55 53q432 -385 432 -942q0 -559 -432 -944z" />
<glyph unicode="*" horiz-adv-x="897" d="M72 1167l22 70l328 -119l-8 350h73l-10 -350l326 119l22 -70l-329 -100l213 -281l-62 -43l-196 291l-201 -291l-62 43l213 281z" />
<glyph unicode="+" horiz-adv-x="1032" d="M119 604v80h356v360h84v-360h356v-80h-356v-356h-84v356h-356z" />
<glyph unicode="," horiz-adv-x="589" d="M184 92q0 43 29 72t76 29q66 0 109.5 -57.5t43.5 -149.5q0 -102 -55 -164t-143 -62q-27 0 -49 7v57q14 -4 47 -4q49 0 80.5 29.5t35.5 78.5q8 45 -10 92q-20 -29 -65 -28q-41 0 -70 28.5t-29 71.5z" />
<glyph unicode="-" horiz-adv-x="845" d="M119 487v80h608v-80h-608z" />
<glyph unicode="." horiz-adv-x="573" d="M184 92q0 43 29 73t74 30q43 0 72.5 -30t29.5 -73t-29.5 -72.5t-72.5 -29.5q-45 0 -74 29.5t-29 72.5z" />
<glyph unicode="/" horiz-adv-x="847" d="M37 -84l702 1628l72 -31l-702 -1628z" />
<glyph unicode="0" horiz-adv-x="1239" d="M109 700q0 350 130 533.5t379.5 183.5t380.5 -183t131 -534q0 -352 -131 -536t-380.5 -184t-379.5 184t-130 536zM195 700q-1 -639 423 -639q426 0 426 639q0 635 -426 635q-424 0 -423 -635z" />
<glyph unicode="1" horiz-adv-x="702" d="M80 1075v80q170 0 227.5 50t57.5 188h84v-1393h-91v1075h-278z" />
<glyph unicode="2" horiz-adv-x="1122" d="M119 0q0 236 77.5 366t272.5 224l233 108q225 109 226 342q0 129 -89 210t-231 81q-168 0 -267 -102.5t-99 -276.5h-92q0 209 125.5 335t332.5 126q186 0 299 -100.5t113 -268.5q0 -279 -268 -409l-234 -111q-158 -76 -226.5 -176t-72.5 -264h813v-84h-913z" />
<glyph unicode="3" horiz-adv-x="1114" d="M94 387h92q0 -150 100.5 -238t270.5 -88q166 0 266.5 85t100.5 225q0 141 -97.5 225t-261.5 84h-114v80h112q156 0 246 76.5t90 210.5q0 129 -93 207.5t-245 78.5q-158 0 -254 -82t-96 -219h-88q0 172 118.5 276.5t317.5 104.5q195 0 312.5 -100.5t117.5 -263.5 q0 -133 -75.5 -219.5t-215.5 -110.5q131 -4 222.5 -105.5t91.5 -244.5q0 -174 -125 -281.5t-330 -107.5q-211 0 -337 110.5t-126 296.5z" />
<glyph unicode="4" horiz-adv-x="1148" d="M154 492v901h90v-818h489v453h88v-453h254v-83h-254v-494h-88v494h-579z" />
<glyph unicode="5" horiz-adv-x="1150" d="M141 340h90q8 -125 104.5 -201t258.5 -76q170 0 273.5 109t103.5 297q0 184 -94.5 286.5t-260.5 102.5q-143 0 -224 -50t-130 -161h-92v746h799v-82h-715v-563q100 188 371 188q201 0 317.5 -123t116.5 -342q0 -223 -128 -357t-337 -134q-199 0 -320.5 99t-132.5 261z " />
<glyph unicode="6" horiz-adv-x="1144" d="M100 463q0 180 99 309l403 621h107l-312 -473q80 28 172 28q211 0 340 -140t129 -345q0 -207 -129 -347.5t-340 -140.5t-340 140.5t-129 347.5zM186 463q0 -172 105.5 -289t277.5 -117t276.5 117t104.5 289q0 170 -104.5 286.5t-276.5 116.5t-277.5 -116.5t-105.5 -286.5 z" />
<glyph unicode="7" horiz-adv-x="993" d="M92 1309v84h901l-760 -1393h-100l723 1309h-764z" />
<glyph unicode="8" horiz-adv-x="1138" d="M102 369q0 137 81 231t220 117q-129 27 -204.5 116t-75.5 216q0 164 123 264t323.5 100t323.5 -100.5t123 -263.5q0 -127 -76 -216.5t-205 -115.5q137 -23 219 -117t82 -231q0 -176 -128 -282.5t-339 -106.5t-339 106.5t-128 282.5zM193 371q0 -139 103 -224.5t273 -85.5 t272.5 85t102.5 225q0 141 -102.5 225t-272.5 84t-273 -84t-103 -225zM215 1042q0 -129 96.5 -206.5t258 -77.5t258 77.5t96.5 206.5q0 131 -97.5 212t-257 81t-257 -80.5t-97.5 -212.5z" />
<glyph unicode="9" horiz-adv-x="1087" d="M49 930q0 207 129 347t340 140t340 -140t129 -347q0 -180 -98 -309l-404 -621h-106l311 473q-80 -29 -172 -29q-211 0 -340 140.5t-129 345.5zM137 930q0 -170 104.5 -287t276.5 -117t277.5 117t105.5 287q0 172 -105.5 288.5t-277.5 116.5t-276.5 -116.5t-104.5 -288.5z " />
<glyph unicode=":" horiz-adv-x="573" d="M184 92q0 43 29 73t74 30q43 0 72.5 -30t29.5 -73t-29.5 -72.5t-72.5 -29.5q-45 0 -74 29.5t-29 72.5zM184 838q0 43 29 72.5t74 29.5q43 0 72.5 -29.5t29.5 -72.5t-29.5 -73t-72.5 -30q-45 0 -74 30t-29 73z" />
<glyph unicode=";" horiz-adv-x="589" d="M184 92q0 43 29 72t76 29q66 0 109.5 -57.5t43.5 -149.5q0 -102 -55 -164t-143 -62q-27 0 -49 7v57q14 -4 47 -4q49 0 80.5 29.5t35.5 78.5q8 45 -10 92q-20 -29 -65 -28q-41 0 -70 28.5t-29 71.5zM184 836q0 43 29 72.5t74 29.5q43 0 72.5 -29.5t29.5 -72.5t-29.5 -73 t-72.5 -30q-45 0 -74 30t-29 73z" />
<glyph unicode="&#x3c;" horiz-adv-x="1030" d="M119 623v71l792 344v-88l-671 -291l671 -292v-86z" />
<glyph unicode="=" horiz-adv-x="1103" d="M119 420v80h868v-80h-868zM119 784v80h868v-80h-868z" />
<glyph unicode="&#x3e;" horiz-adv-x="1030" d="M119 281v86l672 292l-672 291v88l792 -344v-71z" />
<glyph unicode="?" horiz-adv-x="980" d="M33 1012q0 209 120.5 332.5t327.5 123.5q205 0 316.5 -104t111.5 -270q0 -215 -194 -355l-115 -77q-63 -43 -89 -93.5t-26 -144.5v-43h-88v49q0 106 33 171t109 116l120 80q158 109 158 295q0 129 -88 211.5t-250 82.5q-164 0 -260 -101t-96 -273h-90zM340 92 q0 43 28.5 73t71.5 30q45 0 75 -30t30 -73t-30 -72.5t-75 -29.5q-43 0 -71.5 29.5t-28.5 72.5z" />
<glyph unicode="@" horiz-adv-x="1841" d="M88 428q0 381 232.5 608.5t625.5 227.5q367 0 588 -218.5t221 -642.5q0 -139 -26.5 -245.5t-93 -176t-167.5 -69.5q-125 0 -180 75.5t-61 245.5q-39 -98 -132.5 -161.5t-222.5 -63.5q-184 0 -299.5 122t-115.5 296q0 176 116.5 300t298.5 124q129 0 221.5 -63.5 t133.5 -163.5v208h76v-587q0 -160 46 -212t126 -52q100 0 152 117.5t52 308.5q0 391 -198.5 589.5t-534.5 198.5q-360 0 -572 -209t-212 -559q0 -344 208 -551t566 -207q285 0 485 146l31 -64q-215 -153 -518 -153q-389 0 -617.5 227t-228.5 604zM532 428 q0 -145 96.5 -247.5t250 -102.5t251 102.5t97.5 247.5t-97.5 247.5t-251 102.5t-250 -102.5t-96.5 -247.5z" />
<glyph unicode="A" horiz-adv-x="1155" d="M47 0l490 1434h84l489 -1434h-96l-99 295h-675l-97 -295h-96zM268 379h621l-311 938z" />
<glyph unicode="B" horiz-adv-x="1181" d="M184 0v1434h457q190 0 304 -98.5t114 -270.5q0 -141 -72.5 -230t-195.5 -112q121 -20 199.5 -113.5t78.5 -232.5q0 -174 -114.5 -275.5t-307.5 -101.5h-463zM274 82h373q152 0 242 80t90 221q0 131 -84 214t-209 83h-412v-598zM274 762h404q125 0 208 81t83 214 q0 139 -89 217t-241 78h-365v-590z" />
<glyph unicode="C" horiz-adv-x="1585" d="M88 717q0 315 200.5 530t532.5 215q270 0 441.5 -126t228.5 -335h-96q-57 174 -199.5 275.5t-372.5 101.5q-293 0 -468 -190.5t-175 -471t175 -471t468 -190.5q229 0 371.5 101.5t200.5 275.5h96q-57 -209 -228.5 -335t-441.5 -126q-332 0 -532.5 216t-200.5 530z" />
<glyph unicode="D" horiz-adv-x="1400" d="M184 0v1434h402q227 0 399 -104.5t255 -265.5t83 -347.5t-83 -347t-255 -265t-399 -104.5h-402zM274 84h306q203 0 355 93t225 234.5t73 305.5q0 166 -73 307t-225.5 233.5t-354.5 92.5h-306v-1266z" />
<glyph unicode="E" horiz-adv-x="1122" d="M184 0v1434h789v-84h-699v-596h699v-82h-699v-588h699v-84h-789z" />
<glyph unicode="F" horiz-adv-x="1099" d="M184 0v1434h789v-84h-699v-641h699v-84h-699v-625h-90z" />
<glyph unicode="G" horiz-adv-x="1679" d="M88 715q0 326 193.5 536.5t527.5 210.5q229 0 394 -109.5t212 -289.5h-96q-47 143 -184.5 229t-325.5 86q-295 0 -462 -185t-167 -478q0 -283 170 -471.5t469 -188.5q248 0 388.5 136.5t172.5 375.5h-489v82h739v-82h-157q-33 -274 -200 -435t-454 -161q-340 0 -537 212 q-194 210 -194 526v6z" />
<glyph unicode="H" horiz-adv-x="1361" d="M184 0v1434h90v-680h816v680h88v-1434h-88v672h-816v-672h-90z" />
<glyph unicode="I" horiz-adv-x="458" d="M184 0v1434h90v-1434h-90z" />
<glyph unicode="J" horiz-adv-x="1099" d="M57 432h88q0 -180 106.5 -278.5t268.5 -98.5q158 0 255 103.5t97 287.5v988h89v-988q0 -221 -121 -348t-320 -127q-203 0 -333 121t-130 340z" />
<glyph unicode="K" horiz-adv-x="1175" d="M184 0v1434h90v-703l736 703h123l-764 -715l764 -719h-125l-734 702v-702h-90z" />
<glyph unicode="L" horiz-adv-x="1044" d="M184 0v1434h90v-1348h680v-86h-770z" />
<glyph unicode="M" horiz-adv-x="1665" d="M184 0v1434h88l559 -1313l560 1313h90v-1434h-88v1241l-523 -1241h-75l-523 1243v-1243h-88z" />
<glyph unicode="N" horiz-adv-x="1355" d="M184 0v1434h99l800 -1289v1289h88v-1434h-98l-801 1288v-1288h-88z" />
<glyph unicode="O" horiz-adv-x="1644" d="M88 717q0 307 202 526t533.5 219t533.5 -219t202 -526t-202 -526.5t-533.5 -219.5t-533.5 219.5t-202 526.5zM180 716.5q0 -272.5 176 -467t467 -194.5q291 1 467 195q174 192 174 461v6v6q0 269 -174 461q-176 194 -467 194t-467 -194.5t-176 -467z" />
<glyph unicode="P" horiz-adv-x="1175" d="M184 0v1434h486q201 0 332 -137.5t131 -344.5q0 -209 -131.5 -345t-331.5 -136h-396v-471h-90zM274 553h392q162 0 269 113.5t107 285.5q0 174 -106.5 286t-269.5 112h-392v-797z" />
<glyph unicode="Q" horiz-adv-x="1644" d="M88 717q0 307 202 526t533.5 219t533.5 -219t202 -526q0 -279 -170 -490t-455 -250l180 -231l-78 -39l-205 264h-8q-332 0 -533.5 219.5t-201.5 526.5zM180 716.5q0 -272.5 176 -467t467 -194.5t467 195q174 192 174 461v6v6q0 268 -174 461q-176 194 -467 194 t-467 -194.5t-176 -467z" />
<glyph unicode="R" horiz-adv-x="1234" d="M184 0v1434h486q201 0 332 -137.5t131 -344.5q0 -170 -91.5 -296t-240.5 -167l315 -489h-106l-303 473q-12 -2 -37 -2h-396v-471h-90zM274 553h392q162 0 269 113.5t107 285.5q0 174 -106.5 286t-269.5 112h-392v-797z" />
<glyph unicode="S" horiz-adv-x="1159" d="M92 432h90q0 -172 114 -275.5t302 -103.5q174 0 271.5 82t97.5 227q0 233 -267 297l-245 64q-317 70 -318 369q0 166 121 268t317 102q207 0 328 -111.5t121 -308.5h-90q0 160 -96.5 250t-264.5 90q-156 0 -251 -79.5t-95 -208.5q0 -236 281 -299l246 -62 q147 -35 225 -129t78 -242q0 -180 -122 -285.5t-335 -105.5q-233 0 -370.5 125t-137.5 336z" />
<glyph unicode="T" horiz-adv-x="1024" d="M18 1348v86h988v-86h-451v-1348h-88v1348h-449z" />
<glyph unicode="U" horiz-adv-x="1280" d="M139 463v971h88v-967q0 -199 111 -305.5t303 -106.5q190 0 301 106.5t111 305.5v967h90v-971q0 -233 -135.5 -362.5t-366.5 -129.5t-366.5 128t-135.5 364z" />
<glyph unicode="V" horiz-adv-x="1120" d="M8 1434h96l457 -1301l455 1301h96l-506 -1434h-90z" />
<glyph unicode="W" horiz-adv-x="1900" d="M16 1434h95l424 -1295l378 1295h76l377 -1295l426 1295h94l-481 -1434h-74l-381 1286l-379 -1286h-75z" />
<glyph unicode="X" horiz-adv-x="1187" d="M61 0l482 717l-482 717h103l430 -643l430 643h102l-481 -717l481 -717h-102l-430 641l-430 -641h-103z" />
<glyph unicode="Y" horiz-adv-x="1091" d="M0 1434h104l496 -779l404 779h98l-742 -1434h-100l293 563z" />
<glyph unicode="Z" horiz-adv-x="1140" d="M57 0l832 1350h-778v84h933l-829 -1350h854v-84h-1012z" />
<glyph unicode="[" horiz-adv-x="575" d="M184 -395v1896h383v-76h-301v-1747h301v-73h-383z" />
<glyph unicode="\" horiz-adv-x="847" d="M37 1513l72 31l702 -1628l-72 -31z" />
<glyph unicode="]" horiz-adv-x="575" d="M8 -322h301v1747h-301v76h383v-1896h-383v73z" />
<glyph unicode="^" horiz-adv-x="1071" d="M102 621l396 829h69l402 -829h-99l-335 722l-336 -722h-97z" />
<glyph unicode="_" horiz-adv-x="1034" d="M0 -377h1034v-69h-1034v69z" />
<glyph unicode="`" horiz-adv-x="1228" d="M10 1319l33 70l526 -265l-32 -71z" />
<glyph unicode="a" d="M88 459q0 211 128 349t337 138q141 0 245.5 -71.5t149.5 -192.5v240h86v-922h-86v238q-45 -119 -151.5 -191t-245.5 -72q-211 0 -337 137.5t-126 346.5zM174 459q0 -174 105.5 -289t279.5 -115q176 0 284.5 118t108.5 286q0 172 -107.5 289.5t-285.5 117.5 q-174 0 -279.5 -114.5t-105.5 -292.5z" />
<glyph unicode="b" d="M174 0v1434h86v-752q47 125 155 194.5t247 69.5q201 0 329.5 -137t128.5 -350q0 -209 -131 -346.5t-332 -137.5q-137 0 -243.5 71t-153.5 192v-238h-86zM256 459q0 -174 111.5 -289t281.5 -115q168 0 276.5 115t108.5 289q0 176 -108.5 291.5t-276.5 115.5 q-172 0 -282.5 -115.5t-110.5 -291.5z" />
<glyph unicode="c" horiz-adv-x="1050" d="M88 461q0 215 125 348t332 133q176 0 287.5 -88t130.5 -236h-89q-20 117 -108 180.5t-221 63.5q-170 0 -270.5 -110.5t-100.5 -290.5q0 -182 100.5 -292t270.5 -110q135 0 222 62.5t107 179.5h89q-18 -147 -130 -235.5t-288 -88.5q-207 0 -332 134.5t-125 349.5z" />
<glyph unicode="d" d="M88 459q0 211 128 349t337 138q141 0 245.5 -71.5t149.5 -192.5v752h86v-1434h-86v238q-45 -119 -151.5 -191t-245.5 -72q-211 0 -337 137.5t-126 346.5zM174 459q0 -174 105.5 -289t279.5 -115q176 0 284.5 118t108.5 286q0 172 -107.5 289.5t-285.5 117.5 q-174 0 -279.5 -114.5t-105.5 -292.5z" />
<glyph unicode="e" horiz-adv-x="1042" d="M88 463q0 219 121 351t319 132q190 0 309 -118.5t119 -303.5q0 -24 -4 -73h-776v-5q0 -176 98.5 -283.5t260.5 -107.5q117 0 202.5 54.5t118.5 146.5h86q-29 -125 -141.5 -203t-263.5 -78q-203 0 -326 133.5t-123 354.5zM178 524h692q0 154 -93 251t-249 97 q-150 0 -245 -95t-105 -253z" />
<glyph unicode="f" horiz-adv-x="677" d="M49 846v76h211v213q0 311 256 311q82 0 131 -27v-80q-54 27 -115 27q-39 0 -66.5 -7t-57 -28.5t-46 -70t-16.5 -119.5v-219h301v-76h-301v-846h-86v846h-211z" />
<glyph unicode="g" d="M88 459q0 209 131 348t334 139q139 0 243.5 -69.5t151.5 -194.5v240h86v-932q0 -242 -151 -365q-119 -96 -318 -96q-211 0 -334 100q-117 94 -116 230h88q4 -106 99 -179t263 -73q184 0 283.5 98t99.5 281v252q-47 -123 -153.5 -193t-243.5 -70q-203 0 -333 138.5 t-130 345.5zM174 459q0 -174 108.5 -289t276.5 -115q172 0 282.5 116t110.5 288q0 174 -110.5 290.5t-282.5 116.5q-168 0 -276.5 -115.5t-108.5 -291.5z" />
<glyph unicode="h" horiz-adv-x="1157" d="M182 0v1434h86v-766q29 125 123 201.5t246 76.5q178 0 268 -103.5t90 -299.5v-543h-88v516q0 352 -295 352q-168 0 -256 -114.5t-88 -302.5v-451h-86z" />
<glyph unicode="i" horiz-adv-x="434" d="M117 1235q0 43 28.5 71.5t71.5 28.5q45 0 73.5 -28.5t28.5 -71.5t-28.5 -72.5t-73.5 -29.5q-43 0 -71.5 29.5t-28.5 72.5zM174 0v922h86v-922h-86z" />
<glyph unicode="j" horiz-adv-x="440" d="M-80 -348q53 -27 118.5 -27t103.5 49.5t38 137.5v1110h86v-1127q0 -119 -57.5 -186.5t-157.5 -67.5q-80 0 -131 27v84zM123 1235q0 43 28.5 71.5t71.5 28.5q45 0 74 -28.5t29 -71.5t-29 -72.5t-74 -29.5q-43 0 -71.5 29.5t-28.5 72.5z" />
<glyph unicode="k" horiz-adv-x="980" d="M174 0v1434h86v-961l537 449h118l-548 -453l548 -469h-120l-535 457v-457h-86z" />
<glyph unicode="l" horiz-adv-x="434" d="M174 0v1434h86v-1434h-86z" />
<glyph unicode="m" horiz-adv-x="1701" d="M174 0v922h86v-248q23 113 100.5 192.5t214.5 79.5q119 0 203 -65.5t105 -200.5q27 115 114.5 190.5t212.5 75.5q150 0 239 -87t89 -275v-584h-84v565q0 158 -71.5 230.5t-190.5 72.5q-139 0 -216 -112.5t-77 -292.5v-463h-86v524q0 344 -262 344q-145 0 -218 -116.5 t-73 -288.5v-463h-86z" />
<glyph unicode="n" horiz-adv-x="1150" d="M174 0v922h86v-254q29 125 123 201.5t246 76.5q178 0 268 -103.5t90 -299.5v-543h-88v516q0 352 -295 352q-168 0 -256 -114.5t-88 -302.5v-451h-86z" />
<glyph unicode="o" horiz-adv-x="1112" d="M88 463q0 205 129 345t338 140q211 0 340 -140t129 -345q0 -207 -129 -347.5t-340 -140.5q-209 0 -338 140.5t-129 347.5zM174 461q0 -170 104.5 -287t276.5 -117t277.5 117t105.5 289q0 170 -105.5 286.5t-277.5 116.5t-276.5 -116.5t-104.5 -288.5z" />
<glyph unicode="p" d="M172 55h2v867h86v-240q47 125 155 194.5t247 69.5q201 0 329.5 -137t128.5 -350q0 -209 -131 -346.5t-332 -137.5q-137 0 -243.5 71t-153.5 192v-684h-88v501zM256 459q0 -174 111.5 -289t281.5 -115q168 0 276.5 115t108.5 289q0 176 -108.5 291.5t-276.5 115.5 q-172 0 -282.5 -115.5t-110.5 -291.5z" />
<glyph unicode="q" d="M88 459q0 211 128 349t337 138q141 0 245.5 -71.5t149.5 -192.5v240h86v-1368h-88v501h2v183q-45 -119 -151.5 -191t-245.5 -72q-211 0 -337 137.5t-126 346.5zM174 459q0 -174 105.5 -289t279.5 -115q176 0 284.5 118t108.5 286q0 172 -107.5 289.5t-285.5 117.5 q-174 0 -279.5 -114.5t-105.5 -292.5z" />
<glyph unicode="r" horiz-adv-x="716" d="M174 0v922h86v-277q33 150 121 224.5t205 74.5q41 0 82 -8v-82q-27 6 -88 6q-86 0 -152 -44t-100.5 -115.5t-51 -148.5t-16.5 -157v-395h-86z" />
<glyph unicode="s" horiz-adv-x="890" d="M88 264h86q0 -90 74 -151.5t209 -61.5q113 0 180.5 48t67.5 134q0 59 -33 106.5t-97 61.5l-268 66q-194 49 -194 229q0 115 92 182.5t237 67.5q156 0 245 -69.5t89 -190.5h-86q-2 86 -69.5 137t-186.5 51q-102 0 -168.5 -45t-66.5 -131q0 -123 153 -159l252 -64 q98 -25 143.5 -89t45.5 -144q0 -125 -91 -196t-245 -71q-172 0 -270.5 84t-98.5 205z" />
<glyph unicode="t" horiz-adv-x="688" d="M43 846v76h190v321h84v-321h279v-76h-279v-539q0 -143 46.5 -190t132.5 -47q82 0 131 14v-80q-53 -16 -144 -16q-53 0 -91 10t-78 39t-60.5 94.5t-20.5 163.5v551h-190z" />
<glyph unicode="u" horiz-adv-x="1153" d="M164 377v545h86v-527q0 -156 74.5 -248t228.5 -92q166 0 253 122t87 274v471h86v-922h-86v250q-33 -117 -129.5 -196t-231.5 -79q-170 0 -269 102.5t-99 299.5z" />
<glyph unicode="v" horiz-adv-x="950" d="M16 922h93l366 -807l365 807h94l-422 -922h-76z" />
<glyph unicode="w" horiz-adv-x="1447" d="M27 922h92l284 -803l275 803h92l272 -803l287 803h94l-342 -922h-77l-281 813l-279 -813h-77z" />
<glyph unicode="x" horiz-adv-x="927" d="M51 0l361 461l-359 461h105l305 -396l305 396h106l-360 -461l363 -461h-107l-307 397l-307 -397h-105z" />
<glyph unicode="y" horiz-adv-x="1163" d="M164 -141h88q2 -109 80 -180.5t241 -71.5q328 0 328 352v285q-39 -115 -133 -191t-233 -76q-371 0 -371 422v523h86v-508q0 -176 68.5 -265.5t238.5 -89.5q164 0 254 121t90 273v469h88v-967q0 -233 -135 -340q-104 -86 -281 -86q-195 0 -305 94q-104 88 -104 236z" />
<glyph unicode="z" horiz-adv-x="886" d="M57 0l627 844h-594v78h750l-629 -844h627v-78h-781z" />
<glyph unicode="{" horiz-adv-x="624" d="M57 514v78q61 0 125 52t64 144v431q0 135 80 209.5t184 74.5h96v-76h-88q-86 0 -139 -58t-53 -163v-426q0 -94 -51.5 -149.5t-118.5 -77.5q68 -20 119 -76.5t51 -150.5v-426q0 -104 53 -163t139 -59h88v-75h-96q-104 0 -184 74.5t-80 209.5v432q0 92 -63.5 143.5 t-125.5 51.5z" />
<glyph unicode="|" horiz-adv-x="442" d="M184 -395v1896h74v-1896h-74z" />
<glyph unicode="}" horiz-adv-x="624" d="M18 -322h88q86 0 139.5 58.5t53.5 163.5v426q0 94 51 150t119 77q-68 23 -119 78t-51 149v426q0 104 -53 162.5t-140 58.5h-88v76h97q104 0 184 -74.5t80 -209.5v-431q0 -92 63.5 -144t124.5 -52v-78q-61 0 -124.5 -51t-63.5 -144v-432q0 -135 -80 -209.5t-184 -74.5h-97 v75z" />
<glyph unicode="~" horiz-adv-x="1095" d="M102 524v90q86 92 203 93q84 0 242 -66q14 -6 47 -19.5t50.5 -20.5t43 -16.5t45 -13.5t35.5 -4q111 0 225 111v-86q-104 -105 -225 -105q-66 0 -233 76q-143 63 -232 64q-109 0 -201 -103z" />
<glyph unicode="&#xa1;" horiz-adv-x="493" d="M143 897q0 43 30 72.5t73 29.5t72.5 -29.5t29.5 -72.5t-29.5 -72.5t-72.5 -29.5t-73 29.5t-30 72.5zM203 -444v1052h86v-1052h-86z" />
<glyph unicode="&#xa2;" horiz-adv-x="1050" d="M88 698.5q0 204.5 113.5 335.5t304.5 144v215h74v-213q162 -8 264 -95.5t119 -228.5h-89q-20 117 -108 180.5t-221 63.5q-170 0 -270.5 -110.5t-100.5 -291.5q0 -182 100.5 -291.5t270.5 -109.5q135 0 222 62.5t107 179.5h89q-16 -141 -119 -228.5t-264 -95.5v-215h-74 v217q-190 12 -304 144.5t-114 337z" />
<glyph unicode="&#xa3;" horiz-adv-x="1052" d="M80 733v72h147v172q0 215 107.5 327.5t302.5 112.5q184 0 289.5 -103.5t105.5 -275.5h-88q0 137 -81 219t-226 82q-168 0 -244 -96t-76 -289v-149h414v-72h-414v-270q0 -244 -131 -379h781v-84h-883v70q72 70 107.5 153.5t35.5 227.5v282h-147z" />
<glyph unicode="&#xa4;" horiz-adv-x="1181" d="M82 311l151 152q-102 125 -102 295q0 168 102 297l-151 151l57 58l152 -152q125 109 301 109t303 -107l147 150l58 -58l-150 -147q106 -125 106.5 -301t-106.5 -299l148 -148l-56 -57l-147 147q-129 -104 -303 -104q-180 0 -301 109l-152 -152zM217 758 q0 -158 104.5 -268.5t270.5 -110.5q170 0 274.5 110.5t104.5 268.5q0 160 -104.5 270.5t-274.5 110.5q-166 0 -270.5 -110.5t-104.5 -270.5z" />
<glyph unicode="&#xa5;" horiz-adv-x="1079" d="M41 1393h102l398 -766l395 766h102l-446 -840h340v-66h-346v-213h346v-69h-346v-205h-92v205h-347v69h347v213h-347v66h340z" />
<glyph unicode="&#xa6;" horiz-adv-x="442" d="M184 -395v882h74v-882h-74zM184 657v844h74v-844h-74z" />
<glyph unicode="&#xa7;" horiz-adv-x="1085" d="M106 522q0 207 234 291q-219 106 -219 317q0 162 114.5 250t305.5 88q213 0 324.5 -100t111.5 -262h-98q0 129 -84 206t-252 77q-150 0 -237 -64.5t-87 -189.5q0 -115 78 -186.5t189.5 -106.5t224 -70t190.5 -106.5t78 -186.5q0 -205 -227 -297q213 -104 213 -315 q0 -160 -114 -246t-308 -86q-211 0 -322.5 98.5t-111.5 257.5h92q0 -127 86 -201.5t258 -74.5q147 0 234 63.5t87 186.5q0 98 -56 164.5t-140 97.5t-183.5 64.5t-183.5 65.5t-140.5 99.5t-56.5 165.5zM195 528q0 -47 20.5 -86t50 -63.5t81.5 -48t94 -37.5t108.5 -35.5 t107.5 -36.5q106 35 169 100.5t63 151.5q0 47 -20.5 85t-48 61.5t-80 48t-92.5 38t-106.5 34t-105.5 34.5q-119 -33 -180 -97.5t-61 -148.5z" />
<glyph unicode="&#xa8;" horiz-adv-x="1228" d="M160 1231q0 43 27.5 71.5t68.5 28.5q45 0 72.5 -28.5t27.5 -71.5q0 -41 -28.5 -68.5t-71.5 -27.5q-41 0 -68.5 27.5t-27.5 68.5zM557 1231q0 43 27.5 71.5t68.5 28.5q43 0 72 -28.5t29 -71.5q0 -41 -29 -68.5t-72 -27.5q-41 0 -68.5 27.5t-27.5 68.5z" />
<glyph unicode="&#xa9;" horiz-adv-x="1642" d="M88 716.5q0 321.5 199.5 536.5t533.5 215t533.5 -215t199.5 -536.5t-199.5 -536.5t-533.5 -215t-533.5 215t-199.5 536.5zM164 717q0 -289 180 -485.5t477 -196.5t477.5 196.5t180.5 485.5t-180.5 485.5t-477.5 196.5t-477 -196.5t-180 -485.5zM391 716.5 q0 184.5 117 312.5t317 128q158 0 255.5 -75.5t121.5 -198.5h-69q-23 94 -103 152.5t-205 58.5q-170 0 -268 -110t-98 -267.5t98 -266t268 -108.5q123 0 204 57.5t104 147.5h69q-25 -121 -122 -194.5t-255 -73.5q-201 0 -317.5 126.5t-116.5 311z" />
<glyph unicode="&#xaa;" horiz-adv-x="743" d="M53 1085.5q0 118.5 79 200.5t202 82q86 0 147.5 -40t87.5 -107v133h74v-533h-74v129q-27 -66 -89 -104.5t-146 -38.5q-125 0 -203 80t-78 198.5zM127 1085q0 -88 62.5 -151.5t158.5 -63.5q100 0 162.5 63.5t62.5 151.5q0 92 -62 156t-163 64q-98 0 -159.5 -63.5 t-61.5 -156.5z" />
<glyph unicode="&#xab;" horiz-adv-x="950" d="M18 535l416 378l55 -53l-356 -325l356 -324l-55 -55zM436 535l416 378l55 -53l-356 -325l356 -324l-55 -55z" />
<glyph unicode="&#xac;" horiz-adv-x="1032" d="M119 735v80h796v-371h-88v291h-708z" />
<glyph unicode="&#xad;" horiz-adv-x="845" d="M119 487v80h608v-80h-608z" />
<glyph unicode="&#xae;" horiz-adv-x="1183" d="M90 952q0 221 137.5 368.5t366.5 147.5t366.5 -147t137.5 -369q0 -223 -137.5 -370.5t-366.5 -147.5t-366.5 147.5t-137.5 370.5zM141 952.5q0 -198.5 124 -334t329 -135.5t329 135.5t124 334t-124 333.5t-329 135t-329 -135t-124 -333.5zM420 672v577h201q82 0 134 -54 t52 -134q0 -63 -39 -112.5t-102 -63.5l137 -213h-55l-136 207h-145v-207h-47zM469 924h149q61 0 100.5 40t39.5 97q0 59 -39 101t-101 42h-149v-280z" />
<glyph unicode="&#xaf;" horiz-adv-x="1228" d="M174 1135v73h649v-73h-649z" />
<glyph unicode="&#xb0;" horiz-adv-x="743" d="M72 1116q0 129 86 215t215 86t214 -86t85 -215q0 -127 -85 -213t-214 -86t-215 86t-86 213zM145 1116q0 -96 63.5 -161.5t164 -65.5t163 65.5t62.5 161.5t-62.5 161.5t-163 65.5t-164 -65.5t-63.5 -161.5z" />
<glyph unicode="&#xb1;" horiz-adv-x="1032" d="M119 338v80h796v-80h-796zM119 795v82h354v256h86v-256h356v-82h-356v-254h-86v254h-354z" />
<glyph unicode="&#xb2;" horiz-adv-x="751" d="M88 819q0 139 48 217t167 133l139 64q129 57 129 186q0 70 -49 113t-127 43q-96 0 -151.5 -55.5t-55.5 -149.5h-79q0 123 78.5 196.5t205.5 73.5q119 0 189.5 -59t70.5 -158q0 -164 -164 -239l-139 -64q-88 -41 -128 -94t-42 -139h475v-68h-567z" />
<glyph unicode="&#xb3;" horiz-adv-x="770" d="M96 1049h80q0 -82 56.5 -130.5t152.5 -48.5q92 0 147.5 46.5t55.5 121.5q0 78 -53.5 123t-147.5 45h-72v62h72q88 0 139.5 42t51.5 113q0 70 -53.5 113t-137.5 43q-88 0 -142.5 -45t-54.5 -119h-77q0 100 74.5 162.5t201.5 62.5q121 0 193.5 -58t72.5 -157 q0 -158 -176 -188q80 -4 134.5 -62.5t54.5 -140.5q0 -102 -78 -164.5t-207 -62.5q-131 0 -209 65.5t-78 176.5z" />
<glyph unicode="&#xb4;" horiz-adv-x="1228" d="M41 1124l526 265l33 -70l-526 -266z" />
<glyph unicode="&#xb5;" horiz-adv-x="1163" d="M174 -446v1368h86v-527q0 -156 75 -248t228 -92q166 0 253 122t87 274v471h86v-922h-86v250q-33 -117 -129 -196t-231 -79q-184 0 -283 119v-540h-86z" />
<glyph unicode="&#xb6;" horiz-adv-x="1316" d="M102 1065q0 102 37 179t90.5 119t128 66.5t133 31.5t121.5 7h602v-75h-108v-1696h-84v1694h-393v-1694h-84v977q-199 0 -321 99t-122 292z" />
<glyph unicode="&#xb7;" horiz-adv-x="573" d="M184 639q0 43 30 73.5t73 30.5t72.5 -30.5t29.5 -73.5t-29.5 -71.5t-72.5 -28.5q-45 0 -74 28.5t-29 71.5z" />
<glyph unicode="&#xb8;" horiz-adv-x="1228" d="M125 -301h59q4 -37 31 -60.5t72 -23.5q53 0 82.5 30.5t29.5 88.5q0 53 -27.5 86t-80.5 33q-70 0 -103 -58h-51v205h60v-143q29 47 110 47q68 0 112 -47t44 -121q0 -78 -48 -127t-130 -49q-68 0 -112 39t-48 100z" />
<glyph unicode="&#xb9;" horiz-adv-x="526" d="M78 1427v60q111 0 150.5 30.5t39.5 108.5h68v-807h-74v608h-184z" />
<glyph unicode="&#xba;" horiz-adv-x="694" d="M55 1087.5q0 118.5 80 199.5t211 81q133 0 213 -80t80 -200.5t-80 -200.5t-213 -80q-131 0 -211 81t-80 199.5zM127 1087q0 -90 60.5 -152.5t158.5 -62.5t158.5 62.5t60.5 152.5q0 92 -60.5 155t-158.5 63t-158.5 -62.5t-60.5 -155.5z" />
<glyph unicode="&#xbb;" horiz-adv-x="950" d="M43 211l356 324l-356 325l55 53l416 -378l-416 -379zM461 211l356 324l-356 325l55 53l416 -378l-416 -379z" />
<glyph unicode="&#xbc;" horiz-adv-x="1552" d="M78 1194v59q111 0 150.5 31t39.5 109h68v-807h-74v608h-184zM135 20l969 1397l61 -39l-966 -1396zM907 276v531h76v-463h274v254h78v-254h146v-68h-146v-278h-78v278h-350z" />
<glyph unicode="&#xbd;" horiz-adv-x="1507" d="M78 1194v59q111 0 150.5 31t39.5 109h68v-807h-74v608h-184zM135 20l969 1397l61 -39l-966 -1396zM844 0q0 139 48 217t167 133l139 64q129 57 129 186q0 70 -49 113t-127 43q-96 0 -151.5 -55.5t-55.5 -149.5h-80q0 123 79 196.5t206 73.5q119 0 189.5 -59.5 t70.5 -157.5q0 -164 -164 -239l-139 -64q-88 -41 -128 -94t-42 -139h475v-68h-567z" />
<glyph unicode="&#xbe;" horiz-adv-x="1763" d="M96 815h80q0 -82 56.5 -130t152.5 -48q92 0 147.5 46t55.5 122q0 78 -53.5 123t-147.5 45h-72v61h72q88 0 139.5 42t51.5 114q0 70 -53.5 113t-137.5 43q-88 0 -142.5 -45.5t-54.5 -118.5h-77q0 100 74.5 162.5t201.5 62.5q121 0 193.5 -58.5t72.5 -156.5 q0 -158 -176 -188q80 -4 134.5 -62.5t54.5 -140.5q0 -102 -78 -165t-207 -63q-131 0 -209 66t-78 176zM346 20l969 1397l61 -39l-966 -1396zM1118 276v531h76v-463h274v254h78v-254h146v-68h-146v-278h-78v278h-350z" />
<glyph unicode="&#xbf;" horiz-adv-x="980" d="M72 -100q0 215 194 354l115 78q63 43 89 93t26 144v43h88v-49q0 -106 -33 -170.5t-109 -116.5l-120 -79q-158 -109 -158 -295q0 -129 88 -212t250 -83q164 0 260 101.5t96 273.5h90q0 -209 -120.5 -333t-327.5 -124q-205 0 -316.5 104.5t-111.5 270.5zM436 901 q0 43 30 73t75 30q43 0 71.5 -30t28.5 -73t-28.5 -72.5t-71.5 -29.5q-45 0 -75 29.5t-30 72.5z" />
<glyph unicode="&#xc0;" horiz-adv-x="1155" d="M47 0l490 1434h84l489 -1434h-96l-99 295h-675l-97 -295h-96zM268 379h621l-311 938zM313 1753l35 66l490 -258l-35 -66z" />
<glyph unicode="&#xc1;" horiz-adv-x="1155" d="M47 0l490 1434h84l489 -1434h-96l-99 295h-675l-97 -295h-96zM268 379h621l-311 938zM319 1561l490 258l35 -66l-490 -258z" />
<glyph unicode="&#xc2;" horiz-adv-x="1155" d="M47 0l490 1434h84l489 -1434h-96l-99 295h-675l-97 -295h-96zM268 379h621l-311 938zM322 1563l253 225l254 -225l-49 -47l-205 184l-204 -184z" />
<glyph unicode="&#xc3;" horiz-adv-x="1155" d="M47 0l490 1434h84l489 -1434h-96l-99 295h-675l-97 -295h-96zM219 1616q84 139 207 139q53 0 158.5 -61.5t150.5 -61.5q92 0 156 105l47 -39q-78 -137 -199 -137q-63 -2 -165.5 60t-147.5 62q-94 0 -160 -106zM268 379h621l-311 938z" />
<glyph unicode="&#xc4;" horiz-adv-x="1155" d="M47 0l490 1434h84l489 -1434h-96l-99 295h-675l-97 -295h-96zM246 1665q0 43 27.5 71.5t68.5 28.5t70.5 -28.5t29.5 -71.5q0 -41 -29.5 -68.5t-70.5 -27.5t-68.5 27.5t-27.5 68.5zM268 379h621l-311 938zM719 1665q0 43 28.5 71.5t69.5 28.5t69.5 -28.5t28.5 -71.5 q0 -41 -28.5 -68.5t-69.5 -27.5t-69.5 27.5t-28.5 68.5z" />
<glyph unicode="&#xc5;" horiz-adv-x="1155" d="M47 0l473 1384q-76 18 -125 81t-49 143q0 96 67.5 163.5t166 67.5t167 -67.5t68.5 -163.5q0 -80 -50 -142.5t-128 -83.5l473 -1382h-96l-99 295h-675l-97 -295h-96zM268 379h621l-311 938zM412 1608q0 -70 49 -119t119 -49q72 0 121 49t49 119q0 72 -49.5 120t-121 48 t-119.5 -48t-48 -120z" />
<glyph unicode="&#xc6;" horiz-adv-x="1630" d="M37 0l729 1434h717v-84h-598v-596h598v-82h-598v-588h598v-84h-686v297h-514l-150 -297h-96zM324 379h473v940z" />
<glyph unicode="&#xc7;" horiz-adv-x="1585" d="M88 717q0 315 200.5 530t532.5 215q270 0 441.5 -126t228.5 -335h-96q-57 174 -199.5 275.5t-372.5 101.5q-293 0 -468 -190.5t-175 -471t175 -471t468 -190.5q229 0 371.5 101.5t200.5 275.5h96q-55 -203 -218 -327.5t-421 -133.5v-114q29 47 111 47q68 0 111.5 -47 t43.5 -121q0 -78 -48 -127t-130 -49q-68 0 -112 39t-48 100h60q4 -37 30.5 -60.5t71.5 -23.5q53 0 83 30.5t30 88.5q0 53 -28 86t-81 33q-70 0 -102 -58h-51v176q-322 10 -513.5 224.5t-191.5 521.5z" />
<glyph unicode="&#xc8;" horiz-adv-x="1122" d="M184 0v1434h789v-84h-699v-596h699v-82h-699v-588h699v-84h-789zM328 1753l34 66l490 -258l-35 -66z" />
<glyph unicode="&#xc9;" horiz-adv-x="1122" d="M184 0v1434h789v-84h-699v-596h699v-82h-699v-588h699v-84h-789zM334 1561l489 258l35 -66l-489 -258z" />
<glyph unicode="&#xca;" horiz-adv-x="1122" d="M184 0v1434h789v-84h-699v-596h699v-82h-699v-588h699v-84h-789zM336 1563l254 225l254 -225l-49 -47l-205 184l-205 -184z" />
<glyph unicode="&#xcb;" horiz-adv-x="1122" d="M184 0v1434h789v-84h-699v-596h699v-82h-699v-588h699v-84h-789zM260 1665q0 43 27.5 71.5t68.5 28.5t71 -28.5t30 -71.5q0 -41 -30 -68.5t-71 -27.5t-68.5 27.5t-27.5 68.5zM733 1665q0 43 29 71.5t69.5 28.5t69.5 -28.5t29 -71.5q0 -41 -29 -68.5t-69.5 -27.5 t-69.5 27.5t-29 68.5z" />
<glyph unicode="&#xcc;" horiz-adv-x="458" d="M68 1704l41 65l278 -165l-41 -66zM184 0v1434h90v-1434h-90z" />
<glyph unicode="&#xcd;" horiz-adv-x="458" d="M66 1602l286 174l41 -64l-287 -174zM184 0v1434h90v-1434h-90z" />
<glyph unicode="&#xce;" horiz-adv-x="458" d="M25 1595l202 183l207 -183l-49 -53l-158 144l-155 -144zM184 0v1434h90v-1434h-90z" />
<glyph unicode="&#xcf;" horiz-adv-x="458" d="M20 1665q0 41 27 68.5t68 27.5t68.5 -27.5t27.5 -68.5t-27.5 -67.5t-68.5 -26.5t-68 26.5t-27 67.5zM184 0v1434h90v-1434h-90zM248 1665q0 41 26.5 68.5t67.5 27.5t68.5 -27.5t27.5 -68.5t-27.5 -67.5t-68.5 -26.5t-67.5 26.5t-26.5 67.5z" />
<glyph unicode="&#xd0;" horiz-adv-x="1400" d="M18 684v82h166v668h402q227 0 399 -104.5t255 -265.5t83 -347.5t-83 -347t-255 -265t-399 -104.5h-402v684h-166zM274 84h306q203 0 355 93t225 234.5t73 305.5q0 166 -73 307t-225.5 233.5t-354.5 92.5h-306v-584h316v-82h-316v-600z" />
<glyph unicode="&#xd1;" horiz-adv-x="1355" d="M184 0v1434h99l800 -1289v1289h88v-1434h-98l-801 1288v-1288h-88zM317 1616q84 139 207 139q53 0 158.5 -61.5t151.5 -61.5q92 0 155 105l47 -39q-77 -137 -198 -137q-63 -2 -166 60t-148 62q-94 0 -159 -106z" />
<glyph unicode="&#xd2;" horiz-adv-x="1644" d="M88 717q0 307 202 526t533.5 219t533.5 -219t202 -526t-202 -526.5t-533.5 -219.5t-533.5 219.5t-202 526.5zM180 716.5q0 -272.5 176 -467t467 -194.5t467 194.5t174 467.5q2 272 -174 466.5t-467 194.5t-467 -194.5t-176 -467zM557 1753l35 66l489 -258l-34 -66z" />
<glyph unicode="&#xd3;" horiz-adv-x="1644" d="M88 717q0 307 202 526t533.5 219t533.5 -219t202 -526t-202 -526.5t-533.5 -219.5t-533.5 219.5t-202 526.5zM180 716.5q0 -272.5 176 -467t467 -194.5t467 194.5t174 467.5q2 272 -174 466.5t-467 194.5t-467 -194.5t-176 -467zM563 1561l490 258l34 -66l-489 -258z" />
<glyph unicode="&#xd4;" horiz-adv-x="1644" d="M88 717q0 307 202 526t533.5 219t533.5 -219t202 -526t-202 -526.5t-533.5 -219.5t-533.5 219.5t-202 526.5zM180 716.5q0 -272.5 176 -467t467 -194.5t467 194.5t174 467.5q2 272 -174 466.5t-467 194.5t-467 -194.5t-176 -467zM565 1563l254 225l254 -225l-49 -47 l-205 184l-205 -184z" />
<glyph unicode="&#xd5;" horiz-adv-x="1644" d="M88 717q0 307 202 526t533.5 219t533.5 -219t202 -526t-202 -526.5t-533.5 -219.5t-533.5 219.5t-202 526.5zM180 716.5q0 -272.5 176 -467t467 -194.5t467 194.5t174 467.5q2 272 -174 466.5t-467 194.5t-467 -194.5t-176 -467zM463 1616q84 139 207 139 q53 0 158.5 -61.5t150.5 -61.5q92 0 156 105l47 -39q-78 -137 -199 -137q-63 -2 -165.5 60t-147.5 62q-94 0 -160 -106z" />
<glyph unicode="&#xd6;" horiz-adv-x="1644" d="M88 717q0 307 202 526t533.5 219t533.5 -219t202 -526t-202 -526.5t-533.5 -219.5t-533.5 219.5t-202 526.5zM180 716.5q0 -272.5 176 -467t467 -194.5t467 194.5t174 467.5q2 272 -174 466.5t-467 194.5t-467 -194.5t-176 -467zM489 1665q0 43 28 71.5t69 28.5 t70.5 -28.5t29.5 -71.5q0 -41 -29.5 -68.5t-70.5 -27.5t-69 27.5t-28 68.5zM963 1665q0 43 28.5 71.5t69.5 28.5t69.5 -28.5t28.5 -71.5q0 -41 -28.5 -68.5t-69.5 -27.5t-69.5 27.5t-28.5 68.5z" />
<glyph unicode="&#xd7;" horiz-adv-x="960" d="M119 338l305 305l-305 307l55 58l305 -306l307 306l56 -58l-305 -307l305 -305l-58 -55l-305 305l-303 -305z" />
<glyph unicode="&#xd8;" horiz-adv-x="1644" d="M88 717q0 307 202 526t533 219q131 0 252 -39l62 144l67 -29l-61 -143q195 -88 305.5 -272.5t110.5 -405.5q0 -307 -202 -526.5t-534 -219.5q-145 0 -270 47l-66 -153l-67 29l65 153q-186 90 -291.5 271.5t-105.5 398.5zM180 717q0 -188 90 -348t250 -244l520 1218 q-100 35 -217 35q-291 0 -467 -194.5t-176 -466.5zM586 96q110 -41 237 -41q291 0 467 194.5t174 467.5q2 195 -92 357.5t-262 242.5z" />
<glyph unicode="&#xd9;" horiz-adv-x="1280" d="M139 463v971h88v-967q0 -199 111 -305.5t303 -106.5q190 0 301 106.5t111 305.5v967h90v-971q0 -233 -135.5 -362.5t-366.5 -129.5t-366.5 128t-135.5 364zM375 1753l35 66l489 -258l-35 -66z" />
<glyph unicode="&#xda;" horiz-adv-x="1280" d="M139 463v971h88v-967q0 -199 111 -305.5t303 -106.5q190 0 301 106.5t111 305.5v967h90v-971q0 -233 -135.5 -362.5t-366.5 -129.5t-366.5 128t-135.5 364zM381 1561l489 258l35 -66l-489 -258z" />
<glyph unicode="&#xdb;" horiz-adv-x="1280" d="M139 463v971h88v-967q0 -199 111 -305.5t303 -106.5q190 0 301 106.5t111 305.5v967h90v-971q0 -233 -135.5 -362.5t-366.5 -129.5t-366.5 128t-135.5 364zM383 1563l254 225l254 -225l-49 -47l-205 184l-205 -184z" />
<glyph unicode="&#xdc;" horiz-adv-x="1280" d="M139 463v971h88v-967q0 -199 111 -305.5t303 -106.5q190 0 301 106.5t111 305.5v967h90v-971q0 -233 -135.5 -362.5t-366.5 -129.5t-366.5 128t-135.5 364zM307 1665q0 43 27.5 71.5t68.5 28.5t71 -28.5t30 -71.5q0 -41 -30 -68.5t-71 -27.5t-68.5 27.5t-27.5 68.5z M780 1665q0 43 29 71.5t70 28.5t69.5 -28.5t28.5 -71.5q0 -41 -28.5 -68.5t-69.5 -27.5t-70 27.5t-29 68.5z" />
<glyph unicode="&#xdd;" horiz-adv-x="1091" d="M0 1434h104l496 -779l404 779h98l-742 -1434h-100l293 563zM313 1561l490 258l35 -66l-490 -258z" />
<glyph unicode="&#xde;" horiz-adv-x="1175" d="M184 0v1434h90v-254h396q207 0 335 -134.5t128 -328.5q0 -193 -128 -327t-335 -134h-396v-256h-90zM274 340h394q168 0 271 109.5t103 267t-103 268.5t-271 111h-394v-756z" />
<glyph unicode="&#xdf;" horiz-adv-x="1153" d="M166 0v1038q0 182 112.5 303t307.5 121q199 0 309.5 -103.5t110.5 -273.5q0 -135 -83 -231t-225 -111q156 -16 249 -123.5t93 -252.5q0 -180 -124.5 -287t-325.5 -107q-102 0 -182 27v82q80 -27 178 -27q168 0 268 87t100 233q0 137 -100 231t-270 94h-117v80h108 q160 0 252.5 84t92.5 217q0 135 -88.5 218t-245.5 83q-156 0 -244 -99t-88 -245v-1038h-88z" />
<glyph unicode="&#xe0;" d="M88 459q0 211 128 349t337 138q141 0 245.5 -71.5t149.5 -192.5v240h86v-922h-86v238q-45 -119 -151.5 -191t-245.5 -72q-211 0 -337 137.5t-126 346.5zM174 459q0 -174 105.5 -289t279.5 -115q176 0 284.5 118t108.5 286q0 172 -107.5 289.5t-285.5 117.5 q-174 0 -279.5 -114.5t-105.5 -292.5zM281 1313l32 69l527 -264l-33 -71z" />
<glyph unicode="&#xe1;" d="M88 459q0 211 128 349t337 138q141 0 245.5 -71.5t149.5 -192.5v240h86v-922h-86v238q-45 -119 -151.5 -191t-245.5 -72q-211 0 -337 137.5t-126 346.5zM174 459q0 -174 105.5 -289t279.5 -115q176 0 284.5 118t108.5 286q0 172 -107.5 289.5t-285.5 117.5 q-174 0 -279.5 -114.5t-105.5 -292.5zM279 1124l526 265l33 -70l-527 -266z" />
<glyph unicode="&#xe2;" d="M88 459q0 211 128 349t337 138q141 0 245.5 -71.5t149.5 -192.5v240h86v-922h-86v238q-45 -119 -151.5 -191t-245.5 -72q-211 0 -337 137.5t-126 346.5zM174 459q0 -174 105.5 -289t279.5 -115q176 0 284.5 118t108.5 286q0 172 -107.5 289.5t-285.5 117.5 q-174 0 -279.5 -114.5t-105.5 -292.5zM227 1092l338 299l338 -299l-49 -56l-289 258l-286 -258z" />
<glyph unicode="&#xe3;" d="M88 459q0 211 128 349t337 138q141 0 245.5 -71.5t149.5 -192.5v240h86v-922h-86v238q-45 -119 -151.5 -191t-245.5 -72q-211 0 -337 137.5t-126 346.5zM174 459q0 -174 105.5 -289t279.5 -115q176 0 284.5 118t108.5 286q0 172 -107.5 289.5t-285.5 117.5 q-174 0 -279.5 -114.5t-105.5 -292.5zM219 1192q80 133 203 133q49 0 151.5 -60.5t143.5 -60.5q86 0 149 101l45 -45q-75 -132 -190 -132q-57 0 -155.5 59.5t-145.5 59.5q-92 0 -158 -102z" />
<glyph unicode="&#xe4;" d="M88 459q0 211 128 349t337 138q141 0 245.5 -71.5t149.5 -192.5v240h86v-922h-86v238q-45 -119 -151.5 -191t-245.5 -72q-211 0 -337 137.5t-126 346.5zM174 459q0 -174 105.5 -289t279.5 -115q176 0 284.5 118t108.5 286q0 172 -107.5 289.5t-285.5 117.5 q-174 0 -279.5 -114.5t-105.5 -292.5zM268 1231q0 43 28 71.5t69 28.5q45 0 72.5 -28.5t27.5 -71.5q0 -41 -28.5 -68.5t-71.5 -27.5q-41 0 -69 27.5t-28 68.5zM666 1231q0 43 27.5 71.5t68.5 28.5q43 0 71.5 -28.5t28.5 -71.5q0 -41 -28.5 -68.5t-71.5 -27.5 q-41 0 -68.5 27.5t-27.5 68.5z" />
<glyph unicode="&#xe5;" d="M88 459q0 211 128 349t337 138q141 0 245.5 -71.5t149.5 -192.5v240h86v-922h-86v238q-45 -119 -151.5 -191t-245.5 -72q-211 0 -337 137.5t-126 346.5zM174 459q0 -174 105.5 -289t279.5 -115q176 0 284.5 118t108.5 286q0 172 -107.5 289.5t-285.5 117.5 q-174 0 -279.5 -114.5t-105.5 -292.5zM346 1226.5q0 96.5 63.5 158t155.5 61.5t155.5 -61.5t63.5 -158t-63.5 -157.5t-155.5 -61t-155.5 61t-63.5 157.5zM408 1226.5q0 -71.5 45 -116.5t112.5 -45t112.5 45t45 116.5t-45 117t-112.5 45.5t-112.5 -45.5t-45 -117z" />
<glyph unicode="&#xe6;" horiz-adv-x="1814" d="M98 236q0 143 105 215q113 72 366 71h295v76q0 129 -83 201.5t-240 72.5q-139 0 -227.5 -67.5t-96.5 -190.5h-86q6 152 117.5 242t292.5 90q313 0 385 -217q55 102 154.5 159.5t226.5 57.5q182 0 302 -121t120 -303q0 -49 -5 -71h-778q2 -180 102.5 -289t264.5 -109 q115 0 198.5 55.5t116.5 149.5h86q-29 -127 -139.5 -206t-261.5 -79q-143 0 -251 72t-159 197q-113 -266 -450 -267q-160 0 -257.5 71t-97.5 190zM188 240q0 -92 78 -141.5t219 -49.5q164 0 271.5 94t107.5 250v13q-2 16 -2 45h-342q-332 0 -332 -211zM948 522h694 q0 154 -94 252t-243 98q-156 0 -253.5 -94t-103.5 -256z" />
<glyph unicode="&#xe7;" horiz-adv-x="1050" d="M88 461q0 215 125 348t332 133q176 0 287.5 -88t130.5 -236h-89q-20 117 -108 180.5t-221 63.5q-170 0 -270.5 -110.5t-100.5 -290.5q0 -182 100.5 -292t270.5 -110q135 0 222 62.5t107 179.5h89q-18 -141 -123 -228t-269 -96v-120q29 47 111 47q68 0 112 -47t44 -121 q0 -78 -48.5 -127t-130.5 -49q-68 0 -111.5 39t-47.5 100h59q4 -37 30.5 -60.5t72.5 -23.5q53 0 82.5 30.5t29.5 88.5q0 53 -27.5 86t-80.5 33q-70 0 -103 -58h-51v182q-195 12 -309.5 145.5t-114.5 338.5z" />
<glyph unicode="&#xe8;" horiz-adv-x="1042" d="M88 463q0 219 121 351t319 132q190 0 309 -118.5t119 -303.5q0 -24 -4 -73h-776v-5q0 -176 98.5 -283.5t260.5 -107.5q117 0 202.5 54.5t118.5 146.5h86q-29 -125 -141.5 -203t-263.5 -78q-203 0 -326 133.5t-123 354.5zM178 524h692q0 154 -93 251t-249 97 q-150 0 -245 -95t-105 -253zM246 1313l33 69l526 -264l-33 -71z" />
<glyph unicode="&#xe9;" horiz-adv-x="1042" d="M88 463q0 219 121 351t319 132q190 0 309 -118.5t119 -303.5q0 -24 -4 -73h-776v-5q0 -176 98.5 -283.5t260.5 -107.5q117 0 202.5 54.5t118.5 146.5h86q-29 -125 -141.5 -203t-263.5 -78q-203 0 -326 133.5t-123 354.5zM178 524h692q0 154 -93 251t-249 97 q-150 0 -245 -95t-105 -253zM244 1124l526 265l33 -70l-527 -266z" />
<glyph unicode="&#xea;" horiz-adv-x="1042" d="M88 463q0 219 121 351t319 132q190 0 309 -118.5t119 -303.5q0 -24 -4 -73h-776v-5q0 -176 98.5 -283.5t260.5 -107.5q117 0 202.5 54.5t118.5 146.5h86q-29 -125 -141.5 -203t-263.5 -78q-203 0 -326 133.5t-123 354.5zM178 524h692q0 154 -93 251t-249 97 q-150 0 -245 -95t-105 -253zM193 1092l337 299l338 -299l-49 -56l-289 258l-286 -258z" />
<glyph unicode="&#xeb;" horiz-adv-x="1042" d="M88 463q0 219 121 351t319 132q190 0 309 -118.5t119 -303.5q0 -24 -4 -73h-776v-5q0 -176 98.5 -283.5t260.5 -107.5q117 0 202.5 54.5t118.5 146.5h86q-29 -125 -141.5 -203t-263.5 -78q-203 0 -326 133.5t-123 354.5zM178 524h692q0 154 -93 251t-249 97 q-150 0 -245 -95t-105 -253zM233 1231q0 43 28 71.5t69 28.5q45 0 72.5 -28.5t27.5 -71.5q0 -41 -28.5 -68.5t-71.5 -27.5q-41 0 -69 27.5t-28 68.5zM631 1231q0 43 27.5 71.5t68.5 28.5q43 0 71.5 -28.5t28.5 -71.5q0 -41 -28.5 -68.5t-71.5 -27.5q-41 0 -68.5 27.5 t-27.5 68.5z" />
<glyph unicode="&#xec;" horiz-adv-x="434" d="M41 1247l41 66l307 -174l-41 -66zM174 0v922h86v-922h-86z" />
<glyph unicode="&#xed;" horiz-adv-x="434" d="M41 1139l307 174l41 -66l-307 -174zM174 0v922h86v-922h-86z" />
<glyph unicode="&#xee;" horiz-adv-x="434" d="M6 1128l211 215l213 -215l-53 -51l-160 166l-158 -164zM174 0v922h86v-922h-86z" />
<glyph unicode="&#xef;" horiz-adv-x="434" d="M6 1231q0 39 25.5 65.5t64.5 26.5t65.5 -26.5t26.5 -65.5t-26.5 -65.5t-65.5 -26.5t-64.5 26.5t-25.5 65.5zM174 0v922h86v-922h-86zM246 1231q0 39 25.5 65.5t64.5 26.5t65.5 -26.5t26.5 -65.5t-26.5 -65.5t-65.5 -26.5t-64.5 26.5t-25.5 65.5z" />
<glyph unicode="&#xf0;" horiz-adv-x="1112" d="M88 463q0 205 129 345t338 140q88 0 168 -28l-148 229l-204 -113l-31 58l201 110l-148 230h107l121 -187l194 109l35 -56l-195 -106l291 -451q78 -121 78 -280q0 -207 -129 -347.5t-340 -140.5q-209 0 -338 140.5t-129 347.5zM174 461q0 -170 104.5 -287t276.5 -117 t277.5 117t105.5 289q0 170 -105.5 286.5t-277.5 116.5t-276.5 -116.5t-104.5 -288.5z" />
<glyph unicode="&#xf1;" horiz-adv-x="1150" d="M174 0v922h86v-254q29 125 123 201.5t246 76.5q178 0 268 -103.5t90 -299.5v-543h-88v516q0 352 -295 352q-168 0 -256 -114.5t-88 -302.5v-451h-86zM225 1192q80 133 203 133q47 0 149.5 -60.5t145.5 -60.5q86 0 149 101l46 -45q-76 -132 -191 -132q-57 0 -155.5 59.5 t-145.5 59.5q-92 0 -158 -102z" />
<glyph unicode="&#xf2;" horiz-adv-x="1112" d="M88 463q0 205 129 345t338 140q211 0 340 -140t129 -345q0 -207 -129 -347.5t-340 -140.5q-209 0 -338 140.5t-129 347.5zM174 461q0 -170 104.5 -287t276.5 -117t277.5 117t105.5 289q0 170 -105.5 286.5t-277.5 116.5t-276.5 -116.5t-104.5 -288.5zM270 1313l33 69 l526 -264l-32 -71z" />
<glyph unicode="&#xf3;" horiz-adv-x="1112" d="M88 463q0 205 129 345t338 140q211 0 340 -140t129 -345q0 -207 -129 -347.5t-340 -140.5q-209 0 -338 140.5t-129 347.5zM174 461q0 -170 104.5 -287t276.5 -117t277.5 117t105.5 289q0 170 -105.5 286.5t-277.5 116.5t-276.5 -116.5t-104.5 -288.5zM268 1124l527 265 l32 -70l-526 -266z" />
<glyph unicode="&#xf4;" horiz-adv-x="1112" d="M88 463q0 205 129 345t338 140q211 0 340 -140t129 -345q0 -207 -129 -347.5t-340 -140.5q-209 0 -338 140.5t-129 347.5zM174 461q0 -170 104.5 -287t276.5 -117t277.5 117t105.5 289q0 170 -105.5 286.5t-277.5 116.5t-276.5 -116.5t-104.5 -288.5zM217 1092l338 299 l338 -299l-49 -56l-289 258l-287 -258z" />
<glyph unicode="&#xf5;" horiz-adv-x="1112" d="M88 463q0 205 129 345t338 140q211 0 340 -140t129 -345q0 -207 -129 -347.5t-340 -140.5q-209 0 -338 140.5t-129 347.5zM174 461q0 -170 104.5 -287t276.5 -117t277.5 117t105.5 289q0 170 -105.5 286.5t-277.5 116.5t-276.5 -116.5t-104.5 -288.5zM209 1192 q80 133 203 133q47 0 149.5 -60.5t145.5 -60.5q86 0 149 101l45 -45q-75 -132 -190 -132q-57 0 -155.5 59.5t-145.5 59.5q-92 0 -158 -102z" />
<glyph unicode="&#xf6;" horiz-adv-x="1112" d="M88 463q0 205 129 345t338 140q211 0 340 -140t129 -345q0 -207 -129 -347.5t-340 -140.5q-209 0 -338 140.5t-129 347.5zM174 461q0 -170 104.5 -287t276.5 -117t277.5 117t105.5 289q0 170 -105.5 286.5t-277.5 116.5t-276.5 -116.5t-104.5 -288.5zM258 1231 q0 43 27.5 71.5t68.5 28.5q45 0 73 -28.5t28 -71.5q0 -41 -29 -68.5t-72 -27.5q-41 0 -68.5 27.5t-27.5 68.5zM655 1231q0 43 28 71.5t69 28.5q43 0 71.5 -28.5t28.5 -71.5q0 -41 -28.5 -68.5t-71.5 -27.5q-41 0 -69 27.5t-28 68.5z" />
<glyph unicode="&#xf7;" horiz-adv-x="1032" d="M119 602v80h796v-80h-796zM418 360q0 43 28.5 73t69.5 30q43 0 72.5 -30t29.5 -73q0 -41 -29.5 -69.5t-72.5 -28.5q-41 0 -69.5 28.5t-28.5 69.5zM418 924q0 43 28.5 72.5t69.5 29.5q43 0 72.5 -29.5t29.5 -72.5q0 -41 -29.5 -70t-72.5 -29q-41 0 -69.5 29t-28.5 70z" />
<glyph unicode="&#xf8;" horiz-adv-x="1112" d="M88 463q0 205 129 345t338 140q98 0 178 -30l35 81l59 -24l-36 -86q111 -61 172 -174t61 -252q0 -207 -129 -347.5t-340 -140.5q-76 0 -149 23l-52 -121l-59 25l51 118q-121 57 -189.5 176t-68.5 267zM174 461q0 -121 54.5 -218.5t150.5 -146.5l321 744q-66 27 -145 26 q-172 0 -276.5 -116.5t-104.5 -288.5zM438 74q60 -17 117 -17q172 0 277.5 117t105.5 289q0 111 -47 204t-133 144z" />
<glyph unicode="&#xf9;" horiz-adv-x="1153" d="M164 377v545h86v-527q0 -156 74.5 -248t228.5 -92q166 0 253 122t87 274v471h86v-922h-86v250q-33 -117 -129.5 -196t-231.5 -79q-170 0 -269 102.5t-99 299.5zM297 1313l33 69l526 -264l-33 -71z" />
<glyph unicode="&#xfa;" horiz-adv-x="1153" d="M164 377v545h86v-527q0 -156 74.5 -248t228.5 -92q166 0 253 122t87 274v471h86v-922h-86v250q-33 -117 -129.5 -196t-231.5 -79q-170 0 -269 102.5t-99 299.5zM295 1124l526 265l33 -70l-526 -266z" />
<glyph unicode="&#xfb;" horiz-adv-x="1153" d="M164 377v545h86v-527q0 -156 74.5 -248t228.5 -92q166 0 253 122t87 274v471h86v-922h-86v250q-33 -117 -129.5 -196t-231.5 -79q-170 0 -269 102.5t-99 299.5zM244 1092l338 299l338 -299l-50 -56l-288 258l-287 -258z" />
<glyph unicode="&#xfc;" horiz-adv-x="1153" d="M164 377v545h86v-527q0 -156 74.5 -248t228.5 -92q166 0 253 122t87 274v471h86v-922h-86v250q-33 -117 -129.5 -196t-231.5 -79q-170 0 -269 102.5t-99 299.5zM285 1231q0 43 27.5 71.5t68.5 28.5q45 0 72.5 -28.5t27.5 -71.5q0 -41 -28.5 -68.5t-71.5 -27.5 q-41 0 -68.5 27.5t-27.5 68.5zM682 1231q0 43 27.5 71.5t68.5 28.5q43 0 72 -28.5t29 -71.5q0 -41 -29 -68.5t-72 -27.5q-41 0 -68.5 27.5t-27.5 68.5z" />
<glyph unicode="&#xfd;" horiz-adv-x="1163" d="M164 -141h88q2 -109 80 -180.5t241 -71.5q328 0 328 352v285q-39 -115 -133 -191t-233 -76q-371 0 -371 422v523h86v-508q0 -176 68.5 -265.5t238.5 -89.5q164 0 254 121t90 273v469h88v-967q0 -233 -135 -340q-104 -86 -281 -86q-195 0 -305 94q-104 88 -104 236z M291 1124l526 265l33 -70l-526 -266z" />
<glyph unicode="&#xfe;" d="M172 55h2v1379h86v-752q47 125 155 194.5t247 69.5q201 0 329.5 -137t128.5 -350q0 -209 -131 -346.5t-332 -137.5q-137 0 -243.5 71t-153.5 192v-684h-88v501zM256 459q0 -174 111.5 -289t281.5 -115q168 0 276.5 115t108.5 289q0 176 -108.5 291.5t-276.5 115.5 q-172 0 -282.5 -115.5t-110.5 -291.5z" />
<glyph unicode="&#xff;" horiz-adv-x="1163" d="M164 -141h88q2 -109 80 -180.5t241 -71.5q328 0 328 352v285q-39 -115 -133 -191t-233 -76q-371 0 -371 422v523h86v-508q0 -176 68.5 -265.5t238.5 -89.5q164 0 254 121t90 273v469h88v-967q0 -233 -135 -340q-104 -86 -281 -86q-195 0 -305 94q-104 88 -104 236z M281 1231q0 43 27.5 71.5t68.5 28.5q45 0 72.5 -28.5t27.5 -71.5q0 -41 -28.5 -68.5t-71.5 -27.5q-41 0 -68.5 27.5t-27.5 68.5zM678 1231q0 43 27.5 71.5t68.5 28.5q43 0 71.5 -28.5t28.5 -71.5q0 -41 -28.5 -68.5t-71.5 -27.5q-41 0 -68.5 27.5t-27.5 68.5z" />
<glyph unicode="&#x152;" horiz-adv-x="1740" d="M88 717q0 295 182.5 506t481.5 211h839v-84h-612v-596h612v-82h-612v-588h612v-84h-839q-299 0 -481.5 211t-182.5 506zM180 717q0 -260 157 -446.5t415 -186.5h137v1266h-137q-258 0 -415 -186.5t-157 -446.5z" />
<glyph unicode="&#x153;" horiz-adv-x="1892" d="M88 463q0 205 129 345t338 140q147 0 258 -71.5t164 -192.5q51 125 155.5 193.5t245.5 68.5q190 0 309 -118.5t119 -303.5q0 -24 -4 -73h-776v-5q0 -176 98.5 -283.5t259.5 -107.5q117 0 203 54.5t119 146.5h86q-29 -125 -141.5 -203t-264.5 -78q-145 0 -251.5 71 t-155.5 196q-55 -123 -166 -195t-258 -72q-209 0 -338 140.5t-129 347.5zM174 461q0 -170 104.5 -287t276.5 -117t277.5 117t105.5 289q0 170 -105.5 286.5t-277.5 116.5t-276.5 -116.5t-104.5 -288.5zM1028 524h692q0 154 -93 251t-249 97q-150 0 -245 -95t-105 -253z" />
<glyph unicode="&#x178;" horiz-adv-x="1091" d="M0 1434h104l496 -779l404 779h98l-742 -1434h-100l293 563zM240 1665q0 43 27.5 71.5t68.5 28.5t70.5 -28.5t29.5 -71.5q0 -41 -29.5 -68.5t-70.5 -27.5t-68.5 27.5t-27.5 68.5zM713 1665q0 43 28.5 71.5t69.5 28.5t69.5 -28.5t28.5 -71.5q0 -41 -28.5 -68.5t-69.5 -27.5 t-69.5 27.5t-28.5 68.5z" />
<glyph unicode="&#x2c6;" horiz-adv-x="1228" d="M43 1092l338 299l338 -299l-49 -56l-289 258l-287 -258z" />
<glyph unicode="&#x2dc;" horiz-adv-x="1228" d="M90 1192q80 133 203 133q47 0 150.5 -60.5t144.5 -60.5q86 0 149 101l45 -45q-75 -132 -190 -132q-57 0 -155.5 59.5t-145.5 59.5q-92 0 -158 -102z" />
<glyph unicode="&#x2000;" horiz-adv-x="919" />
<glyph unicode="&#x2001;" horiz-adv-x="1839" />
<glyph unicode="&#x2002;" horiz-adv-x="919" />
<glyph unicode="&#x2003;" horiz-adv-x="1839" />
<glyph unicode="&#x2004;" horiz-adv-x="613" />
<glyph unicode="&#x2005;" horiz-adv-x="459" />
<glyph unicode="&#x2006;" horiz-adv-x="306" />
<glyph unicode="&#x2007;" horiz-adv-x="306" />
<glyph unicode="&#x2008;" horiz-adv-x="229" />
<glyph unicode="&#x2009;" horiz-adv-x="367" />
<glyph unicode="&#x200a;" horiz-adv-x="102" />
<glyph unicode="&#x2010;" horiz-adv-x="845" d="M119 487v80h608v-80h-608z" />
<glyph unicode="&#x2011;" horiz-adv-x="845" d="M119 487v80h608v-80h-608z" />
<glyph unicode="&#x2012;" horiz-adv-x="845" d="M119 487v80h608v-80h-608z" />
<glyph unicode="&#x2013;" horiz-adv-x="1181" d="M119 496v73h946v-73h-946z" />
<glyph unicode="&#x2014;" horiz-adv-x="1554" d="M119 510v76h1319v-76h-1319z" />
<glyph unicode="&#x2018;" horiz-adv-x="534" d="M154 1290q0 102 54 161.5t142 59.5q27 0 47 -6v-55q-29 4 -43 4q-49 0 -80.5 -29.5t-35.5 -78.5q-10 -47 8 -89q20 27 65 27q41 0 68 -26.5t27 -69.5t-27 -72t-74 -29q-63 0 -107 56.5t-44 146.5z" />
<glyph unicode="&#x2019;" horiz-adv-x="534" d="M129 1370q0 43 26.5 71.5t73.5 28.5q63 0 107.5 -56t44.5 -146q0 -102 -54.5 -161.5t-142.5 -59.5q-25 0 -47 6v55q29 -4 43 -4q49 0 81 29.5t36 78.5q10 47 -8 88q-20 -27 -66 -26q-41 0 -67.5 26.5t-26.5 69.5z" />
<glyph unicode="&#x201a;" horiz-adv-x="534" d="M129 86q0 43 26.5 71.5t73.5 28.5q63 0 107.5 -56t44.5 -146q0 -102 -54.5 -162t-142.5 -60q-25 0 -47 7v55q29 -4 43 -4q49 0 81 29.5t36 78.5q10 47 -8 88q-20 -27 -66 -26q-41 0 -67.5 26.5t-26.5 69.5z" />
<glyph unicode="&#x201c;" horiz-adv-x="845" d="M154 1290q0 102 54 161.5t142 59.5q27 0 47 -6v-55q-29 4 -43 4q-49 0 -80.5 -29.5t-35.5 -78.5q-10 -47 8 -89q20 27 65 27q41 0 68 -26.5t27 -69.5t-27 -72t-74 -29q-63 0 -107 56.5t-44 146.5zM467 1290q0 102 54 161.5t143 59.5q25 0 47 -6v-55q-29 4 -43 4 q-49 0 -81 -29.5t-36 -78.5q-10 -47 8 -89q20 27 66 27q41 0 67.5 -26.5t26.5 -69.5t-27 -72t-74 -29q-63 0 -107 56.5t-44 146.5z" />
<glyph unicode="&#x201d;" horiz-adv-x="845" d="M129 1370q0 43 26.5 71.5t73.5 28.5q63 0 107.5 -56t44.5 -146q0 -102 -54.5 -161.5t-142.5 -59.5q-25 0 -47 6v55q29 -4 43 -4q49 0 81 29.5t36 78.5q10 47 -8 88q-20 -27 -66 -26q-41 0 -67.5 26.5t-26.5 69.5zM440 1370q0 43 27 71.5t74 28.5q63 0 107 -56t44 -146 q0 -102 -54 -161.5t-142 -59.5q-25 0 -47 6v55q29 -4 43 -4q49 0 80.5 29.5t35.5 78.5q10 47 -8 88q-20 -27 -65 -26q-41 0 -68 26.5t-27 69.5z" />
<glyph unicode="&#x201e;" horiz-adv-x="845" d="M129 86q0 43 26.5 71.5t73.5 28.5q63 0 107.5 -56t44.5 -146q0 -102 -54.5 -162t-142.5 -60q-25 0 -47 7v55q29 -4 43 -4q49 0 81 29.5t36 78.5q10 47 -8 88q-20 -27 -66 -26q-41 0 -67.5 26.5t-26.5 69.5zM440 86q0 43 27 71.5t74 28.5q63 0 107 -56t44 -146 q0 -102 -54 -162t-142 -60q-25 0 -47 7v55q29 -4 43 -4q49 0 80.5 29.5t35.5 78.5q10 47 -8 88q-20 -27 -65 -26q-41 0 -68 26.5t-27 69.5z" />
<glyph unicode="&#x2022;" horiz-adv-x="753" d="M139 639q0 100 70 170t168 70q100 0 169.5 -70t69.5 -170q0 -98 -69.5 -168t-169.5 -70q-98 0 -168 70t-70 168z" />
<glyph unicode="&#x2026;" horiz-adv-x="1499" d="M184 84q0 43 29 72.5t74 29.5q43 0 72.5 -29.5t29.5 -72.5t-29.5 -72.5t-72.5 -29.5q-45 0 -74 29.5t-29 72.5zM647 84q0 43 29 72.5t74 29.5q43 0 72.5 -29.5t29.5 -72.5t-29.5 -72.5t-72.5 -29.5q-45 0 -74 29.5t-29 72.5zM1110 84q0 43 28.5 72.5t73.5 29.5 q43 0 73 -29.5t30 -72.5t-30 -72.5t-73 -29.5q-45 0 -73.5 29.5t-28.5 72.5z" />
<glyph unicode="&#x202f;" horiz-adv-x="367" />
<glyph unicode="&#x2039;" horiz-adv-x="532" d="M18 535l416 378l55 -53l-356 -325l356 -324l-55 -55z" />
<glyph unicode="&#x203a;" horiz-adv-x="532" d="M43 211l356 324l-356 325l55 53l416 -378l-416 -379z" />
<glyph unicode="&#x205f;" horiz-adv-x="459" />
<glyph unicode="&#x20ac;" horiz-adv-x="1191" d="M49 512l19 68h114q-4 78 -4 120q0 41 4 115h-125l17 68h112q55 535 461 534q190 0 299 -111.5t139 -297.5h-88q-61 328 -350 327q-328 0 -375 -452h494l-18 -68h-482q-2 -37 -2 -115q0 -43 4 -120h490l-19 -68h-467q49 -451 375 -451q293 0 350 332h88 q-31 -186 -139 -299.5t-299 -113.5q-403 0 -459 532h-139z" />
<glyph unicode="&#x2122;" horiz-adv-x="1685" d="M18 1366v68h521v-68h-224v-766h-73v766h-224zM723 600v834h100l289 -719l289 719h100v-834h-71v715l-285 -715h-68l-282 715v-715h-72z" />
<glyph unicode="&#x25fc;" horiz-adv-x="921" d="M0 0v922h922v-922h-922z" />
<glyph unicode="&#xfb03;" horiz-adv-x="1847" d="M49 846v76h211v213q0 311 256 311q82 0 131 -27v-80q-53 27 -115 27q-39 0 -66.5 -7t-57 -28.5t-46 -70t-16.5 -119.5v-219h301v-76h-301v-846h-86v846h-211zM784 846v76h211v213q0 311 256 311q82 0 131 -27v-80q-53 27 -114 27q-39 0 -66.5 -7t-57.5 -28.5t-46.5 -70 t-16.5 -119.5v-219h301v-76h-301v-846h-86v846h-211zM1530 1235q0 43 28.5 71.5t71.5 28.5q45 0 74 -28.5t29 -71.5t-29 -72.5t-74 -29.5q-43 0 -71.5 29.5t-28.5 72.5zM1587 0v922h86v-922h-86z" />
<glyph unicode="&#xfb04;" horiz-adv-x="1847" d="M49 846v76h211v213q0 311 256 311q82 0 131 -27v-80q-53 27 -115 27q-39 0 -66.5 -7t-57 -28.5t-46 -70t-16.5 -119.5v-219h301v-76h-301v-846h-86v846h-211zM784 846v76h211v213q0 311 256 311q82 0 131 -27v-80q-53 27 -114 27q-39 0 -66.5 -7t-57.5 -28.5t-46.5 -70 t-16.5 -119.5v-219h301v-76h-301v-846h-86v846h-211zM1587 0v1434h86v-1434h-86z" />
</font>
</defs>
</svg>
