<?xml version="1.0" standalone="no"?>
<!DOCTYPE svg PUBLIC "-//W3C//DTD SVG 1.1//EN" "http://www.w3.org/Graphics/SVG/1.1/DTD/svg11.dtd" >
<svg xmlns="http://www.w3.org/2000/svg" xmlns:xlink="http://www.w3.org/1999/xlink" version="1.1">
<metadata></metadata>
<defs>
<font id="gt_walsheim_proultra_light" horiz-adv-x="1206" >
<font-face units-per-em="2048" ascent="1434" descent="-614" />
<missing-glyph horiz-adv-x="532" />
<glyph unicode="&#xfb01;" horiz-adv-x="1067" d="M51 870v41h217v236q0 174 65.5 236.5t168.5 62.5q74 0 125 -31v-43q-53 33 -125 33q-86 0 -139.5 -50t-53.5 -200v-244h318v-41h-318v-870h-41v870h-217zM842 0v911h41v-911h-41zM842 1116v211h41v-211h-41z" />
<glyph unicode="&#xfb02;" horiz-adv-x="1067" d="M51 870v41h217v236q0 174 65.5 236.5t168.5 62.5q74 0 125 -31v-43q-53 33 -125 33q-86 0 -139.5 -50t-53.5 -200v-244h318v-41h-318v-870h-41v870h-217zM842 0v1434h41v-1434h-41z" />
<glyph horiz-adv-x="0" />
<glyph horiz-adv-x="682" />
<glyph unicode="&#xd;" horiz-adv-x="681" />
<glyph unicode=" "  horiz-adv-x="532" />
<glyph unicode="&#x09;" horiz-adv-x="532" />
<glyph unicode="&#xa0;" horiz-adv-x="532" />
<glyph unicode="!" horiz-adv-x="464" d="M211 0v211h41v-211h-41zM211 354v1080h41v-1080h-41z" />
<glyph unicode="&#x22;" horiz-adv-x="524" d="M123 913v480h41v-480h-41zM360 913v480h41v-480h-41z" />
<glyph unicode="#" horiz-adv-x="1130" d="M61 459v41h240l59 434h-237v41h244l63 459h41l-63 -459h407l64 459h41l-64 -459h213v-41h-219l-59 -434h217v-41h-224l-63 -459h-41l63 459h-407l-64 -459h-41l64 459h-234zM342 500h408l59 434h-408z" />
<glyph unicode="$" horiz-adv-x="1187" d="M102 406h41q0 -172 126 -282t345 -110q197 0 308.5 88t111.5 244q0 135 -76.5 212t-201.5 99l-264 43q-160 27 -250 105t-90 237q0 156 113.5 262.5t328.5 106.5h2v186h41v-188q190 -10 297.5 -112.5t114.5 -282.5h-41q-6 170 -115 264t-299 94q-195 0 -298 -96 t-103 -234q0 -258 303 -301l270 -45q137 -23 223 -108.5t86 -241.5q0 -172 -115.5 -269t-322.5 -104v-178h-41v178q-229 4 -361.5 125t-132.5 308z" />
<glyph unicode="%" horiz-adv-x="1503" d="M41 1069q0 145 94 246.5t252 101.5t252 -101.5t94 -246.5t-94 -246.5t-252 -101.5t-252 101.5t-94 246.5zM82 1069q0 -127 83 -218t222 -91t222 91t83 218t-83 218t-222 91t-222 -91t-83 -218zM242 12l966 1397l35 -20l-967 -1397zM770 338q0 145 94 246.5t252 101.5 t252 -101.5t94 -246.5t-94 -246.5t-252 -101.5t-252 101.5t-94 246.5zM811 338q0 -127 83 -218t222 -91t222 91t83 218t-83 218t-222 91t-222 -91t-83 -218z" />
<glyph unicode="&#x26;" horiz-adv-x="1202" d="M123 373q0 141 86 242.5t240 121.5q-145 20 -225.5 114.5t-80.5 227.5q0 168 118 270.5t323 102.5q186 0 303 -98.5t117 -253.5h-41q0 137 -105.5 224t-273.5 87q-186 0 -293 -91t-107 -241q0 -143 102.5 -232t272.5 -89h57v-41h-59q-178 0 -285.5 -95.5t-107.5 -248.5 q0 -158 111.5 -254t302.5 -96q213 0 309 126.5t100 331.5h-231v41h436v-41h-164q-4 -223 -112.5 -361t-337.5 -138q-209 0 -332 107.5t-123 283.5z" />
<glyph unicode="'" horiz-adv-x="286" d="M123 913v480h41v-480h-41z" />
<glyph unicode="(" horiz-adv-x="606" d="M164 553q0 555 426 938l26 -31q-412 -379 -411.5 -907t411.5 -907l-26 -31q-426 383 -426 938z" />
<glyph unicode=")" horiz-adv-x="606" d="M-10 -354q412 379 411.5 907t-411.5 907l26 31q426 -383 426 -938t-426 -938z" />
<glyph unicode="*" horiz-adv-x="913" d="M82 1180l12 41l348 -121l-4 368h41l-4 -368l344 121l12 -41l-344 -111l213 -291l-32 -24l-209 297l-213 -297l-33 24l215 291z" />
<glyph unicode="+" horiz-adv-x="1032" d="M123 623v41h373v374h41v-374h372v-41h-372v-371h-41v371h-373z" />
<glyph unicode="," horiz-adv-x="425" d="M123 -197q160 0 160 154v254h41v-254q0 -195 -201 -195v41z" />
<glyph unicode="-" horiz-adv-x="847" d="M123 502v41h602v-41h-602z" />
<glyph unicode="." horiz-adv-x="450" d="M205 0v211h41v-211h-41z" />
<glyph unicode="/" horiz-adv-x="821" d="M41 -90l702 1628l37 -16l-702 -1628z" />
<glyph unicode="0" horiz-adv-x="1232" d="M113 700q0 350 129 533.5t374.5 183.5t374.5 -183t129 -534q0 -352 -129 -535t-374.5 -183t-374.5 183t-129 535zM154 700q0 -336 116.5 -506.5t346 -170.5t346 171t116.5 506q0 334 -116.5 505t-346 171t-346 -171t-116.5 -505z" />
<glyph unicode="1" horiz-adv-x="663" d="M82 1114v41q170 0 222 51t52 187h41v-1393h-41v1206q-59 -92 -274 -92z" />
<glyph unicode="2" horiz-adv-x="1099" d="M123 0q0 236 76.5 360.5t277.5 214.5l242 109q242 111 242 369q0 141 -99.5 229t-257.5 88q-184 0 -295.5 -110.5t-111.5 -296.5h-41q0 203 122.5 325.5t325.5 122.5q180 0 288.5 -98.5t108.5 -259.5q0 -147 -63.5 -243.5t-204.5 -160.5l-244 -110q-172 -78 -248.5 -195 t-76.5 -303h854v-41h-895z" />
<glyph unicode="3" horiz-adv-x="1095" d="M102 360h41q0 -152 111 -244.5t293 -92.5q184 0 295.5 93t111.5 246q0 150 -108.5 242t-282.5 92h-119v39h117q168 0 270.5 86t102.5 229.5t-104.5 231.5t-274.5 88q-174 0 -280.5 -89t-106.5 -232h-41q0 164 116.5 263t309.5 99q190 0 306 -98.5t116 -259.5 q0 -141 -81 -229.5t-230 -108.5q133 0 231 -105.5t98 -251.5q0 -170 -122.5 -273t-323.5 -103t-323 104t-122 274z" />
<glyph unicode="4" horiz-adv-x="1136" d="M164 512v881h41v-840h547v475h41v-475h272v-41h-272v-514h-41v514h-588z" />
<glyph unicode="5" horiz-adv-x="1134" d="M147 328h41q8 -137 114 -221t288 -84q186 0 298.5 118.5t112.5 327.5q0 203 -104 312.5t-287 109.5q-158 0 -243.5 -54.5t-139.5 -170.5h-49v727h772v-41h-731v-631q43 96 142.5 153.5t248.5 57.5q201 0 316.5 -121t115.5 -342q0 -227 -124.5 -357t-327.5 -130 q-201 0 -317.5 95t-125.5 251z" />
<glyph unicode="6" horiz-adv-x="1136" d="M106 457q0 168 91 297l397 639h49l-330 -527q111 72 250 72q205 0 331 -139.5t126 -342t-126 -342t-331 -139.5t-331 139.5t-126 342.5zM147 456.5q0 -184.5 115 -311.5t301.5 -127t301 127t114.5 311.5t-114.5 311.5t-301 127t-301.5 -127t-115 -311.5z" />
<glyph unicode="7" horiz-adv-x="964" d="M92 1352v41h873l-779 -1393h-47l760 1352h-807z" />
<glyph unicode="8" horiz-adv-x="1114" d="M102 360q0 143 89.5 239.5t238.5 115.5q-141 23 -224 113t-83 221q0 164 119.5 263t314.5 99t314.5 -99.5t119.5 -262.5q0 -131 -83 -221.5t-224 -112.5q150 -18 239 -114.5t89 -240.5q0 -170 -125 -274t-330 -104t-330 104t-125 274zM143 360q0 -152 114 -244.5 t300 -92.5t300 93t114 244q0 154 -113 245t-301 91t-301 -91t-113 -245zM164 1049q0 -141 106.5 -226.5t286.5 -85.5t286.5 85t106.5 227q0 145 -108.5 233t-284.5 88t-284.5 -88t-108.5 -233z" />
<glyph unicode="9" horiz-adv-x="1062" d="M43 936q0 203 126 342t331 139t330.5 -139t125.5 -342q0 -168 -90 -297l-397 -639h-49l330 526q-111 -72 -250 -71q-205 0 -331 139t-126 342zM84 936q0 -184 114.5 -311t301 -127t301 127t114.5 311t-114.5 311t-301 127t-301 -127t-114.5 -311z" />
<glyph unicode=":" horiz-adv-x="450" d="M205 0v211h41v-211h-41zM205 715v211h41v-211h-41z" />
<glyph unicode=";" horiz-adv-x="559" d="M205 -197q160 0 160 154v254h41v-254q0 -195 -201 -195v41zM365 717v211h41v-211h-41z" />
<glyph unicode="&#x3c;" horiz-adv-x="1032" d="M123 643v41l786 338v-45l-727 -313l727 -314v-45z" />
<glyph unicode="=" horiz-adv-x="1114" d="M123 438v41h868v-41h-868zM123 805v41h868v-41h-868z" />
<glyph unicode="&#x3e;" horiz-adv-x="1032" d="M123 305v45l727 314l-727 313v45l786 -338v-41z" />
<glyph unicode="?" horiz-adv-x="987" d="M41 1012q0 193 125 320.5t329.5 127.5t312 -97t107.5 -273q0 -82 -22.5 -146.5t-65.5 -107.5t-72.5 -63.5t-76.5 -45.5q-76 -41 -114 -70.5t-68.5 -98.5t-30.5 -173h-41q0 115 34 190.5t77 110.5t124 78q43 25 70 42t66 56t59 96.5t20 131.5q0 156 -96 242.5t-282 86.5 q-188 0 -301 -116.5t-113 -290.5h-41zM424 0v211h41v-211h-41z" />
<glyph unicode="@" horiz-adv-x="1851" d="M92 420q0 381 234.5 609t629.5 228q365 0 584 -221t219 -651q0 -205 -61.5 -343t-202.5 -138q-125 0 -174 82t-49 274q-41 -113 -142.5 -185.5t-242.5 -72.5q-188 0 -305 123t-117 297q0 176 117.5 299t304.5 123q143 0 243.5 -73t141.5 -187v243h39v-600 q0 -94 16 -155.5t48 -87t58.5 -32.5t67.5 -7q76 0 127 68.5t70.5 165.5t19.5 216q0 403 -209 612.5t-553 209.5q-377 0 -600 -217.5t-223 -579.5q0 -358 217 -571.5t584 -213.5q313 0 524 166l21 -34q-223 -173 -547 -173q-383 0 -611.5 223.5t-228.5 602.5zM504 422 q0 -160 106.5 -271.5t276.5 -111.5t277.5 112.5t107.5 270.5q0 160 -107.5 271.5t-277.5 111.5t-276.5 -111.5t-106.5 -271.5z" />
<glyph unicode="A" horiz-adv-x="1128" d="M51 0l492 1434h43l491 -1434h-43l-112 332h-715l-113 -332h-43zM221 373h686l-344 1011z" />
<glyph unicode="B" horiz-adv-x="1175" d="M195 0v1434h448q184 0 294 -98.5t110 -270.5q0 -141 -74 -233t-193 -115q121 -25 197 -118t76 -230q0 -170 -113 -269.5t-297 -99.5h-448zM236 41h407q168 0 268.5 87t100.5 241q0 145 -91.5 236t-224.5 91h-460v-655zM236 737h460q131 0 220.5 90.5t89.5 237.5 q0 156 -98.5 242t-264.5 86h-407v-656z" />
<glyph unicode="C" horiz-adv-x="1587" d="M92 717q0 307 201 525t530 218q264 0 430 -119.5t232 -318.5h-43q-63 182 -218 289.5t-401 107.5q-313 0 -501.5 -205.5t-188.5 -496.5t188.5 -497t501.5 -206q246 0 400.5 107.5t218.5 290.5h43q-66 -199 -232 -319t-430 -120q-330 0 -530.5 218.5t-200.5 525.5z" />
<glyph unicode="D" horiz-adv-x="1392" d="M195 0v1434h372q172 0 315.5 -60.5t235.5 -162t142.5 -229.5t50.5 -265t-50.5 -265t-142.5 -229.5t-235.5 -162t-315.5 -60.5h-372zM236 41h331q215 0 379 98.5t244 251t80 326.5t-80 326.5t-244 251t-379 98.5h-331v-1352z" />
<glyph unicode="E" horiz-adv-x="1124" d="M195 0v1434h776v-41h-735v-660h735v-41h-735v-651h735v-41h-776z" />
<glyph unicode="F" horiz-adv-x="1103" d="M195 0v1434h776v-41h-735v-705h735v-41h-735v-647h-41z" />
<glyph unicode="G" horiz-adv-x="1669" d="M92 717q0 328 191.5 535.5t517.5 207.5q219 0 382 -102.5t220 -276.5h-43q-55 156 -205.5 247t-353.5 91q-309 0 -488.5 -195.5t-179.5 -506.5q0 -301 182.5 -502t505.5 -201q272 0 422 155t176 417h-559v41h758v-41h-156q-27 -283 -188.5 -448t-452.5 -165 q-342 0 -535.5 213t-193.5 531z" />
<glyph unicode="H" horiz-adv-x="1359" d="M195 0v1434h41v-701h888v701h41v-1434h-41v692h-888v-692h-41z" />
<glyph unicode="I" horiz-adv-x="430" d="M195 0v1434h41v-1434h-41z" />
<glyph unicode="J" horiz-adv-x="1099" d="M61 420h41q0 -197 122 -301.5t300 -104.5q174 0 282.5 112t108.5 314v994h41v-994q0 -221 -119.5 -344t-312.5 -123q-197 0 -330 116t-133 331z" />
<glyph unicode="K" horiz-adv-x="1153" d="M195 0v1434h41v-1434h-41zM236 717l802 717h64l-811 -717l811 -717h-66z" />
<glyph unicode="L" horiz-adv-x="1042" d="M195 0v1434h41v-1393h714v-41h-755z" />
<glyph unicode="M" horiz-adv-x="1660" d="M195 0v1434h43l591 -1385l594 1385h43v-1434h-41v1337l-573 -1337h-43l-573 1337v-1337h-41z" />
<glyph unicode="N" horiz-adv-x="1357" d="M195 0v1434h49l878 -1371v1371h41v-1434h-49l-878 1370v-1370h-41z" />
<glyph unicode="O" horiz-adv-x="1650" d="M92 716.5q0 194.5 86 362.5t256 274.5t391.5 106.5t391 -106.5t256 -274.5t86.5 -362.5t-86.5 -362.5t-256 -274.5t-391 -106.5t-391.5 106.5t-256 274.5t-86 362.5zM133 717q0 -287 190.5 -495t502 -208t502 208t190.5 495t-190.5 494.5t-502 207.5t-502 -207.5 t-190.5 -494.5z" />
<glyph unicode="P" horiz-adv-x="1169" d="M195 0v1434h471q197 0 324.5 -135.5t127.5 -340t-129 -340t-323 -135.5h-430v-483h-41zM236 524h430q178 0 294.5 123t116.5 311.5t-116.5 311.5t-294.5 123h-430v-869z" />
<glyph unicode="Q" horiz-adv-x="1650" d="M92 716.5q0 194.5 86 362.5t256 274.5t391.5 106.5t391 -106.5t256 -274t86.5 -362.5q0 -186 -80 -349t-237 -271.5t-361 -121.5l196 -247l-37 -19l-204 264h-11q-221 0 -391 106.5t-256 274.5t-86 362.5zM133 717q0 -287 190.5 -495t502 -208t502 208t190.5 495 t-190.5 494.5t-502 207.5t-502 -207.5t-190.5 -494.5z" />
<glyph unicode="R" horiz-adv-x="1230" d="M195 0v1434h471q197 0 324.5 -135.5t127.5 -340.5q0 -174 -94 -298.5t-246 -161.5l326 -498h-51l-318 487q-45 -4 -69 -4h-430v-483h-41zM236 524h430q178 0 294.5 123t116.5 311.5t-116.5 311.5t-294.5 123h-430v-869z" />
<glyph unicode="S" horiz-adv-x="1167" d="M102 420h41q0 -182 126 -294t335 -112q193 0 301.5 92.5t108.5 251.5q0 129 -75 213t-208 107l-250 53q-170 31 -252 120t-82 245q0 164 119 264t314 100q205 0 322.5 -108.5t117.5 -302.5h-41q0 174 -106.5 272t-292.5 98q-174 0 -283 -90t-109 -233q0 -270 297 -324 l256 -53q150 -27 232 -120t82 -241q0 -180 -119 -282.5t-332 -102.5q-227 0 -364.5 123t-137.5 324z" />
<glyph unicode="T" horiz-adv-x="1001" d="M20 1393v41h961v-41h-461v-1393h-41v1393h-459z" />
<glyph unicode="U" horiz-adv-x="1269" d="M143 459v975h41v-975q0 -213 121 -329t330 -116t329.5 116t120.5 329v975h41v-975q0 -231 -132 -358.5t-359 -127.5t-359.5 127t-132.5 359z" />
<glyph unicode="V" horiz-adv-x="1101" d="M10 1434h43l498 -1381l498 1381h43l-519 -1434h-43z" />
<glyph unicode="W" horiz-adv-x="1869" d="M20 1434h43l453 -1379l397 1379h43l398 -1379l452 1379h43l-475 -1434h-43l-397 1374l-395 -1374h-43z" />
<glyph unicode="X" horiz-adv-x="1163" d="M72 0l485 717l-485 717h47l463 -682l462 682h48l-488 -717l488 -717h-48l-462 680l-463 -680h-47z" />
<glyph unicode="Y" horiz-adv-x="1071" d="M10 1434h49l531 -832l436 832h45l-752 -1434h-47l295 559z" />
<glyph unicode="Z" horiz-adv-x="1124" d="M61 0l873 1393h-830v41h908l-873 -1393h914v-41h-992z" />
<glyph unicode="[" horiz-adv-x="567" d="M195 -395v1896h372v-43h-331v-1812h331v-41h-372z" />
<glyph unicode="\" horiz-adv-x="821" d="M41 1522l37 16l702 -1628l-37 -16z" />
<glyph unicode="]" horiz-adv-x="567" d="M0 -354h332v1812h-332v43h373v-1896h-373v41z" />
<glyph unicode="^" horiz-adv-x="1040" d="M102 621l396 833h41l399 -833h-47l-373 786l-368 -786h-48z" />
<glyph unicode="_" horiz-adv-x="1024" d="M0 -410h1024v-41h-1024v41z" />
<glyph unicode="`" horiz-adv-x="1228" d="M2 1341l21 37l509 -280l-20 -37z" />
<glyph unicode="a" d="M92 453q0 209 128 346t335 137q158 0 269.5 -83t156.5 -220v278h41v-911h-41v272q-47 -133 -158.5 -215t-267.5 -82q-207 0 -335 135.5t-128 342.5zM133 453q0 -188 117 -312.5t305 -124.5q190 0 310 128t120 309q0 184 -120 313t-310 129q-188 0 -305 -125t-117 -317z " />
<glyph unicode="b" d="M184 0v1434h41v-801q49 143 161.5 223t266.5 80q199 0 330 -137t131 -346q0 -205 -131 -341.5t-330 -136.5q-150 0 -264.5 79t-163.5 218v-272h-41zM221 453q0 -186 124 -311.5t308 -125.5q180 0 300 124t120 313q0 190 -119.5 316t-300.5 126q-186 0 -309 -126 t-123 -316z" />
<glyph unicode="c" horiz-adv-x="1042" d="M92 455q0 211 125 343t328 132q168 0 276.5 -84t128.5 -228h-43q-20 129 -118.5 200t-245.5 71q-186 0 -298 -120t-112 -314.5t111.5 -314.5t298.5 -120q147 0 245.5 71t118.5 200h43q-20 -143 -128.5 -227t-276.5 -84q-203 0 -328 132t-125 343z" />
<glyph unicode="d" d="M92 453q0 209 128 346t335 137q158 0 269.5 -83t156.5 -220v801h41v-1434h-41v272q-47 -133 -158.5 -215t-267.5 -82q-207 0 -335 135.5t-128 342.5zM133 453q0 -188 117 -312.5t305 -124.5q190 0 310 128t120 309q0 184 -120 313t-310 129q-188 0 -305 -125t-117 -317z " />
<glyph unicode="e" horiz-adv-x="1030" d="M92 459q0 215 119 346t309 131q184 0 301 -118t117 -296q0 -43 -2 -55h-799v-10q0 -197 107.5 -319t281.5 -122q127 0 224.5 63.5t132.5 168.5h41q-33 -123 -141.5 -198t-254.5 -75q-197 0 -316.5 133.5t-119.5 350.5zM139 508h758q0 168 -102.5 277.5t-272.5 109.5 q-162 0 -265 -106.5t-118 -280.5z" />
<glyph unicode="f" horiz-adv-x="657" d="M51 870v41h217v236q0 174 65.5 236.5t168.5 62.5q74 0 125 -31v-43q-53 33 -125 33q-86 0 -139.5 -50t-53.5 -200v-244h318v-41h-318v-870h-41v870h-217z" />
<glyph unicode="g" d="M92 453q0 209 132 346t331 137q152 0 264.5 -80t161.5 -223v276h41v-936q0 -227 -143 -348q-119 -100 -316 -100q-213 0 -334 104q-104 88 -104 219h41q0 -117 105.5 -199.5t291.5 -82.5q201 0 309.5 108.5t108.5 298.5v299q-49 -139 -161.5 -218t-264.5 -79 q-199 0 -331 136.5t-132 341.5zM133 453q0 -188 121 -312.5t301 -124.5q184 0 307 125t123 312q0 190 -122 316t-308 126q-182 0 -302 -126t-120 -316z" />
<glyph unicode="h" horiz-adv-x="1157" d="M195 0v1434h41v-818q23 141 122 230.5t265 89.5q178 0 269 -106.5t91 -305.5v-524h-41v522q0 178 -84 275.5t-240 97.5q-190 0 -286 -130t-96 -339v-426h-41z" />
<glyph unicode="i" horiz-adv-x="409" d="M184 0v911h41v-911h-41zM184 1116v211h41v-211h-41z" />
<glyph unicode="j" horiz-adv-x="415" d="M-98 -389q57 -33 129 -33q74 0 116.5 57.5t42.5 157.5v1118h41v-1118q0 -119 -54 -187.5t-146 -68.5q-74 0 -129 27v47zM190 1116v211h41v-211h-41z" />
<glyph unicode="k" horiz-adv-x="954" d="M184 0v1434h41v-1434h-41zM225 457l594 454h64l-592 -452l592 -459h-64z" />
<glyph unicode="l" horiz-adv-x="409" d="M184 0v1434h41v-1434h-41z" />
<glyph unicode="m" horiz-adv-x="1701" d="M184 0v911h41v-286q18 129 98 220t234 91q119 0 205 -72.5t102 -226.5q23 127 115 213t225 86q137 0 230.5 -80t93.5 -278v-578h-39v565q0 172 -80 251t-209 79q-156 0 -239.5 -129t-83.5 -317v-449h-41v510q0 385 -291 385q-113 0 -187.5 -71.5t-103.5 -167t-29 -207.5 v-449h-41z" />
<glyph unicode="n" horiz-adv-x="1146" d="M184 0v911h41v-295q23 141 122 230.5t265 89.5q178 0 269.5 -106.5t91.5 -305.5v-524h-41v522q0 178 -84 275.5t-240 97.5q-190 0 -286.5 -130t-96.5 -339v-426h-41z" />
<glyph unicode="o" horiz-adv-x="1097" d="M92 456.5q0 202.5 126 342t331 139.5t331 -139.5t126 -342t-126 -342t-331 -139.5t-331 139.5t-126 342zM133 455q0 -182 114.5 -309.5t301 -127.5t301.5 127t115 311.5t-115 311.5t-301.5 127t-301 -128t-114.5 -312z" />
<glyph unicode="p" d="M184 -451v1362h41v-278q49 143 161.5 223t266.5 80q199 0 330 -137t131 -346q0 -205 -131 -341.5t-330 -136.5q-150 0 -264.5 79t-163.5 218v-723h-41zM221 453q0 -186 124 -311.5t308 -125.5q180 0 300 124t120 313q0 190 -119.5 316t-300.5 126q-186 0 -309 -126 t-123 -316z" />
<glyph unicode="q" d="M92 453q0 209 128 346t335 137q158 0 269.5 -83t156.5 -220v278h41v-1362h-41v723q-47 -133 -158.5 -215t-267.5 -82q-207 0 -335 135.5t-128 342.5zM133 453q0 -188 117 -312.5t305 -124.5q190 0 310 128t120 309q0 184 -120 313t-310 129q-188 0 -305 -125t-117 -317z " />
<glyph unicode="r" horiz-adv-x="704" d="M184 0v911h41v-307q35 168 128 250t220 82q43 0 80 -8v-41q-31 8 -88 8q-96 0 -166.5 -51t-106.5 -134t-51.5 -164t-15.5 -161v-385h-41z" />
<glyph unicode="s" horiz-adv-x="874" d="M92 254h41q0 -100 81 -169t230 -69q129 0 208 53.5t79 151.5q0 68 -38 121t-111 72l-275 63q-190 45 -190 221q0 113 88 175.5t227 62.5q147 0 233.5 -65.5t86.5 -182.5h-41q-2 94 -78 150.5t-207 56.5q-119 0 -193.5 -50t-74.5 -151q0 -139 176 -180l260 -61 q178 -41 178 -226q0 -123 -89 -187.5t-234 -64.5q-168 0 -262.5 81t-94.5 198z" />
<glyph unicode="t" horiz-adv-x="667" d="M41 870v41h199v332h39v-332h296v-41h-296v-585q0 -152 51 -204t139 -52q80 0 137 18v-41q-49 -18 -137 -18q-109 0 -169 59t-60 238v585h-199z" />
<glyph unicode="u" horiz-adv-x="1155" d="M174 385v526h41v-522q0 -166 84 -268.5t254 -102.5q125 0 214 74t126 171t37 198v450h41v-911h-41v289q-29 -129 -132.5 -221.5t-250.5 -92.5q-170 0 -271.5 105.5t-101.5 304.5z" />
<glyph unicode="v" horiz-adv-x="929" d="M20 911h46l399 -858l399 858h45l-424 -911h-41z" />
<glyph unicode="w" horiz-adv-x="1409" d="M31 911h43l311 -862l297 862h43l295 -862l315 862h43l-338 -911h-41l-297 858l-294 -858h-39z" />
<glyph unicode="x" horiz-adv-x="901" d="M61 0l363 455l-363 456h48l340 -424l342 424h49l-365 -456l365 -455h-49l-342 424l-340 -424h-48z" />
<glyph unicode="y" horiz-adv-x="1163" d="M174 -152h41q0 -119 87 -200.5t273 -81.5q362 0 363 377v338q-35 -127 -135.5 -214t-251.5 -87q-203 0 -290 106.5t-87 321.5v503h39v-499q0 -197 76 -293t266 -96q180 0 281.5 134t101.5 294v460h41v-968q0 -236 -137 -340q-100 -78 -267 -78q-190 0 -299 92 q-102 86 -102 231z" />
<glyph unicode="z" horiz-adv-x="880" d="M72 0l663 870h-633v41h719l-667 -870h675v-41h-757z" />
<glyph unicode="{" horiz-adv-x="614" d="M61 532v41q61 0 125 54.5t64 146.5v445q0 135 79 209.5t181 74.5h84v-41h-84q-92 0 -155.5 -63.5t-63.5 -179.5v-445q0 -84 -47 -140t-113 -81q66 -25 113 -81t47 -140v-445q0 -117 63.5 -180t155.5 -63h84v-41h-84q-102 0 -181 74.5t-79 209.5v445q0 92 -63.5 146 t-125.5 54z" />
<glyph unicode="|" horiz-adv-x="430" d="M195 -395v1896h41v-1896h-41z" />
<glyph unicode="}" horiz-adv-x="614" d="M20 -356h84q92 0 156 63.5t64 179.5v445q0 84 47 140t112 81q-66 25 -112.5 81t-46.5 140v445q0 117 -63.5 180t-156.5 63h-84v41h84q102 0 181.5 -74.5t79.5 -209.5v-445q0 -92 63.5 -146.5t124.5 -54.5v-41q-61 0 -124.5 -54t-63.5 -146v-445q0 -135 -79.5 -209.5 t-181.5 -74.5h-84v41z" />
<glyph unicode="~" horiz-adv-x="1087" d="M102 567v56q84 84 195 84q84 0 242 -66q14 -6 46.5 -19.5t50 -20.5t43.5 -16.5t45 -13.5t36 -4q109 0 225 109v-51q-114 -99 -225 -99q-55 0 -238 78q-141 61 -225 62q-111 0 -195 -99z" />
<glyph unicode="&#xa1;" horiz-adv-x="464" d="M207 -451v1080h41v-1080h-41zM207 772v211h41v-211h-41z" />
<glyph unicode="&#xa2;" horiz-adv-x="1042" d="M92 698.5q0 202.5 117 334.5t309 141v219h41v-219q162 -4 266.5 -88.5t124.5 -223.5h-43q-20 129 -118.5 200t-245.5 71q-186 0 -298 -120t-112 -314.5t112 -314.5t298 -120q147 0 245.5 71t118.5 200h43q-20 -139 -124.5 -223.5t-266.5 -88.5v-223h-41v223 q-193 8 -309.5 140.5t-116.5 335z" />
<glyph unicode="&#xa3;" horiz-adv-x="1054" d="M82 760v41h158v176q0 209 104.5 324.5t300.5 115.5q180 0 284.5 -102.5t104.5 -267.5h-41q0 150 -92 239.5t-256 89.5q-193 0 -278.5 -108.5t-85.5 -321.5v-145h446v-41h-446v-330q0 -141 -36 -227t-110 -162h828v-41h-877v41q80 78 117 160t37 229v330h-158z" />
<glyph unicode="&#xa4;" horiz-adv-x="1169" d="M92 299l158 158q-111 123 -111 301q0 176 111 303l-158 158l29 28l158 -157q123 117 307 116.5t309 -112.5l154 153l28 -28l-153 -154q115 -127 114.5 -307t-114.5 -305l153 -154l-28 -29l-154 154q-125 -113 -309.5 -113t-306.5 117l-158 -158zM180 758q0 -170 113 -288 t293 -118q184 0 297.5 118t113.5 288t-113.5 288.5t-297.5 118.5q-180 0 -293 -118.5t-113 -288.5z" />
<glyph unicode="&#xa5;" horiz-adv-x="1056" d="M51 1393h49l428 -811l428 811h50l-449 -846h363v-37h-369v-250h369v-41h-369v-219h-45v219h-369v41h369v250h-369v37h363z" />
<glyph unicode="&#xa6;" horiz-adv-x="430" d="M195 -395v887h41v-887h-41zM195 655v846h41v-846h-41z" />
<glyph unicode="&#xa7;" horiz-adv-x="1060" d="M102 510q0 115 74 192.5t195 108.5q-123 47 -191.5 123t-68.5 203q0 162 111.5 246.5t299.5 84.5q209 0 318.5 -97t109.5 -255h-49q0 141 -94 226t-281 85q-168 0 -267 -71.5t-99 -214.5q0 -92 44 -157.5t114.5 -101.5t155.5 -61.5t170 -50.5t155.5 -56.5t114.5 -91 t44 -143.5q0 -113 -70.5 -192.5t-176.5 -114.5q113 -49 176 -122t63 -193q0 -160 -110.5 -242t-300.5 -82q-209 0 -318.5 94t-109.5 248h41q0 -137 96 -219t291 -82q168 0 265 69.5t97 211.5q0 104 -59.5 174.5t-147.5 101.5t-192.5 62.5t-192.5 60.5t-147.5 93.5 t-59.5 162.5zM143 514q0 -63 29 -108.5t89.5 -77t113.5 -50t143 -43t139 -42.5q119 35 190 110.5t71 171.5q0 51 -23 92t-53.5 66.5t-87 50.5t-100.5 38t-115.5 33.5t-112.5 35.5q-141 -33 -212 -108t-71 -169z" />
<glyph unicode="&#xa8;" horiz-adv-x="1228" d="M233 1116v211h41v-211h-41zM627 1116v211h41v-211h-41z" />
<glyph unicode="&#xa9;" horiz-adv-x="1646" d="M92 716.5q0 321.5 200 536.5t531.5 215t531 -215t199.5 -536.5t-199.5 -536.5t-531 -215t-531.5 215t-200 536.5zM133 717q0 -301 188.5 -506t502 -205t501.5 205t188 506t-188 505.5t-501.5 204.5t-502 -204.5t-188.5 -505.5zM383 716.5q0 186.5 119 316.5t323 130 q158 0 257.5 -72.5t123.5 -193.5h-43q-25 100 -113.5 162.5t-224.5 62.5q-186 0 -293.5 -117.5t-107.5 -287.5t107.5 -288t293.5 -118q135 0 224.5 61.5t113.5 159.5h43q-27 -117 -125 -189.5t-256 -72.5q-205 0 -323.5 130t-118.5 316.5z" />
<glyph unicode="&#xaa;" horiz-adv-x="737" d="M57 1081q0 117 78 198t203 81q186 0 250 -164v150h39v-525h-39v146q-29 -74 -93.5 -117t-156.5 -43q-125 0 -203 80t-78 194zM94 1081q0 -98 68.5 -168.5t177.5 -70.5q111 0 180.5 70.5t69.5 168.5q0 100 -69.5 172t-180.5 72q-109 0 -177.5 -71.5t-68.5 -172.5z" />
<glyph unicode="&#xab;" horiz-adv-x="915" d="M20 535l414 370l31 -28l-379 -342l379 -342l-31 -29zM420 535l414 370l30 -28l-379 -342l379 -342l-30 -29z" />
<glyph unicode="&#xac;" horiz-adv-x="1032" d="M123 745v41h786v-323h-41v282h-745z" />
<glyph unicode="&#xad;" horiz-adv-x="847" d="M123 502v41h602v-41h-602z" />
<glyph unicode="&#xae;" horiz-adv-x="1159" d="M92 967q0 215 133 358t354.5 143t354.5 -143t133 -358t-133 -357.5t-354.5 -142.5t-354.5 142.5t-133 357.5zM119 966.5q0 -200.5 127 -336.5t333.5 -136t333.5 136t127 336.5t-126 338t-334.5 137.5t-334.5 -137.5t-126 -338zM416 688v578h190q80 0 130 -53.5t50 -129.5 q0 -66 -40.5 -114.5t-106.5 -59.5l145 -221h-34l-144 219h-162v-219h-28zM444 936h162q68 0 110 43t42 104q0 66 -42 110t-110 44h-162v-301z" />
<glyph unicode="&#xaf;" horiz-adv-x="1228" d="M190 1133v41h650v-41h-650z" />
<glyph unicode="&#xb0;" horiz-adv-x="749" d="M82 1124q0 125 83 209t210 84t210 -84t83 -209t-83 -209t-210 -84t-210 84t-83 209zM123 1124.5q0 -106.5 70.5 -179.5t181 -73t181.5 73t71 179.5t-71 179t-181.5 72.5t-181 -72.5t-70.5 -179z" />
<glyph unicode="&#xb1;" horiz-adv-x="1032" d="M123 362v39h786v-39h-786zM123 795v41h373v272h41v-272h372v-41h-372v-269h-41v269h-373z" />
<glyph unicode="&#xb2;" horiz-adv-x="739" d="M98 819q0 137 46 211t167 127l142 64q141 63 141 204q0 78 -56.5 127.5t-146.5 49.5q-106 0 -169.5 -61.5t-63.5 -166.5h-39q0 119 74.5 191.5t197.5 72.5q109 0 176.5 -58t67.5 -153q0 -164 -162 -235l-143 -64q-100 -45 -144.5 -108.5t-46.5 -163.5h502v-37h-543z" />
<glyph unicode="&#xb3;" horiz-adv-x="757" d="M106 1036h41q0 -88 62.5 -141t169.5 -53q104 0 167.5 52t63.5 138q0 84 -60.5 135.5t-162.5 51.5h-70v32h68q98 0 155.5 48.5t57.5 128t-59.5 128t-155.5 48.5q-100 0 -160.5 -50.5t-60.5 -130.5h-41q0 96 71.5 155.5t190.5 59.5q115 0 185.5 -58t70.5 -153 q0 -78 -48 -128t-136 -64q80 -2 137 -61.5t57 -143.5q0 -100 -73.5 -160.5t-196.5 -60.5q-125 0 -199 62.5t-74 164.5z" />
<glyph unicode="&#xb4;" horiz-adv-x="1228" d="M2 1098l510 280l20 -37l-509 -280z" />
<glyph unicode="&#xb5;" horiz-adv-x="1165" d="M184 -451v1362h41v-522q0 -166 84 -268.5t254 -102.5q125 0 214 74t126 171t37 198v450h41v-911h-41v289q-29 -129 -132 -221.5t-251 -92.5q-242 0 -332 197v-623h-41z" />
<glyph unicode="&#xb6;" horiz-adv-x="1228" d="M31 1065q0 102 36.5 179t90 119t128 66.5t133 31.5t122.5 7h575v-41h-108v-1730h-41v1728h-453v-1728h-41v977q-199 0 -320.5 99t-121.5 292zM72 1065q0 -162 109.5 -251t291.5 -99v710q-72 -6 -135.5 -23.5t-127 -54t-101 -109.5t-37.5 -173z" />
<glyph unicode="&#xb7;" horiz-adv-x="450" d="M205 535v210h41v-210h-41z" />
<glyph unicode="&#xb8;" horiz-adv-x="1228" d="M131 -303h43q4 -41 34 -67.5t79 -26.5q59 0 92 34.5t33 96.5q0 57 -31 93t-90 36q-78 0 -115 -66h-35v203h41v-152q31 55 121 56q68 0 111 -48.5t43 -121.5q0 -76 -47 -124t-125 -48q-66 0 -109 39t-45 96z" />
<glyph unicode="&#xb9;" horiz-adv-x="475" d="M86 1458v31q90 0 122 28.5t32 108.5h30v-807h-32v680q-47 -41 -152 -41z" />
<glyph unicode="&#xba;" horiz-adv-x="675" d="M59 1083.5q0 116.5 77 196.5t202 80t202.5 -80t77.5 -196.5t-77.5 -196.5t-202.5 -80t-202 80t-77 196.5zM94 1083.5q0 -100.5 67.5 -170t176 -69.5t175.5 69.5t67 169.5q0 102 -67 172t-175.5 70t-176 -70.5t-67.5 -171z" />
<glyph unicode="&#xbb;" horiz-adv-x="915" d="M51 193l379 342l-379 342l31 28l414 -370l-414 -371zM451 193l378 342l-378 342l30 28l414 -370l-414 -371z" />
<glyph unicode="&#xbc;" horiz-adv-x="1482" d="M86 1225v30q90 0 122 29t32 109h30v-807h-32v678q-45 -39 -152 -39zM106 12l967 1397l35 -20l-967 -1397zM860 291v516h39v-479h313v268h39v-268h160v-37h-160v-293h-39v293h-352z" />
<glyph unicode="&#xbd;" horiz-adv-x="1437" d="M86 1225v30q90 0 122 29t32 109h30v-807h-32v678q-45 -39 -152 -39zM106 12l967 1397l35 -20l-967 -1397zM797 0q0 137 46 211t167 127l141 63q141 63 141 205q0 78 -56 127t-146 49q-106 0 -170 -61.5t-64 -165.5h-39q0 119 75 191.5t198 72.5q109 0 176 -58.5 t67 -152.5q0 -164 -162 -235l-143 -64q-100 -45 -144 -108.5t-46 -163.5h501v-37h-542z" />
<glyph unicode="&#xbe;" horiz-adv-x="1714" d="M106 803h41q0 -88 62.5 -141.5t169.5 -53.5q104 0 167.5 52.5t63.5 138.5q0 84 -60.5 135t-162.5 51h-70v33h68q98 0 155.5 48t57.5 128t-59.5 128t-155.5 48q-100 0 -160.5 -50t-60.5 -130h-41q0 96 71.5 155.5t190.5 59.5q115 0 185.5 -58.5t70.5 -152.5 q0 -78 -48 -128t-136 -65q80 -2 137 -61t57 -143q0 -100 -73.5 -161t-196.5 -61q-125 0 -199 62.5t-74 165.5zM338 12l967 1397l34 -20l-966 -1397zM1092 291v516h38v-479h314v268h39v-268h159v-37h-159v-293h-39v293h-352z" />
<glyph unicode="&#xbf;" horiz-adv-x="997" d="M82 -121q0 82 22.5 146.5t65.5 107.5t72.5 63.5t76.5 45.5q76 41 114 70.5t68.5 98t30.5 173.5h41q0 -115 -33.5 -191t-76.5 -110.5t-125 -77.5q-43 -25 -69.5 -42.5t-65.5 -56t-59.5 -96t-20.5 -131.5q0 -156 96 -243t283 -87q188 0 300.5 117t112.5 291h41 q0 -193 -124.5 -321t-329.5 -128t-312.5 97.5t-107.5 273.5zM532 758v211h41v-211h-41z" />
<glyph unicode="&#xc0;" horiz-adv-x="1128" d="M51 0l492 1434h43l491 -1434h-43l-112 332h-715l-113 -332h-43zM221 373h686l-344 1011zM299 1776l20 36l510 -280l-20 -37z" />
<glyph unicode="&#xc1;" horiz-adv-x="1128" d="M51 0l492 1434h43l491 -1434h-43l-112 332h-715l-113 -332h-43zM221 373h686l-344 1011zM299 1532l510 280l20 -36l-510 -281z" />
<glyph unicode="&#xc2;" horiz-adv-x="1128" d="M51 0l492 1434h43l491 -1434h-43l-112 332h-715l-113 -332h-43zM221 373h686l-344 1011zM324 1550l241 219l242 -219l-27 -30l-215 194l-215 -194z" />
<glyph unicode="&#xc3;" horiz-adv-x="1128" d="M51 0l492 1434h43l491 -1434h-43l-112 332h-715l-113 -332h-43zM221 373h686l-344 1011zM223 1614q80 131 201 131q45 0 151.5 -60.5t147.5 -60.5q94 0 151 107l33 -19q-74 -129 -184 -129q-57 0 -157.5 60.5t-147.5 60.5q-98 0 -164 -113z" />
<glyph unicode="&#xc4;" horiz-adv-x="1128" d="M51 0l492 1434h43l491 -1434h-43l-112 332h-715l-113 -332h-43zM221 373h686l-344 1011zM307 1546v211h41v-211h-41zM780 1546v211h41v-211h-41z" />
<glyph unicode="&#xc5;" horiz-adv-x="1128" d="M51 0l479 1395q-82 14 -135 76.5t-53 144.5q0 94 64.5 158.5t158.5 64.5t158.5 -65.5t64.5 -157.5q0 -82 -54 -145.5t-136 -75.5l479 -1395h-43l-112 332h-715l-113 -332h-43zM221 373h686l-344 1011zM383 1616q0 -76 53 -129t129 -53t129.5 53t53.5 129t-52.5 129 t-130.5 53t-130 -53t-52 -129z" />
<glyph unicode="&#xc6;" horiz-adv-x="1585" d="M41 0l737 1434h654v-41h-613v-660h613v-41h-613v-651h613v-41h-654v332h-522l-170 -332h-45zM276 373h502v975z" />
<glyph unicode="&#xc7;" horiz-adv-x="1587" d="M92 717q0 307 201 525t530 218q264 0 430 -119.5t232 -318.5h-43q-63 182 -218 289.5t-401 107.5q-313 0 -501.5 -205.5t-188.5 -496.5t188.5 -497t501.5 -206q246 0 400.5 107.5t218.5 290.5h43q-63 -197 -225 -316t-418 -123v-125q31 55 121 56q68 0 110.5 -48.5 t42.5 -121.5q0 -76 -47 -124t-125 -48q-66 0 -108.5 39t-44.5 96h43q4 -41 33.5 -67.5t78.5 -26.5q59 0 92 34.5t33 96.5q0 57 -30.5 93t-90.5 36q-78 0 -114 -66h-35v176q-319 8 -514 225.5t-195 518.5z" />
<glyph unicode="&#xc8;" horiz-adv-x="1124" d="M195 0v1434h776v-41h-735v-660h735v-41h-735v-651h735v-41h-776zM334 1776l20 36l510 -280l-20 -37z" />
<glyph unicode="&#xc9;" horiz-adv-x="1124" d="M195 0v1434h776v-41h-735v-660h735v-41h-735v-651h735v-41h-776zM334 1532l510 280l20 -36l-510 -281z" />
<glyph unicode="&#xca;" horiz-adv-x="1124" d="M195 0v1434h776v-41h-735v-660h735v-41h-735v-651h735v-41h-776zM358 1550l242 219l242 -219l-27 -30l-215 194l-215 -194z" />
<glyph unicode="&#xcb;" horiz-adv-x="1124" d="M195 0v1434h776v-41h-735v-660h735v-41h-735v-651h735v-41h-776zM342 1546v211h41v-211h-41zM815 1546v211h41v-211h-41z" />
<glyph unicode="&#xcc;" horiz-adv-x="430" d="M72 1710l20 37l264 -158l-20 -37zM195 0v1434h41v-1434h-41z" />
<glyph unicode="&#xcd;" horiz-adv-x="430" d="M72 1589l264 158l20 -37l-264 -158zM195 0v1434h41v-1434h-41z" />
<glyph unicode="&#xce;" horiz-adv-x="430" d="M20 1585l193 180l197 -180l-33 -33l-164 154l-162 -154zM195 0v1434h41v-1434h-41z" />
<glyph unicode="&#xcf;" horiz-adv-x="430" d="M98 1546v211h41v-211h-41zM195 0v1434h41v-1434h-41zM291 1546v211h41v-211h-41z" />
<glyph unicode="&#xd0;" horiz-adv-x="1392" d="M27 707v41h168v686h372q172 0 315.5 -60.5t235.5 -162t142.5 -229.5t50.5 -265t-50.5 -265t-142.5 -229.5t-235.5 -162t-315.5 -60.5h-372v707h-168zM236 41h331q215 0 379 98.5t244 251t80 326.5t-80 326.5t-244 251t-379 98.5h-331v-645h337v-41h-337v-666z" />
<glyph unicode="&#xd1;" horiz-adv-x="1357" d="M195 0v1434h49l878 -1371v1371h41v-1434h-49l-878 1370v-1370h-41zM338 1614q80 131 201 131q45 0 151.5 -60.5t147.5 -60.5q94 0 151 107l33 -19q-73 -129 -184 -129q-57 0 -157.5 60.5t-148.5 60.5q-98 0 -163 -113z" />
<glyph unicode="&#xd2;" horiz-adv-x="1650" d="M92 716.5q0 194.5 86 362.5t256 274.5t391.5 106.5t391 -106.5t256 -274.5t86.5 -362.5t-86.5 -362.5t-256 -274.5t-391 -106.5t-391.5 106.5t-256 274.5t-86 362.5zM133 717q0 -287 190.5 -495t502 -208t502 208t190.5 495t-190.5 494.5t-502 207.5t-502 -207.5 t-190.5 -494.5zM559 1776l21 36l510 -280l-21 -37z" />
<glyph unicode="&#xd3;" horiz-adv-x="1650" d="M92 716.5q0 194.5 86 362.5t256 274.5t391.5 106.5t391 -106.5t256 -274.5t86.5 -362.5t-86.5 -362.5t-256 -274.5t-391 -106.5t-391.5 106.5t-256 274.5t-86 362.5zM133 717q0 -287 190.5 -495t502 -208t502 208t190.5 495t-190.5 494.5t-502 207.5t-502 -207.5 t-190.5 -494.5zM559 1532l510 280l21 -36l-510 -281z" />
<glyph unicode="&#xd4;" horiz-adv-x="1650" d="M92 716.5q0 194.5 86 362.5t256 274.5t391.5 106.5t391 -106.5t256 -274.5t86.5 -362.5t-86.5 -362.5t-256 -274.5t-391 -106.5t-391.5 106.5t-256 274.5t-86 362.5zM133 717q0 -287 190.5 -495t502 -208t502 208t190.5 495t-190.5 494.5t-502 207.5t-502 -207.5 t-190.5 -494.5zM584 1550l241 219l242 -219l-27 -30l-215 194l-215 -194z" />
<glyph unicode="&#xd5;" horiz-adv-x="1650" d="M92 716.5q0 194.5 86 362.5t256 274.5t391.5 106.5t391 -106.5t256 -274.5t86.5 -362.5t-86.5 -362.5t-256 -274.5t-391 -106.5t-391.5 106.5t-256 274.5t-86 362.5zM133 717q0 -287 190.5 -495t502 -208t502 208t190.5 495t-190.5 494.5t-502 207.5t-502 -207.5 t-190.5 -494.5zM483 1614q80 131 201 131q45 0 151.5 -60.5t147.5 -60.5q94 0 152 107l32 -19q-73 -129 -184 -129q-57 0 -157.5 60.5t-147.5 60.5q-98 0 -164 -113z" />
<glyph unicode="&#xd6;" horiz-adv-x="1650" d="M92 716.5q0 194.5 86 362.5t256 274.5t391.5 106.5t391 -106.5t256 -274.5t86.5 -362.5t-86.5 -362.5t-256 -274.5t-391 -106.5t-391.5 106.5t-256 274.5t-86 362.5zM133 717q0 -287 190.5 -495t502 -208t502 208t190.5 495t-190.5 494.5t-502 207.5t-502 -207.5 t-190.5 -494.5zM567 1546v211h41v-211h-41zM1040 1546v211h41v-211h-41z" />
<glyph unicode="&#xd7;" horiz-adv-x="942" d="M123 324l319 319l-319 322l29 28l319 -319l320 319l28 -28l-319 -322l319 -319l-31 -27l-317 317l-317 -317z" />
<glyph unicode="&#xd8;" horiz-adv-x="1650" d="M92 717q0 195 86 362.5t256 274t391 106.5q133 0 262 -43l58 133l39 -14l-58 -135q203 -86 318 -273.5t115 -410.5q0 -195 -86.5 -363t-256 -274.5t-391.5 -106.5q-158 0 -288 54l-62 -144l-39 15l64 147q-193 90 -300.5 272.5t-107.5 399.5zM133 717q0 -203 101.5 -376 t281.5 -259l555 1296q-113 41 -246 41q-311 0 -501.5 -207.5t-190.5 -494.5zM553 66q125 -52 272 -52q311 0 502 208t191 495q0 211 -109 388t-299 259z" />
<glyph unicode="&#xd9;" horiz-adv-x="1269" d="M143 459v975h41v-975q0 -213 121 -329t330 -116t329.5 116t120.5 329v975h41v-975q0 -231 -132 -358.5t-359 -127.5t-359.5 127t-132.5 359zM369 1776l20 36l510 -280l-20 -37z" />
<glyph unicode="&#xda;" horiz-adv-x="1269" d="M143 459v975h41v-975q0 -213 121 -329t330 -116t329.5 116t120.5 329v975h41v-975q0 -231 -132 -358.5t-359 -127.5t-359.5 127t-132.5 359zM369 1532l510 280l20 -36l-510 -281z" />
<glyph unicode="&#xdb;" horiz-adv-x="1269" d="M143 459v975h41v-975q0 -213 121 -329t330 -116t329.5 116t120.5 329v975h41v-975q0 -231 -132 -358.5t-359 -127.5t-359.5 127t-132.5 359zM393 1550l242 219l242 -219l-27 -30l-215 194l-215 -194z" />
<glyph unicode="&#xdc;" horiz-adv-x="1269" d="M143 459v975h41v-975q0 -213 121 -329t330 -116t329.5 116t120.5 329v975h41v-975q0 -231 -132 -358.5t-359 -127.5t-359.5 127t-132.5 359zM377 1546v211h41v-211h-41zM850 1546v211h41v-211h-41z" />
<glyph unicode="&#xdd;" horiz-adv-x="1071" d="M10 1434h49l531 -832l436 832h45l-752 -1434h-47l295 559zM299 1532l510 280l20 -36l-510 -281z" />
<glyph unicode="&#xde;" horiz-adv-x="1169" d="M195 0v1434h41v-269h430q203 0 327.5 -130t124.5 -318q0 -186 -125 -316.5t-327 -130.5h-430v-270h-41zM236 311h430q184 0 297.5 118t113.5 288t-113.5 288.5t-297.5 118.5h-430v-813z" />
<glyph unicode="&#xdf;" horiz-adv-x="1150" d="M174 0v1047q0 174 109.5 293.5t298.5 119.5q195 0 303 -101.5t108 -271.5q0 -137 -85 -237t-236 -113q164 -18 260 -123.5t96 -248.5q0 -174 -124 -283t-329 -109q-102 0 -180 27v45q80 -31 180 -31q186 0 299 97.5t113 253.5q0 154 -114.5 253t-292.5 99h-115v41h113 q170 0 272 92t102 237q0 152 -97 242t-273 90q-170 0 -268.5 -108.5t-98.5 -263.5v-1047h-41z" />
<glyph unicode="&#xe0;" d="M92 453q0 209 128 346t335 137q158 0 269.5 -83t156.5 -220v278h41v-911h-41v272q-47 -133 -158.5 -215t-267.5 -82q-207 0 -335 135.5t-128 342.5zM133 453q0 -188 117 -312.5t305 -124.5q190 0 310 128t120 309q0 184 -120 313t-310 129q-188 0 -305 -125t-117 -317z M295 1335l20 37l510 -280l-20 -37z" />
<glyph unicode="&#xe1;" d="M92 453q0 209 128 346t335 137q158 0 269.5 -83t156.5 -220v278h41v-911h-41v272q-47 -133 -158.5 -215t-267.5 -82q-207 0 -335 135.5t-128 342.5zM133 453q0 -188 117 -312.5t305 -124.5q190 0 310 128t120 309q0 184 -120 313t-310 129q-188 0 -305 -125t-117 -317z M295 1098l510 280l20 -37l-510 -280z" />
<glyph unicode="&#xe2;" d="M92 453q0 209 128 346t335 137q158 0 269.5 -83t156.5 -220v278h41v-911h-41v272q-47 -133 -158.5 -215t-267.5 -82q-207 0 -335 135.5t-128 342.5zM133 453q0 -188 117 -312.5t305 -124.5q190 0 310 128t120 309q0 184 -120 313t-310 129q-188 0 -305 -125t-117 -317z M236 1073l325 297l330 -297l-27 -31l-303 273l-299 -273z" />
<glyph unicode="&#xe3;" d="M92 453q0 209 128 346t335 137q158 0 269.5 -83t156.5 -220v278h41v-911h-41v272q-47 -133 -158.5 -215t-267.5 -82q-207 0 -335 135.5t-128 342.5zM133 453q0 -188 117 -312.5t305 -124.5q190 0 310 128t120 309q0 184 -120 313t-310 129q-188 0 -305 -125t-117 -317z M219 1180q80 131 201 131q45 0 151.5 -60.5t147.5 -60.5q94 0 151 106l33 -18q-73 -129 -184 -129q-57 0 -157.5 60.5t-147.5 60.5q-98 0 -164 -113z" />
<glyph unicode="&#xe4;" d="M92 453q0 209 128 346t335 137q158 0 269.5 -83t156.5 -220v278h41v-911h-41v272q-47 -133 -158.5 -215t-267.5 -82q-207 0 -335 135.5t-128 342.5zM133 453q0 -188 117 -312.5t305 -124.5q190 0 310 128t120 309q0 184 -120 313t-310 129q-188 0 -305 -125t-117 -317z M344 1116v211h41v-211h-41zM737 1116v211h41v-211h-41z" />
<glyph unicode="&#xe5;" d="M92 453q0 209 128 346t335 137q158 0 269.5 -83t156.5 -220v278h41v-911h-41v272q-47 -133 -158.5 -215t-267.5 -82q-207 0 -335 135.5t-128 342.5zM133 453q0 -188 117 -312.5t305 -124.5q190 0 310 128t120 309q0 184 -120 313t-310 129q-188 0 -305 -125t-117 -317z M346 1218.5q0 94.5 62.5 156t152.5 61.5t152.5 -61.5t62.5 -156t-62.5 -156t-152.5 -61.5t-152.5 61.5t-62.5 156zM387 1218.5q0 -77.5 50 -127t124 -49.5t124 49.5t50 127t-50 127t-124 49.5t-124 -49.5t-50 -127z" />
<glyph unicode="&#xe6;" horiz-adv-x="1830" d="M102 227q0 139 103 207q113 74 352 74h336v74q0 147 -94 230t-267 83q-147 0 -247.5 -77t-108.5 -214h-41q4 152 113.5 242t283.5 90q172 0 273.5 -70.5t122.5 -203.5q47 129 151.5 201.5t249.5 72.5q174 0 292 -119t118 -295q0 -43 -2 -55h-803q0 -203 110.5 -327 t290.5 -124q123 0 218.5 63.5t129.5 168.5h41q-33 -123 -139 -198t-250 -75q-154 0 -264 82t-153 224q-94 -305 -469 -306q-156 0 -251.5 70t-95.5 182zM147 227q0 -102 87.5 -157.5t244.5 -55.5q184 0 299 107.5t115 279.5v66h-377q-369 0 -369 -240zM936 508h762 q0 168 -104.5 277.5t-266.5 109.5q-170 0 -276.5 -103.5t-114.5 -283.5z" />
<glyph unicode="&#xe7;" horiz-adv-x="1042" d="M92 455q0 211 125 343t328 132q168 0 276.5 -84t128.5 -228h-43q-20 129 -118.5 200t-245.5 71q-186 0 -298 -120t-112 -314.5t112 -314.5t298 -120q147 0 245.5 71t118.5 200h43q-20 -139 -123.5 -223t-265.5 -88v-132q31 55 121 56q68 0 111 -48.5t43 -121.5 q0 -76 -47.5 -124t-124.5 -48q-66 0 -109 39t-45 96h43q4 -41 33.5 -67.5t79.5 -26.5q59 0 92 34.5t33 96.5q0 57 -31 93t-90 36q-78 0 -115 -66h-35v183q-193 8 -310.5 139t-117.5 336z" />
<glyph unicode="&#xe8;" horiz-adv-x="1030" d="M92 459q0 215 119 346t309 131q184 0 301 -118t117 -296q0 -43 -2 -55h-799v-10q0 -197 107.5 -319t281.5 -122q127 0 224.5 63.5t132.5 168.5h41q-33 -123 -141.5 -198t-254.5 -75q-197 0 -316.5 133.5t-119.5 350.5zM139 508h758q0 168 -102.5 277.5t-272.5 109.5 q-162 0 -265 -106.5t-118 -280.5zM258 1333l21 37l509 -280l-20 -37z" />
<glyph unicode="&#xe9;" horiz-adv-x="1030" d="M92 459q0 215 119 346t309 131q184 0 301 -118t117 -296q0 -43 -2 -55h-799v-10q0 -197 107.5 -319t281.5 -122q127 0 224.5 63.5t132.5 168.5h41q-33 -123 -141.5 -198t-254.5 -75q-197 0 -316.5 133.5t-119.5 350.5zM139 508h758q0 168 -102.5 277.5t-272.5 109.5 q-162 0 -265 -106.5t-118 -280.5zM258 1096l510 280l20 -37l-509 -280z" />
<glyph unicode="&#xea;" horiz-adv-x="1030" d="M92 459q0 215 119 346t309 131q184 0 301 -118t117 -296q0 -43 -2 -55h-799v-10q0 -197 107.5 -319t281.5 -122q127 0 224.5 63.5t132.5 168.5h41q-33 -123 -141.5 -198t-254.5 -75q-197 0 -316.5 133.5t-119.5 350.5zM139 508h758q0 168 -102.5 277.5t-272.5 109.5 q-162 0 -265 -106.5t-118 -280.5zM199 1071l325 297l330 -297l-27 -31l-303 273l-299 -273z" />
<glyph unicode="&#xeb;" horiz-adv-x="1030" d="M92 459q0 215 119 346t309 131q184 0 301 -118t117 -296q0 -43 -2 -55h-799v-10q0 -197 107.5 -319t281.5 -122q127 0 224.5 63.5t132.5 168.5h41q-33 -123 -141.5 -198t-254.5 -75q-197 0 -316.5 133.5t-119.5 350.5zM139 508h758q0 168 -102.5 277.5t-272.5 109.5 q-162 0 -265 -106.5t-118 -280.5zM307 1114v211h41v-211h-41zM700 1114v211h41v-211h-41z" />
<glyph unicode="&#xec;" horiz-adv-x="409" d="M41 1239l20 37l306 -158l-21 -37zM184 0v911h41v-911h-41z" />
<glyph unicode="&#xed;" horiz-adv-x="409" d="M41 1118l305 158l21 -37l-306 -158zM184 0v911h41v-911h-41z" />
<glyph unicode="&#xee;" horiz-adv-x="409" d="M10 1112l193 209l196 -209l-32 -25l-164 175l-162 -175zM184 0v911h41v-911h-41z" />
<glyph unicode="&#xef;" horiz-adv-x="409" d="M72 1116v211h41v-211h-41zM184 0v911h41v-911h-41zM297 1116v211h41v-211h-41z" />
<glyph unicode="&#xf0;" horiz-adv-x="1097" d="M92 456.5q0 202.5 126 342t331 139.5q133 0 242 -66l-181 289l-221 -123l-18 39l217 121l-146 236h50l135 -215l211 116l24 -35l-213 -118l279 -447q78 -121 78 -278q0 -203 -126 -342.5t-331 -139.5t-331 139.5t-126 342zM133 455q0 -182 114.5 -309.5t301 -127.5 t301.5 127t115 311.5t-115 311.5t-301.5 127t-301 -128t-114.5 -312z" />
<glyph unicode="&#xf1;" horiz-adv-x="1146" d="M184 0v911h41v-295q23 141 122 230.5t265 89.5q178 0 269.5 -106.5t91.5 -305.5v-524h-41v522q0 178 -84 275.5t-240 97.5q-190 0 -286.5 -130t-96.5 -339v-426h-41zM225 1178q80 131 201 131q45 0 151.5 -60.5t147.5 -60.5q94 0 152 106l32 -18q-73 -129 -184 -129 q-57 0 -157.5 60.5t-147.5 60.5q-98 0 -164 -113z" />
<glyph unicode="&#xf2;" horiz-adv-x="1097" d="M92 456.5q0 202.5 126 342t331 139.5t331 -139.5t126 -342t-126 -342t-331 -139.5t-331 139.5t-126 342zM133 455q0 -182 114.5 -309.5t301 -127.5t301.5 127t115 311.5t-115 311.5t-301.5 127t-301 -128t-114.5 -312zM283 1333l20 37l510 -280l-20 -37z" />
<glyph unicode="&#xf3;" horiz-adv-x="1097" d="M92 456.5q0 202.5 126 342t331 139.5t331 -139.5t126 -342t-126 -342t-331 -139.5t-331 139.5t-126 342zM133 455q0 -182 114.5 -309.5t301 -127.5t301.5 127t115 311.5t-115 311.5t-301.5 127t-301 -128t-114.5 -312zM283 1096l510 280l20 -37l-510 -280z" />
<glyph unicode="&#xf4;" horiz-adv-x="1097" d="M92 456.5q0 202.5 126 342t331 139.5t331 -139.5t126 -342t-126 -342t-331 -139.5t-331 139.5t-126 342zM133 455q0 -182 114.5 -309.5t301 -127.5t301.5 127t115 311.5t-115 311.5t-301.5 127t-301 -128t-114.5 -312zM223 1071l326 297l330 -297l-27 -31l-303 273 l-299 -273z" />
<glyph unicode="&#xf5;" horiz-adv-x="1097" d="M92 456.5q0 202.5 126 342t331 139.5t331 -139.5t126 -342t-126 -342t-331 -139.5t-331 139.5t-126 342zM133 455q0 -182 114.5 -309.5t301 -127.5t301.5 127t115 311.5t-115 311.5t-301.5 127t-301 -128t-114.5 -312zM207 1178q80 131 201 131q45 0 151.5 -60.5 t147.5 -60.5q94 0 151 106l33 -18q-73 -129 -184 -129q-57 0 -157.5 60.5t-148.5 60.5q-98 0 -163 -113z" />
<glyph unicode="&#xf6;" horiz-adv-x="1097" d="M92 456.5q0 202.5 126 342t331 139.5t331 -139.5t126 -342t-126 -342t-331 -139.5t-331 139.5t-126 342zM133 455q0 -182 114.5 -309.5t301 -127.5t301.5 127t115 311.5t-115 311.5t-301.5 127t-301 -128t-114.5 -312zM332 1114v211h41v-211h-41zM725 1114v211h41v-211 h-41z" />
<glyph unicode="&#xf7;" horiz-adv-x="1032" d="M123 686v39h786v-39h-786zM496 358v211h41v-211h-41zM496 860v211h41v-211h-41z" />
<glyph unicode="&#xf8;" horiz-adv-x="1097" d="M92 457q0 203 126 342t331 139q96 0 186 -37l25 55l37 -14l-25 -59q111 -59 172.5 -174t61.5 -252q0 -203 -126 -342.5t-331 -139.5q-82 0 -158 27l-47 -108l-37 14l47 108q-123 57 -192.5 175t-69.5 266zM133 455q0 -131 63.5 -240t174.5 -160l348 805q-80 35 -170 35 q-186 0 -301 -128t-115 -312zM408 41q67 -23 141 -23q186 0 301 127t115 312q0 125 -55.5 227t-155.5 160z" />
<glyph unicode="&#xf9;" horiz-adv-x="1155" d="M174 385v526h41v-522q0 -166 84 -268.5t254 -102.5q125 0 214 74t126 171t37 198v450h41v-911h-41v289q-29 -129 -132.5 -221.5t-250.5 -92.5q-170 0 -271.5 105.5t-101.5 304.5zM317 1333l21 37l510 -280l-21 -37z" />
<glyph unicode="&#xfa;" horiz-adv-x="1155" d="M174 385v526h41v-522q0 -166 84 -268.5t254 -102.5q125 0 214 74t126 171t37 198v450h41v-911h-41v289q-29 -129 -132.5 -221.5t-250.5 -92.5q-170 0 -271.5 105.5t-101.5 304.5zM317 1096l510 280l21 -37l-510 -280z" />
<glyph unicode="&#xfb;" horiz-adv-x="1155" d="M174 385v526h41v-522q0 -166 84 -268.5t254 -102.5q125 0 214 74t126 171t37 198v450h41v-911h-41v289q-29 -129 -132.5 -221.5t-250.5 -92.5q-170 0 -271.5 105.5t-101.5 304.5zM258 1071l326 297l329 -297l-26 -31l-303 273l-299 -273z" />
<glyph unicode="&#xfc;" horiz-adv-x="1155" d="M174 385v526h41v-522q0 -166 84 -268.5t254 -102.5q125 0 214 74t126 171t37 198v450h41v-911h-41v289q-29 -129 -132.5 -221.5t-250.5 -92.5q-170 0 -271.5 105.5t-101.5 304.5zM367 1114v211h41v-211h-41zM760 1114v211h41v-211h-41z" />
<glyph unicode="&#xfd;" horiz-adv-x="1163" d="M174 -152h41q0 -119 87 -200.5t273 -81.5q362 0 363 377v338q-35 -127 -135.5 -214t-251.5 -87q-203 0 -290 106.5t-87 321.5v503h39v-499q0 -197 76 -293t266 -96q180 0 281.5 134t101.5 294v460h41v-968q0 -236 -137 -340q-100 -78 -267 -78q-190 0 -299 92 q-102 86 -102 231zM315 1096l510 280l21 -37l-510 -280z" />
<glyph unicode="&#xfe;" d="M184 -451v1885h41v-801q49 143 161.5 223t266.5 80q199 0 330 -137t131 -346q0 -205 -131 -341.5t-330 -136.5q-150 0 -264.5 79t-163.5 218v-723h-41zM221 453q0 -186 124 -311.5t308 -125.5q180 0 300 124t120 313q0 190 -119.5 316t-300.5 126q-186 0 -309 -126 t-123 -316z" />
<glyph unicode="&#xff;" horiz-adv-x="1163" d="M174 -152h41q0 -119 87 -200.5t273 -81.5q362 0 363 377v338q-35 -127 -135.5 -214t-251.5 -87q-203 0 -290 106.5t-87 321.5v503h39v-499q0 -197 76 -293t266 -96q180 0 281.5 134t101.5 294v460h41v-968q0 -236 -137 -340q-100 -78 -267 -78q-190 0 -299 92 q-102 86 -102 231zM365 1114v211h41v-211h-41zM758 1114v211h41v-211h-41z" />
<glyph unicode="&#x152;" horiz-adv-x="1710" d="M92 717q0 291 179.5 504t471.5 213h813v-41h-632v-660h632v-41h-632v-651h632v-41h-813q-293 0 -472 213t-179 504zM133 716.5q0 -276.5 168 -476t442 -199.5h140v1352h-140q-274 0 -442 -200t-168 -476.5z" />
<glyph unicode="&#x153;" horiz-adv-x="1902" d="M92 456.5q0 202.5 126 342t331 139.5q162 0 276.5 -90t157.5 -236q39 150 147.5 237t262.5 87q184 0 300.5 -118t116.5 -296q0 -43 -2 -55h-798v-10q0 -197 107.5 -319t281.5 -122q127 0 224 63.5t132 168.5h41q-33 -123 -141.5 -198t-253.5 -75q-156 0 -266.5 87.5 t-151.5 238.5q-43 -145 -157.5 -235.5t-276.5 -90.5q-205 0 -331 139.5t-126 342zM133 455q0 -182 114.5 -309.5t301 -127.5t301.5 127t115 311.5t-115 311.5t-301.5 127t-301 -128t-114.5 -312zM1012 508h757q0 168 -102 277.5t-272 109.5q-162 0 -265.5 -106.5 t-117.5 -280.5z" />
<glyph unicode="&#x178;" horiz-adv-x="1071" d="M10 1434h49l531 -832l436 832h45l-752 -1434h-47l295 559zM307 1546v211h41v-211h-41zM780 1546v211h41v-211h-41z" />
<glyph unicode="&#x2c6;" horiz-adv-x="1228" d="M31 1073l325 297l330 -297l-27 -31l-303 273l-299 -273z" />
<glyph unicode="&#x2dc;" horiz-adv-x="1228" d="M90 1180q80 131 201 131q45 0 151.5 -60.5t147.5 -60.5q94 0 151 106l33 -18q-73 -129 -184 -129q-57 0 -157.5 60.5t-147.5 60.5q-98 0 -164 -113z" />
<glyph unicode="&#x2000;" horiz-adv-x="919" />
<glyph unicode="&#x2001;" horiz-adv-x="1839" />
<glyph unicode="&#x2002;" horiz-adv-x="919" />
<glyph unicode="&#x2003;" horiz-adv-x="1839" />
<glyph unicode="&#x2004;" horiz-adv-x="613" />
<glyph unicode="&#x2005;" horiz-adv-x="459" />
<glyph unicode="&#x2006;" horiz-adv-x="306" />
<glyph unicode="&#x2007;" horiz-adv-x="306" />
<glyph unicode="&#x2008;" horiz-adv-x="229" />
<glyph unicode="&#x2009;" horiz-adv-x="367" />
<glyph unicode="&#x200a;" horiz-adv-x="102" />
<glyph unicode="&#x2010;" horiz-adv-x="847" d="M123 502v41h602v-41h-602z" />
<glyph unicode="&#x2011;" horiz-adv-x="847" d="M123 502v41h602v-41h-602z" />
<glyph unicode="&#x2012;" horiz-adv-x="847" d="M123 502v41h602v-41h-602z" />
<glyph unicode="&#x2013;" horiz-adv-x="1146" d="M123 502v41h901v-41h-901z" />
<glyph unicode="&#x2014;" horiz-adv-x="1515" d="M123 522v41h1270v-41h-1270z" />
<glyph unicode="&#x2018;" horiz-adv-x="466" d="M123 1067v254q0 195 201 195v-41q-160 0 -160 -154v-254h-41z" />
<glyph unicode="&#x2019;" horiz-adv-x="497" d="M133 1128v41q160 0 160 154v254h41v-254q0 -195 -201 -195z" />
<glyph unicode="&#x201a;" horiz-adv-x="497" d="M133 -201q160 0 160 154v254h41v-254q0 -195 -201 -195v41z" />
<glyph unicode="&#x201c;" horiz-adv-x="778" d="M164 1067v254q0 195 201 195v-41q-160 0 -160 -154v-254h-41zM444 1067v254q0 195 201 195v-41q-160 0 -160 -154v-254h-41z" />
<glyph unicode="&#x201d;" horiz-adv-x="778" d="M133 1128v41q160 0 160 154v254h41v-254q0 -195 -201 -195zM414 1128v41q160 0 159 154v254h41v-254q0 -195 -200 -195z" />
<glyph unicode="&#x201e;" horiz-adv-x="778" d="M133 -201q160 0 160 154v254h41v-254q0 -195 -201 -195v41zM414 -201q160 0 159 154v254h41v-254q0 -195 -200 -195v41z" />
<glyph unicode="&#x2022;" horiz-adv-x="681" d="M102 639q0 100 70 170t168 70q100 0 170 -70t70 -170q0 -98 -70 -168t-170 -70q-98 0 -168 70t-70 168zM143 639q0 -82 57.5 -139.5t139.5 -57.5t140.5 57.5t58.5 139.5t-58.5 140.5t-140.5 58.5t-139.5 -58.5t-57.5 -140.5z" />
<glyph unicode="&#x2026;" horiz-adv-x="1261" d="M205 -8v211h41v-211h-41zM610 -8v211h41v-211h-41zM1016 -8v211h41v-211h-41z" />
<glyph unicode="&#x202f;" horiz-adv-x="367" />
<glyph unicode="&#x2039;" horiz-adv-x="516" d="M20 535l414 370l31 -28l-379 -342l379 -342l-31 -29z" />
<glyph unicode="&#x203a;" horiz-adv-x="516" d="M51 193l379 342l-379 342l31 28l414 -370l-414 -371z" />
<glyph unicode="&#x205f;" horiz-adv-x="459" />
<glyph unicode="&#x20ac;" horiz-adv-x="1179" d="M51 518l10 41h125q-4 94 -4 141q0 45 4 136h-125l11 41h118q53 541 447 540q352 0 430 -403h-41q-68 362 -389 362q-358 0 -406 -499h527l-10 -41h-521q-4 -86 -4 -136q0 -51 4 -141h521l-11 -41h-506q48 -495 406 -495q322 0 389 366h41q-78 -408 -430 -407 q-389 0 -447 536h-139z" />
<glyph unicode="&#x2122;" horiz-adv-x="1675" d="M20 1393v41h512v-41h-235v-793h-41v793h-236zM741 600v834h41l328 -779l330 779h41v-834h-41v729l-310 -729h-40l-308 729v-729h-41z" />
<glyph unicode="&#x25fc;" horiz-adv-x="911" d="M0 0v911h911v-911h-911z" />
<glyph unicode="&#xfb03;" horiz-adv-x="1785" d="M51 870v41h217v236q0 174 65.5 236.5t168.5 62.5q74 0 125 -31v-43q-53 33 -125 33q-86 0 -139.5 -50t-53.5 -200v-244h318v-41h-318v-870h-41v870h-217zM770 870v41h217v236q0 174 65.5 236.5t168.5 62.5q74 0 125 -31v-43q-53 33 -125 33q-86 0 -139.5 -50t-53.5 -200 v-244h318v-41h-318v-870h-41v870h-217zM1561 0v911h41v-911h-41zM1561 1116v211h41v-211h-41z" />
<glyph unicode="&#xfb04;" horiz-adv-x="1785" d="M51 870v41h217v236q0 174 65.5 236.5t168.5 62.5q74 0 125 -31v-43q-53 33 -125 33q-86 0 -139.5 -50t-53.5 -200v-244h318v-41h-318v-870h-41v870h-217zM770 870v41h217v236q0 174 65.5 236.5t168.5 62.5q74 0 125 -31v-43q-53 33 -125 33q-86 0 -139.5 -50t-53.5 -200 v-244h318v-41h-318v-870h-41v870h-217zM1561 0v1434h41v-1434h-41z" />
</font>
</defs>
</svg>
