<?xml version="1.0" standalone="no"?>
<!DOCTYPE svg PUBLIC "-//W3C//DTD SVG 1.1//EN" "http://www.w3.org/Graphics/SVG/1.1/DTD/svg11.dtd" >
<svg xmlns="http://www.w3.org/2000/svg" xmlns:xlink="http://www.w3.org/1999/xlink" version="1.1">
<metadata></metadata>
<defs>
<font id="gt_walsheim_proultra_bold" horiz-adv-x="1294" >
<font-face units-per-em="2048" ascent="1434" descent="-614" />
<missing-glyph horiz-adv-x="471" />
<glyph unicode="&#xfb01;" horiz-adv-x="1560" d="M20 682v369h144v12q0 209 121 305t319 96q143 0 240 -30v-295q-51 6 -82 6q-49 0 -79 -20.5t-30 -57.5v-16h191v-369h-191v-682h-489v682h-144zM961 1329.5q0 100.5 72.5 173t179 72.5t179 -72.5t72.5 -173t-72.5 -173.5t-179 -73t-179 73t-72.5 173.5zM967 0v1051h491 v-1051h-491z" />
<glyph unicode="&#xfb02;" horiz-adv-x="1560" d="M20 682v369h144v12q0 209 121 305t319 96q143 0 240 -30v-295q-51 6 -82 6q-49 0 -79 -20.5t-30 -57.5v-16h191v-369h-191v-682h-489v682h-144zM967 0v1434h491v-1434h-491z" />
<glyph horiz-adv-x="0" />
<glyph horiz-adv-x="682" />
<glyph unicode="&#xd;" horiz-adv-x="681" />
<glyph unicode=" "  horiz-adv-x="471" />
<glyph unicode="&#x09;" horiz-adv-x="471" />
<glyph unicode="&#xa0;" horiz-adv-x="471" />
<glyph unicode="!" horiz-adv-x="747" d="M82 262q0 119 84 202t207 83q125 0 209 -83t84 -202t-84 -203t-209 -84q-123 0 -207 84t-84 203zM113 586v848h522v-848h-522z" />
<glyph unicode="&#x22;" horiz-adv-x="1146" d="M61 1178q0 109 70 182.5t176 73.5q104 0 175 -75t71 -181q0 -70 -37 -166l-135 -408h-148l-135 408q-37 96 -37 166zM594 1178q0 109 69.5 182.5t176.5 73.5q104 0 174.5 -75t70.5 -181q0 -70 -36 -166l-136 -408h-147l-135 408q-37 96 -37 166z" />
<glyph unicode="#" horiz-adv-x="1318" d="M10 272v318h211l35 254h-184v317h227l39 273h321l-38 -273h213l38 273h322l-39 -273h154v-317h-197l-35 -254h170v-318h-215l-37 -272h-321l37 272h-213l-37 -272h-322l37 272h-166zM543 590h213l35 254h-213z" />
<glyph unicode="$" horiz-adv-x="1310" d="M20 465h523q0 -68 34.5 -105.5t96.5 -37.5q94 0 94 71q0 63 -96 90l-312 88q-322 90 -321 398q0 205 145.5 321.5t366.5 136.5v170h209v-172q145 -12 251.5 -57t162 -110.5t80 -134t24.5 -144.5h-522q0 125 -107 125q-37 0 -62.5 -17.5t-25.5 -50t25.5 -53t91.5 -41.5 l289 -86q323 -95 323 -414q0 -197 -138 -327.5t-392 -151.5v-168h-209v170q-254 27 -392.5 161t-138.5 339z" />
<glyph unicode="%" horiz-adv-x="1730" d="M41 1065q0 143 106.5 245.5t282.5 102.5q182 0 289.5 -101.5t107.5 -246.5t-107.5 -246.5t-289.5 -101.5q-176 0 -282.5 102.5t-106.5 245.5zM297 51l981 1409l166 -108l-981 -1409zM305 1065q0 -57 33 -94t92 -37q61 0 94 37t33 94q0 59 -32.5 96t-94.5 37 q-59 0 -92 -38t-33 -95zM903 327.5q0 143.5 106.5 246t282.5 102.5q182 0 290 -101.5t108 -247t-108 -246.5t-290 -101q-176 0 -282.5 102t-106.5 245.5zM1167 327.5q0 -57.5 33 -94t92 -36.5q61 0 94 36.5t33 94.5q0 59 -32.5 96t-94.5 37q-59 0 -92 -38t-33 -95.5z" />
<glyph unicode="&#x26;" horiz-adv-x="1368" d="M31 377q0 137 84 233.5t202 124.5q-104 18 -185 104.5t-81 219.5t87 230t221.5 141.5t293.5 44.5q631 0 631 -476h-522q0 74 -22.5 112t-80.5 38q-43 0 -69.5 -31t-26.5 -80t32 -86t85 -37h35v-333h-27q-43 0 -68.5 -38t-25.5 -89q0 -53 27.5 -88t80.5 -35q104 0 111 145 h-57v344h612v-344h-53q-4 -98 -40 -187t-107.5 -165t-194.5 -121t-281 -45q-291 0 -476 103.5t-185 314.5z" />
<glyph unicode="'" horiz-adv-x="614" d="M61 1178q0 109 70 182.5t176 73.5q104 0 175 -75t71 -181q0 -70 -37 -166l-135 -408h-148l-135 408q-37 96 -37 166z" />
<glyph unicode="(" horiz-adv-x="829" d="M61 555q0 319 125 553.5t353 450.5l311 -261q-193 -188 -271.5 -346.5t-78.5 -396.5t78.5 -396.5t271.5 -346.5l-311 -261q-227 215 -352.5 450t-125.5 554z" />
<glyph unicode=")" horiz-adv-x="829" d="M-20 -188q193 188 271.5 346.5t78.5 396.5t-79 396.5t-271 346.5l311 261q227 -215 352 -450t125 -554t-125 -554t-352 -450z" />
<glyph unicode="*" horiz-adv-x="970" d="M20 1040l84 242l265 -98l-11 284h256l-10 -284l262 98l84 -242l-248 -73l156 -215l-207 -150l-166 252l-166 -252l-206 150l155 215z" />
<glyph unicode="+" horiz-adv-x="1220" d="M72 475v356h350v338h377v-338h350v-356h-350v-338h-377v338h-350z" />
<glyph unicode="," horiz-adv-x="741" d="M82 233q0 104 75.5 180t192.5 76q137 0 218 -98t81 -270q0 -248 -126 -368t-355 -120q-25 0 -74 9v161q70 -8 90 -8q121 0 193 68q63 59 69 143q-29 -35 -110 -35q-119 0 -186.5 76t-67.5 186z" />
<glyph unicode="-" horiz-adv-x="827" d="M72 442v355h684v-355h-684z" />
<glyph unicode="." horiz-adv-x="733" d="M102 227.5q0 106.5 77 182t190 75.5q111 0 186.5 -75.5t75.5 -182t-75.5 -182.5t-186.5 -76q-113 0 -190 76t-77 182.5z" />
<glyph unicode="/" horiz-adv-x="1056" d="M20 -10l666 1548l350 -149l-665 -1549z" />
<glyph unicode="0" horiz-adv-x="1452" d="M51 694q0 358 173 549t501 191t502 -189.5t174 -550.5q0 -358 -173 -546.5t-503 -188.5q-328 0 -501 189.5t-173 545.5zM551 694q0 -186 40 -266t134 -80t135 81t41 265q0 186 -41 268t-135 82t-134 -80.5t-40 -269.5z" />
<glyph unicode="1" horiz-adv-x="1021" d="M51 725v389q221 0 304 69.5t83 209.5h430v-1393h-522v725h-295z" />
<glyph unicode="2" horiz-adv-x="1400" d="M51 0q0 293 91 461t302 266l263 123q113 51 112 139q0 39 -25.5 62.5t-68.5 23.5q-117 0 -117 -137h-522q0 223 175 359.5t460 136.5q295 0 456.5 -113t161.5 -320q0 -295 -286 -423l-217 -99q-74 -35 -115 -90h588v-389h-1258z" />
<glyph unicode="3" horiz-adv-x="1357" d="M31 449h522q0 -51 30.5 -80t86.5 -29q106 0 106 94q0 102 -133 103h-221v352h221q143 0 143 102q0 94 -102 94q-51 0 -81 -27.5t-30 -76.5h-522q0 205 173 329t483 124q276 0 438 -102.5t162 -289.5q0 -123 -76 -210t-223 -117q143 -29 221 -114t78 -214 q0 -195 -174.5 -311.5t-485.5 -116.5q-616 0 -616 490z" />
<glyph unicode="4" horiz-adv-x="1402" d="M92 328v1065h512v-650h123v308h512v-308h102v-415h-102v-328h-512v328h-635z" />
<glyph unicode="5" horiz-adv-x="1374" d="M61 428h492q16 -90 133 -90q68 0 106.5 44t38.5 120q0 59 -38.5 100t-102.5 41q-104 0 -137 -86h-444v836h1165v-353h-696v-166q94 84 280 84q213 0 344 -126.5t131 -329.5q0 -250 -172 -396.5t-465 -146.5q-604 0 -635 469z" />
<glyph unicode="6" horiz-adv-x="1335" d="M31 524q0 193 102 334l369 535h575l-221 -322q209 -47 329 -191.5t120 -355.5q0 -254 -175.5 -409.5t-462 -155.5t-461.5 155.5t-175 409.5zM522 524.5q0 -75.5 41 -123t104.5 -47.5t104.5 47.5t41 123t-41 122.5t-104.5 47t-104.5 -47t-41 -122.5z" />
<glyph unicode="7" horiz-adv-x="1314" d="M20 977v416h1295l-641 -1393h-586l490 977h-558z" />
<glyph unicode="8" horiz-adv-x="1376" d="M51 379q0 129 66.5 217t189.5 119q-94 33 -155.5 118t-61.5 199q0 195 161 298.5t437.5 103.5t437 -103.5t160.5 -298.5q0 -115 -61.5 -199.5t-155.5 -117.5q123 -31 189.5 -119t66.5 -217q0 -205 -171 -312.5t-466 -107.5t-466 107.5t-171 312.5zM543 413.5 q0 -51.5 41 -84t104.5 -32.5t104.5 32.5t41 84t-40 84t-105.5 32.5t-105.5 -32.5t-40 -84zM553 991q0 -49 38 -80.5t97.5 -31.5t97 31.5t37.5 80.5t-37.5 81t-97 32t-97.5 -32t-38 -81z" />
<glyph unicode="9" horiz-adv-x="1335" d="M31 868q0 254 175 410t461.5 156t462 -156t175.5 -410q0 -193 -103 -333l-368 -535h-576l221 322q-209 47 -328.5 191t-119.5 355zM522 868.5q0 -75.5 41 -123t104.5 -47.5t104.5 47.5t41 123t-41 122.5t-104.5 47t-104.5 -47t-41 -122.5z" />
<glyph unicode=":" horiz-adv-x="733" d="M102 227.5q0 106.5 77 182t190 75.5q111 0 186.5 -75.5t75.5 -182t-75.5 -182.5t-186.5 -76q-113 0 -190 76t-77 182.5zM102 839.5q0 106.5 77 182.5t190 76q111 0 186.5 -76t75.5 -182.5t-75.5 -182t-186.5 -75.5q-113 0 -190 75.5t-77 182z" />
<glyph unicode=";" horiz-adv-x="741" d="M82 233q0 104 75.5 180t192.5 76q137 0 218 -98t81 -270q0 -248 -126 -368t-355 -120q-25 0 -74 9v161q70 -8 90 -8q121 0 193 68q63 59 69 143q-29 -35 -110 -35q-119 0 -186.5 76t-67.5 186zM102 839.5q0 106.5 77 182.5t190 76q111 0 186.5 -76t75.5 -182.5 t-75.5 -182t-186.5 -75.5q-113 0 -190 75.5t-77 182z" />
<glyph unicode="&#x3c;" horiz-adv-x="1177" d="M72 432v422l1034 371v-430l-502 -152l502 -151v-431z" />
<glyph unicode="=" horiz-adv-x="1220" d="M72 229v357h1077v-357h-1077zM72 741v357h1077v-357h-1077z" />
<glyph unicode="&#x3e;" horiz-adv-x="1177" d="M72 61v431l501 151l-501 152v430l1034 -371v-422z" />
<glyph unicode="?" horiz-adv-x="1181" d="M-41 999q0 63 18.5 125t64.5 126.5t116.5 113.5t185.5 80t258 31q121 0 224.5 -20.5t190.5 -64.5t136 -125t49 -190q0 -207 -186 -327l-101 -66q-66 -45 -65 -76v-16h-522v18q0 102 40 166t140 115l100 51q84 43 84 109q0 39 -26.5 63.5t-71.5 24.5q-123 0 -123 -138 h-512zM297 262q0 119 84 202t207 83q125 0 209 -83t84 -202t-84 -203t-209 -84q-123 0 -207 84t-84 203z" />
<glyph unicode="@" horiz-adv-x="1929" d="M20 532q0 406 273.5 654t703.5 248q399 0 655.5 -218.5t256.5 -590.5q0 -285 -138.5 -427.5t-355.5 -142.5q-135 0 -232.5 57.5t-127.5 170.5q-20 -55 -92 -103.5t-172 -48.5q-150 0 -256.5 112.5t-106.5 288.5q0 178 108.5 292t254.5 114q94 0 162.5 -47t86.5 -98v127 h342v-482q0 -133 97 -133q147 0 147 287q0 285 -171 437.5t-468 152.5q-317 0 -495.5 -168t-178.5 -473q0 -297 174.5 -476.5t522.5 -179.5q315 0 518 117l121 -227q-270 -156 -645 -156q-303 0 -528.5 122t-340.5 327.5t-115 463.5zM799 534.5q0 -53.5 34.5 -91t88 -37.5 t89.5 37.5t36 91t-36 91.5t-89.5 38t-88 -38t-34.5 -91.5z" />
<glyph unicode="A" horiz-adv-x="1570" d="M0 0l492 1434h587l492 -1434h-537l-39 158h-420l-38 -158h-537zM666 516h237l-119 475z" />
<glyph unicode="B" horiz-adv-x="1431" d="M113 0v1434h811q209 0 332.5 -100.5t123.5 -270.5q0 -131 -76.5 -224.5t-201.5 -113.5q139 -16 219 -105.5t80 -226.5q0 -180 -126 -286.5t-339 -106.5h-823zM635 342h86q68 0 107.5 35t39.5 94q0 57 -40 92t-107 35h-86v-256zM635 868h86q63 0 100 36t37 95.5t-37 93 t-100 33.5h-86v-258z" />
<glyph unicode="C" horiz-adv-x="1660" d="M20 717q0 334 231.5 551t588.5 217q358 0 572 -163t237 -468h-545q-16 76 -86 121t-176 45q-131 0 -205 -81t-74 -222.5t74 -222t205 -80.5q106 0 175.5 45t86.5 121h545q-23 -305 -237 -468t-572 -163q-356 0 -588 217t-232 551z" />
<glyph unicode="D" horiz-adv-x="1531" d="M113 0v1434h647q326 0 538.5 -203t212.5 -514q0 -313 -212 -515t-539 -202h-647zM635 416h78q111 0 183.5 86t72.5 215t-73 215t-183 86h-78v-602z" />
<glyph unicode="E" horiz-adv-x="1185" d="M113 0v1434h970v-375h-448v-170h448v-354h-448v-160h448v-375h-970z" />
<glyph unicode="F" horiz-adv-x="1155" d="M113 0v1434h970v-416h-448v-250h448v-397h-448v-371h-522z" />
<glyph unicode="G" horiz-adv-x="1701" d="M20 717q0 344 225.5 556t592.5 212q342 0 556 -142.5t228 -379.5h-567q-14 51 -71.5 81.5t-141.5 30.5q-133 0 -206 -88t-73 -250q0 -158 78 -253t205 -95q170 0 219 107h-211v327h838v-327h-90q-59 -268 -259 -407.5t-524 -139.5q-352 0 -575.5 214t-223.5 554z" />
<glyph unicode="H" horiz-adv-x="1572" d="M113 0v1434h522v-508h303v508h522v-1434h-522v498h-303v-498h-522z" />
<glyph unicode="I" horiz-adv-x="747" d="M113 0v1434h522v-1434h-522z" />
<glyph unicode="J" horiz-adv-x="1355" d="M10 549h522q0 -160 115 -160t115 139v906h522v-844q0 -631 -637 -631q-319 0 -478 164t-159 426z" />
<glyph unicode="K" horiz-adv-x="1579" d="M113 0v1434h522v-607l348 607h586l-457 -717l457 -717h-586l-348 606v-606h-522z" />
<glyph unicode="L" horiz-adv-x="1150" d="M113 0v1434h522v-994h444v-440h-966z" />
<glyph unicode="M" horiz-adv-x="2060" d="M113 0v1434h700l227 -856l228 856h680v-1434h-502v891l-211 -891h-383l-238 891v-891h-501z" />
<glyph unicode="N" horiz-adv-x="1605" d="M113 0v1434h522l356 -703v703h502v-1434h-522l-357 702v-702h-501z" />
<glyph unicode="O" horiz-adv-x="1671" d="M20 716.5q0 319.5 222.5 544t593 224.5t593 -224.5t222.5 -544t-222.5 -543.5t-593 -224t-593 224t-222.5 543.5zM563 717q0 -127 69.5 -214t203 -87t203 87t69.5 214t-69.5 214t-203 87t-203 -87t-69.5 -214z" />
<glyph unicode="P" horiz-adv-x="1452" d="M113 0v1434h774q240 0 397.5 -157t157.5 -394q0 -236 -159 -392.5t-396 -156.5h-252v-334h-522zM635 723h125q66 0 107.5 45t41.5 114.5t-42 114.5t-105 45h-127v-319z" />
<glyph unicode="Q" horiz-adv-x="1671" d="M20 716.5q0 319.5 222.5 544t593 224.5t593 -224.5t222.5 -543.5q0 -182 -78 -342t-221 -266l135 -172l-461 -234l-182 246h-8q-371 0 -593.5 224t-222.5 543.5zM563 717q0 -127 69.5 -214t203 -87t203 87t69.5 214t-69.5 214t-203 87t-203 -87t-69.5 -214z" />
<glyph unicode="R" horiz-adv-x="1503" d="M113 0v1434h774q240 0 397.5 -156.5t157.5 -394.5q0 -274 -205 -432l205 -451h-598l-146 334h-63v-334h-522zM635 723h125q66 0 107.5 45t41.5 114.5t-42 114.5t-105 45h-127v-319z" />
<glyph unicode="S" horiz-adv-x="1310" d="M20 469h523q0 -70 34.5 -108.5t96.5 -38.5q94 0 94 75q0 57 -96 92l-310 111q-323 117 -323 414q0 217 161.5 344t450.5 127q287 0 457 -124t170 -341h-522q0 127 -107 127q-41 0 -64.5 -19.5t-23.5 -52.5q0 -29 23.5 -48t93.5 -46l289 -109q323 -123 323 -419 q0 -235 -167.5 -369.5t-458.5 -134.5q-297 0 -470.5 139t-173.5 381z" />
<glyph unicode="T" horiz-adv-x="1234" d="M10 993v441h1215v-441h-346v-993h-523v993h-346z" />
<glyph unicode="U" horiz-adv-x="1486" d="M72 508v926h522v-893q0 -61 41 -103.5t108.5 -42.5t108.5 42t41 104v893h522v-926q0 -252 -181 -400.5t-490.5 -148.5t-490.5 148.5t-181 400.5z" />
<glyph unicode="V" horiz-adv-x="1531" d="M-20 1434h557l229 -910l229 910h557l-493 -1434h-586z" />
<glyph unicode="W" horiz-adv-x="2342" d="M-20 1434h552l218 -775l211 775h421l211 -775l217 775h553l-526 -1434h-473l-193 659l-192 -659h-473z" />
<glyph unicode="X" horiz-adv-x="1519" d="M10 0l447 717l-447 717h565l185 -359l184 359h565l-446 -717l446 -717h-565l-184 358l-185 -358h-565z" />
<glyph unicode="Y" horiz-adv-x="1462" d="M-20 1434h614l151 -457l175 457h583l-710 -1434h-588l227 471z" />
<glyph unicode="Z" horiz-adv-x="1429" d="M0 0l618 1018h-530v416h1331l-618 -1018h561v-416h-1362z" />
<glyph unicode="[" horiz-adv-x="788" d="M113 -395v1896h655v-391h-246v-1114h246v-391h-655z" />
<glyph unicode="\" horiz-adv-x="1056" d="M20 1389l351 149l665 -1548l-350 -150z" />
<glyph unicode="]" horiz-adv-x="788" d="M20 -4h246v1114h-246v391h656v-1896h-656v391z" />
<glyph unicode="^" horiz-adv-x="1353" d="M102 520l467 914h224l458 -914h-401l-170 434l-174 -434h-404z" />
<glyph unicode="_" horiz-adv-x="1105" d="M0 -113h1106v-256h-1106v256z" />
<glyph unicode="`" horiz-adv-x="1228" d="M45 1268l57 213l617 -168l-62 -211z" />
<glyph unicode="a" horiz-adv-x="1406" d="M31 524.5q0 245.5 127 401t329 155.5q125 0 208 -54t118 -140v164h492v-1051h-492v162q-33 -84 -117 -138.5t-209 -54.5q-205 0 -330.5 155t-125.5 400.5zM543 524.5q0 -75.5 41 -123t104.5 -47.5t104.5 47.5t41 123t-41 122.5t-104.5 47t-104.5 -47t-41 -122.5z" />
<glyph unicode="b" horiz-adv-x="1406" d="M102 0v1440h492v-553q31 82 118 138t210 56q201 0 327.5 -153.5t126.5 -403.5q0 -248 -127 -401.5t-327 -153.5q-125 0 -212 57.5t-116 135.5v-162h-492zM573 524.5q0 -75.5 41 -125t104.5 -49.5t104.5 49.5t41 125t-41 122.5t-104.5 47t-104.5 -47t-41 -122.5z" />
<glyph unicode="c" horiz-adv-x="1284" d="M10 526q0 256 175 411t462 155q264 0 434 -130.5t193 -351.5h-492q-25 84 -133 84q-68 0 -107.5 -45t-39.5 -122.5t40 -123t107 -45.5q109 0 133 84h492q-23 -221 -193 -352t-434 -131q-287 0 -462 155.5t-175 411.5z" />
<glyph unicode="d" horiz-adv-x="1406" d="M31 524.5q0 245.5 127 401t329 155.5q125 0 208 -54t118 -140v547h492v-1434h-492v162q-33 -84 -117 -138.5t-209 -54.5q-205 0 -330.5 155t-125.5 400.5zM543 524.5q0 -75.5 41 -123t104.5 -47.5t104.5 47.5t41 123t-41 122.5t-104.5 47t-104.5 -47t-41 -122.5z" />
<glyph unicode="e" d="M10 524q0 266 174 417t467 151q279 0 456 -143.5t177 -368.5q0 -92 -12 -164h-770q2 -63 46 -101.5t114 -38.5q115 0 131 60h471q-29 -174 -192 -275.5t-410 -101.5q-305 0 -478.5 146.5t-173.5 418.5zM502 662h291q-2 72 -39 112.5t-105 40.5q-66 0 -104.5 -41.5 t-42.5 -111.5z" />
<glyph unicode="f" horiz-adv-x="864" d="M20 682v369h144v12q0 209 121 305t319 96q143 0 240 -30v-295q-51 6 -82 6q-49 0 -79 -20.5t-30 -57.5v-16h191v-369h-191v-682h-489v682h-144z" />
<glyph unicode="g" horiz-adv-x="1409" d="M31 555q0 238 128 382t339 144q115 0 202.5 -54t114.5 -140v164h492v-942q-2 -283 -228 -426q-141 -92 -399 -93h-4q-255 0 -391 68q-94 47 -160 134t-66 169h492q8 -53 121 -53q143 0 143 129v186q-27 -78 -116 -127t-201 -49q-211 0 -339 138.5t-128 369.5zM545 545 q0 -76 41 -123t104.5 -47t104.5 47t41 123t-41 123t-104.5 47t-104.5 -47t-41 -123z" />
<glyph unicode="h" horiz-adv-x="1409" d="M102 0v1434h492v-543q78 190 338 190q385 0 385 -450v-631h-502v528q0 143 -106 144q-59 0 -87 -41t-28 -129v-502h-492z" />
<glyph unicode="i" horiz-adv-x="696" d="M96 1329.5q0 100.5 73 173t179.5 72.5t179 -72.5t72.5 -173t-72.5 -173.5t-179 -73t-179.5 73t-73 173.5zM102 0v1051h492v-1051h-492z" />
<glyph unicode="j" horiz-adv-x="696" d="M-27 -35q35 -6 58 -6q72 0 71 88v1004h492v-990q0 -225 -112 -335q-109 -107 -314 -107h-8q-86 0 -187 23v323zM96 1329.5q0 100.5 73 173t179.5 72.5t179 -72.5t72.5 -173t-72.5 -173.5t-179 -73t-179.5 73t-73 173.5z" />
<glyph unicode="k" horiz-adv-x="1417" d="M102 0v1434h492v-770l244 387h540l-350 -488l369 -563h-563l-240 408v-408h-492z" />
<glyph unicode="l" horiz-adv-x="696" d="M102 0v1434h492v-1434h-492z" />
<glyph unicode="m" horiz-adv-x="2050" d="M102 0v1051h492v-160q76 190 317 190q246 0 326 -204q103 204 354 204h2q365 0 365 -450v-631h-502v543q0 129 -86 129q-94 0 -94 -160v-512h-502v543q0 129 -86 129q-53 0 -73.5 -38t-20.5 -122v-512h-492z" />
<glyph unicode="n" horiz-adv-x="1409" d="M102 0v1051h492v-160q78 190 338 190q385 0 385 -450v-631h-502v528q0 143 -106 144q-59 0 -87 -41t-28 -129v-502h-492z" />
<glyph unicode="o" d="M10 526q0 256 174 411t463 155t463 -155t174 -411t-174 -411.5t-463 -155.5t-463 155.5t-174 411.5zM502 526.5q0 -75.5 41 -123t104.5 -47.5t104.5 47.5t41 123t-41 122.5t-104.5 47t-104.5 -47t-41 -122.5z" />
<glyph unicode="p" horiz-adv-x="1406" d="M102 -369v1420h492v-164q31 82 118 138t210 56q201 0 327.5 -153.5t126.5 -403.5q0 -248 -127 -401.5t-327 -153.5q-125 0 -212 57.5t-116 135.5v-531h-492zM573 524.5q0 -75.5 41 -125t104.5 -49.5t104.5 49.5t41 125t-41 122.5t-104.5 47t-104.5 -47t-41 -122.5z" />
<glyph unicode="q" horiz-adv-x="1406" d="M31 524.5q0 245.5 127 401t329 155.5q125 0 208 -54t118 -140v164h492v-1420h-492v531q-33 -84 -117 -138.5t-209 -54.5q-205 0 -330.5 155t-125.5 400.5zM543 524.5q0 -75.5 41 -123t104.5 -47.5t104.5 47.5t41 123t-41 122.5t-104.5 47t-104.5 -47t-41 -122.5z" />
<glyph unicode="r" horiz-adv-x="1005" d="M102 0v1051h492v-250q27 129 110.5 201.5t200.5 72.5q33 0 70 -6v-465q-68 10 -109 10q-129 0 -200.5 -62.5t-71.5 -250.5v-301h-492z" />
<glyph unicode="s" horiz-adv-x="1193" d="M31 307h487q0 -33 25.5 -53.5t68.5 -20.5q70 0 70 52q0 37 -70 51l-237 49q-158 33 -244 117t-86 211q0 180 140.5 279.5t392.5 99.5q567 0 567 -330h-486q0 69 -75 69h-2q-63 0 -64 -45q0 -43 88 -63l246 -59q158 -39 234.5 -111t76.5 -201q0 -182 -149.5 -287.5 t-397.5 -105.5q-279 0 -432 93t-153 255z" />
<glyph unicode="t" horiz-adv-x="921" d="M20 682v369h144v301h491v-301h236v-369h-236v-195q0 -74 41 -104.5t97 -30.5q39 0 98 6v-358q-135 -25 -293 -25q-92 0 -164 17.5t-136.5 59.5t-99 128t-34.5 209v293h-144z" />
<glyph unicode="u" horiz-adv-x="1398" d="M92 420v631h502v-529q0 -143 106 -143q104 0 105 160v512h491v-1051h-491v160q-80 -191 -328 -191q-385 0 -385 451z" />
<glyph unicode="v" horiz-adv-x="1355" d="M-20 1051h563l135 -547l135 547h563l-454 -1051h-488z" />
<glyph unicode="w" horiz-adv-x="1863" d="M0 1051h489l138 -531l90 531h430l90 -531l137 531h490l-363 -1051h-463l-106 442l-107 -442h-463z" />
<glyph unicode="x" horiz-adv-x="1402" d="M10 0l373 530l-367 521h570l114 -238l117 238h569l-366 -521l373 -530h-570l-123 248l-120 -248h-570z" />
<glyph unicode="y" horiz-adv-x="1398" d="M92 -18h492q0 -33 28.5 -54.5t77.5 -21.5q115 0 115 102v219q-80 -180 -324 -180q-207 0 -298 114.5t-91 336.5v553h492v-506q0 -143 106 -144q115 0 115 172v478h491v-949q0 -131 -48 -233t-122 -160q-84 -66 -180 -92.5t-260 -26.5q-305 0 -442 109q-63 53 -107.5 130 t-44.5 153z" />
<glyph unicode="z" horiz-adv-x="1130" d="M10 0l422 651h-369v400h1057l-397 -652h356v-399h-1069z" />
<glyph unicode="{" horiz-adv-x="894" d="M20 315v463q158 0 158 142v172q0 193 109.5 301t324.5 108h262v-381h-90q-94 0 -145 -55t-51 -137v-148q0 -117 -58.5 -172t-123.5 -61q66 -6 124 -61.5t58 -172.5v-112q0 -82 51 -137.5t145 -55.5h90v-381h-262q-215 0 -324.5 108.5t-109.5 301.5v137q0 141 -158 141z " />
<glyph unicode="|" horiz-adv-x="557" d="M113 -395v1896h331v-1896h-331z" />
<glyph unicode="}" horiz-adv-x="894" d="M20 8h91q94 0 145 55.5t51 137.5v112q0 117 58.5 172.5t123.5 61.5q-66 6 -124 61.5t-58 171.5v148q0 82 -51 137t-145 55h-91v381h263q215 0 324.5 -108.5t109.5 -300.5v-172q0 -141 157 -142v-463q-158 0 -157 -141v-137q0 -193 -109.5 -301.5t-324.5 -108.5h-263v381z " />
<glyph unicode="~" horiz-adv-x="1390" d="M102 395v355q119 121 295 120q109 0 314 -65q16 -6 60 -20.5t65.5 -20.5t55.5 -15.5t58.5 -13.5t46.5 -4q139 0 291 113v-355q-119 -120 -295 -120q-115 0 -286 67q-176 72 -324 72q-129 0 -281 -113z" />
<glyph unicode="&#xa1;" horiz-adv-x="747" d="M82 803q0 119 84 203t207 84q125 0 209 -84t84 -203t-84 -202t-209 -83q-123 0 -207 83t-84 202zM113 -369v848h522v-848h-522z" />
<glyph unicode="&#xa2;" horiz-adv-x="1284" d="M10 698.5q0 229.5 142.5 380t384.5 178.5v136h208v-133q225 -25 366.5 -152t162.5 -326h-492q-25 84 -133 84q-68 0 -107.5 -45t-39.5 -122.5t39.5 -123t107.5 -45.5q109 0 133 84h492q-20 -199 -161.5 -326.5t-367.5 -150.5v-137h-208v137q-242 31 -384.5 181.5 t-142.5 380z" />
<glyph unicode="&#xa3;" horiz-adv-x="1406" d="M51 582v229h111v125q0 240 162.5 369t441.5 129q297 0 452.5 -133.5t155.5 -344.5h-522q0 111 -84 111t-84 -113v-143h285v-229h-285v-45q0 -104 -78 -152h711v-385h-1264v328q109 55 109 209v45h-111z" />
<glyph unicode="&#xa4;" horiz-adv-x="1314" d="M71.5 759.5q0.5 196.5 118.5 344.5l-96 96l148 148l106 -107q141 84 309 84t310 -84l106 107l148 -148l-97 -96q119 -147 119 -344t-119 -344l97 -97l-148 -147l-106 107q-141 -84 -309.5 -84t-309.5 84l-106 -107l-148 147l96 97q-119 147 -118.5 343.5zM512 759.5 q0 -65.5 40 -107.5t105.5 -42t105.5 42t40 107.5t-40 107.5t-105.5 42t-105.5 -42t-40 -107.5z" />
<glyph unicode="&#xa5;" horiz-adv-x="1388" d="M-20 1393h501l213 -457l213 457h502l-442 -785h237v-184h-250v-100h252v-185h-252v-139h-520v139h-252v185h252v100h-250v184h238z" />
<glyph unicode="&#xa6;" horiz-adv-x="557" d="M113 -395v846h331v-846h-331zM113 662v845h331v-845h-331z" />
<glyph unicode="&#xa7;" horiz-adv-x="1392" d="M102 0h373q0 -166 197 -166q88 0 136 33t48 90q0 61 -77 103t-186.5 73t-220 71t-187 123t-76.5 203q0 94 58 161t181 116q-190 109 -190 295q0 178 152.5 279.5t406.5 101.5q281 0 427 -108.5t146 -303.5h-370q0 164 -199 164q-184 0 -184 -117q0 -53 55 -92t138 -60.5 t180.5 -55t180.5 -72.5t138 -115t55 -178q0 -94 -55 -160t-178 -121q184 -106 184 -291q0 -180 -152.5 -283.5t-408.5 -103.5q-279 0 -425.5 108.5t-146.5 305.5zM459 575q0 -37 20.5 -65.5t72.5 -54t87 -37.5t119 -39q27 -8 39 -12q137 55 137 135q0 39 -22.5 68.5 t-70.5 53t-92 39t-118 37.5q-27 8 -41 13q-131 -58 -131 -138z" />
<glyph unicode="&#xa8;" horiz-adv-x="1228" d="M106 1329q0 88 62.5 149.5t155 61.5t155 -61.5t62.5 -149.5t-62.5 -149.5t-155 -61.5t-155 61.5t-62.5 149.5zM623 1329q0 88 62.5 149.5t154.5 61.5t154.5 -61.5t62.5 -149.5t-62.5 -149.5t-154.5 -61.5t-154.5 61.5t-62.5 149.5z" />
<glyph unicode="&#xa9;" horiz-adv-x="1630" d="M20 717q0 330 216.5 549t579 219t578.5 -219t216 -549t-216 -549t-578.5 -219t-579 219t-216.5 549zM266 717q0 -252 147.5 -402.5t401.5 -150.5t401.5 150.5t147.5 402.5t-147.5 402.5t-401.5 150.5t-401.5 -150.5t-147.5 -402.5zM410 717q0 160 110.5 271.5 t294.5 111.5q174 0 280.5 -96.5t110.5 -237.5h-268q-18 94 -123 94q-63 0 -99 -41t-36 -102.5t36 -102.5t99 -41q104 0 123 95h268q-4 -141 -110.5 -237.5t-280.5 -96.5q-184 0 -294.5 111.5t-110.5 271.5z" />
<glyph unicode="&#xaa;" horiz-adv-x="899" d="M47 1118q0 139 78 227.5t203 88.5q150 0 200 -111v94h279v-596h-279v90q-20 -47 -73 -76.5t-127 -29.5q-125 0 -203 86t-78 227zM340 1118q0 -41 26.5 -67.5t71.5 -26.5t73 26.5t28 67.5t-28 66.5t-73 25.5t-71.5 -25.5t-26.5 -66.5z" />
<glyph unicode="&#xab;" horiz-adv-x="1275" d="M0 586l485 469l203 -226l-262 -243l262 -244l-203 -225zM567 586l486 469l202 -226l-262 -243l262 -244l-202 -225z" />
<glyph unicode="&#xac;" horiz-adv-x="1218" d="M72 702v355h1075v-789h-354v434h-721z" />
<glyph unicode="&#xad;" horiz-adv-x="827" d="M72 442v355h684v-355h-684z" />
<glyph unicode="&#xae;" horiz-adv-x="1253" d="M20 905q0 252 164 420t442.5 168t442.5 -168t164 -420t-164 -419t-442.5 -167t-442.5 167t-164 419zM207 905.5q0 -192.5 112.5 -307.5t307 -115t307.5 115t113 307.5t-113 308t-307.5 115.5t-307 -115.5t-112.5 -308zM426 680v479h258q82 0 134 -54t52 -130 q0 -106 -96 -152l109 -143l-197 2l-88 125l2 -127h-174zM600 922h43q20 0 33.5 16t13.5 37q0 23 -13 38t-34 15h-43v-106z" />
<glyph unicode="&#xaf;" horiz-adv-x="1228" d="M82 1184v229h795v-229h-795z" />
<glyph unicode="&#xb0;" horiz-adv-x="862" d="M20 1018q0 170 119 286.5t291 116.5q174 0 293 -116.5t119 -286.5t-119 -287t-293 -117q-172 0 -291 117t-119 287zM293 1017.5q0 -69.5 39 -107.5t98 -38t98 38t39 107.5t-39 107.5t-98 38t-98 -38t-39 -107.5z" />
<glyph unicode="&#xb1;" horiz-adv-x="1220" d="M72 152v356h1077v-356h-1077zM72 760v356h350v174h377v-174h350v-356h-350v-174h-377v174h-350z" />
<glyph unicode="&#xb2;" horiz-adv-x="915" d="M68 819q0 172 53 269.5t174 154.5l154 72q63 29 63 78q0 47 -51 47q-63 0 -64 -76h-311q0 129 102.5 208t270.5 79q174 0 268 -65.5t94 -184.5q0 -168 -168 -246l-123 -57q-41 -18 -65 -49h338v-230h-735z" />
<glyph unicode="&#xb3;" horiz-adv-x="911" d="M78 1079h309q0 -59 64 -59q57 0 57 51q0 57 -74 57h-133v209h133q80 0 80 56q0 51 -55 51q-61 0 -62 -55h-309q0 119 101.5 190.5t281.5 71.5q162 0 257 -59.5t95 -168.5q0 -72 -44 -122t-132 -68q184 -35 184 -189q0 -115 -104.5 -182t-290.5 -67q-358 0 -358 284z" />
<glyph unicode="&#xb4;" horiz-adv-x="1228" d="M86 1323l616 168l58 -213l-613 -166z" />
<glyph unicode="&#xb5;" horiz-adv-x="1409" d="M102 -369v1420h502v-529q0 -143 107 -143q104 0 104 160v512h492v-1051h-492v160q-59 -141 -221 -178v-351h-492z" />
<glyph unicode="&#xb6;" horiz-adv-x="1566" d="M102 975q0 205 143.5 349t348.5 144h870v-286h-123v-1555h-317v1555h-113v-1555h-317v856q-205 0 -348.5 143.5t-143.5 348.5z" />
<glyph unicode="&#xb7;" horiz-adv-x="796" d="M102 639q0 119 85 204t210 85q127 0 212 -85t85 -204q0 -121 -85 -206t-212 -85q-125 0 -210 85t-85 206z" />
<glyph unicode="&#xb8;" horiz-adv-x="1228" d="M88 -272h164q8 -31 51 -31q55 0 55 61q0 53 -51 54q-37 0 -47 -25h-151v231h161v-139q29 25 90 25q78 0 121 -46t43 -108q0 -68 -57.5 -117t-157.5 -49q-92 0 -154.5 42t-66.5 102z" />
<glyph unicode="&#xb9;" horiz-adv-x="714" d="M90 1233v233q127 0 175 40t48 120h256v-807h-311v414h-168z" />
<glyph unicode="&#xba;" horiz-adv-x="837" d="M39 1122q0 143 104.5 232.5t274.5 89.5q172 0 276.5 -89t104.5 -233q0 -145 -104.5 -234t-276.5 -89q-170 0 -274.5 89t-104.5 234zM319 1122q0 -45 27 -70.5t72 -25.5q47 0 73.5 25.5t26.5 70.5q0 41 -27.5 65.5t-72.5 24.5t-72 -24.5t-27 -65.5z" />
<glyph unicode="&#xbb;" horiz-adv-x="1275" d="M20 342l263 244l-263 243l203 226l486 -469l-486 -469zM588 342l262 244l-262 243l203 226l485 -469l-485 -469z" />
<glyph unicode="&#xbc;" horiz-adv-x="2054" d="M90 999v234q127 0 175 40t48 120h256v-807h-311v413h-168zM326 74l966 1396l215 -135l-966 -1396zM1231 188v619h303v-373h55v176h305v-176h66v-246h-66v-188h-305v188h-358z" />
<glyph unicode="&#xbd;" horiz-adv-x="1972" d="M90 999v234q127 0 175 40t48 120h256v-807h-311v413h-168zM326 74l966 1396l215 -135l-966 -1396zM1124 0q0 172 53.5 269.5t174.5 154.5l153 72q63 29 64 77q0 47 -51 48q-63 0 -64 -76h-311q0 129 102.5 207.5t270.5 78.5q174 0 268 -65.5t94 -183.5q0 -168 -168 -246 l-123 -57q-41 -18 -65 -50h338v-229h-736z" />
<glyph unicode="&#xbe;" horiz-adv-x="2209" d="M78 846h309q0 -59 64 -60q57 0 57 52q0 57 -74 57h-133v209h133q80 0 80 55q0 51 -55 51q-61 0 -62 -55h-309q0 119 101.5 190.5t281.5 71.5q162 0 257 -59.5t95 -167.5q0 -72 -44 -122t-132 -69q184 -34 184 -188q0 -115 -104 -182.5t-291 -67.5q-358 0 -358 285z M481 74l967 1396l215 -135l-967 -1396zM1386 188v619h304v-373h55v176h305v-176h66v-246h-66v-188h-305v188h-359z" />
<glyph unicode="&#xbf;" horiz-adv-x="1181" d="M-20 78q0 207 186 328l100 65q66 45 66 76v16h522v-18q0 -102 -40 -166t-140 -115l-101 -51q-84 -43 -84 -109q0 -39 27 -63.5t72 -24.5q123 0 123 138h512q0 -63 -18.5 -125t-64.5 -126.5t-117 -113.5t-185.5 -80t-257.5 -31q-121 0 -224.5 20.5t-190.5 64.5t-136 125 t-49 190zM301 891q0 119 84 203t209 84q123 0 207 -84t84 -203t-84 -202t-207 -83q-125 0 -209 83t-84 202z" />
<glyph unicode="&#xc0;" horiz-adv-x="1570" d="M0 0l492 1434h587l492 -1434h-537l-39 158h-420l-38 -158h-537zM504 1655l82 188l483 -170l-82 -188zM666 516h237l-119 475z" />
<glyph unicode="&#xc1;" horiz-adv-x="1570" d="M0 0l492 1434h587l492 -1434h-537l-39 158h-420l-38 -158h-537zM504 1673l483 170l82 -188l-483 -170zM666 516h237l-119 475z" />
<glyph unicode="&#xc2;" horiz-adv-x="1570" d="M0 0l492 1434h587l492 -1434h-537l-39 158h-420l-38 -158h-537zM494 1628l292 199l293 -199l-143 -139l-150 106l-149 -106zM666 516h237l-119 475z" />
<glyph unicode="&#xc3;" horiz-adv-x="1570" d="M0 0l492 1434h587l492 -1434h-537l-39 158h-420l-38 -158h-537zM334 1673q131 158 254 158q59 0 183 -53.5t163 -53.5q45 0 81 14.5t115 71.5l107 -168q-113 -139 -268 -139q-59 0 -183 52.5t-163 52.5q-80 0 -172 -97zM666 516h237l-119 475z" />
<glyph unicode="&#xc4;" horiz-adv-x="1570" d="M0 0l492 1434h587l492 -1434h-537l-39 158h-420l-38 -158h-537zM358 1661q0 76 55.5 129t135.5 53q82 0 135 -53t53 -129q0 -72 -53 -125t-135 -53q-80 0 -135.5 53t-55.5 125zM666 516h237l-119 475zM836 1661q0 76 52 129t132 53q82 0 137 -53t55 -129q0 -72 -56 -125 t-136 -53t-132 53t-52 125z" />
<glyph unicode="&#xc5;" horiz-adv-x="1570" d="M0 0l492 1434q-25 53 -25 114q0 121 93 208t226.5 87t225.5 -87t92 -208q0 -61 -25 -114l492 -1434h-537l-39 158h-420l-38 -158h-537zM666 516h237l-119 475zM668 1548q0 -51 33.5 -82.5t85 -31.5t84 31.5t32.5 82.5q0 53 -31.5 85t-85.5 32q-51 0 -84.5 -32t-33.5 -85z " />
<glyph unicode="&#xc6;" horiz-adv-x="1992" d="M0 0l709 1434h1181v-375h-428v-170h428v-354h-428v-160h428v-375h-940v158h-352l-61 -158h-537zM737 516h213v547z" />
<glyph unicode="&#xc7;" horiz-adv-x="1660" d="M20 717q0 334 231.5 551t588.5 217q358 0 572 -163t237 -468h-545q-16 76 -86 121t-176 45q-131 0 -205 -81t-74 -222.5t74 -222t205 -80.5q106 0 175.5 45t86.5 121h545q-20 -287 -212 -449t-515 -180v-72q29 25 90 25q78 0 121 -46t43 -108q0 -68 -57.5 -117 t-157.5 -49q-92 0 -155 42t-67 102h164q8 -31 51 -31q55 0 56 61q0 53 -52 54q-37 0 -47 -25h-151v166q-328 25 -534 236.5t-206 527.5z" />
<glyph unicode="&#xc8;" horiz-adv-x="1185" d="M113 0v1434h970v-375h-448v-170h448v-354h-448v-160h448v-375h-970zM338 1655l82 188l483 -170l-82 -188z" />
<glyph unicode="&#xc9;" horiz-adv-x="1185" d="M113 0v1434h970v-375h-448v-170h448v-354h-448v-160h448v-375h-970zM338 1673l483 170l82 -188l-483 -170z" />
<glyph unicode="&#xca;" horiz-adv-x="1185" d="M113 0v1434h970v-375h-448v-170h448v-354h-448v-160h448v-375h-970zM328 1628l293 199l292 -199l-143 -139l-149 106l-150 -106z" />
<glyph unicode="&#xcb;" horiz-adv-x="1185" d="M113 0v1434h970v-375h-448v-170h448v-354h-448v-160h448v-375h-970zM193 1661q0 76 55 129t135 53q82 0 135 -53t53 -129q0 -72 -53 -125t-135 -53q-80 0 -135 53t-55 125zM670 1661q0 76 52 129t132 53q82 0 137.5 -53t55.5 -129q0 -72 -56.5 -125t-136.5 -53t-132 53 t-52 125z" />
<glyph unicode="&#xcc;" horiz-adv-x="747" d="M92 1655l82 188l483 -170l-82 -188zM113 0v1434h522v-1434h-522z" />
<glyph unicode="&#xcd;" horiz-adv-x="747" d="M92 1673l483 170l82 -188l-483 -170zM113 0v1434h522v-1434h-522z" />
<glyph unicode="&#xce;" horiz-adv-x="747" d="M74 1587l309 256l309 -256l-137 -127l-172 152l-190 -152zM113 0v1434h522v-1434h-522z" />
<glyph unicode="&#xcf;" horiz-adv-x="747" d="M8 1649q0 70 51.5 118t122.5 48q76 0 124 -48.5t48 -117.5q0 -66 -48 -114t-124 -48q-72 0 -123 48t-51 114zM113 0v1434h522v-1434h-522zM399 1649q0 70 47.5 118t121 48t124.5 -48.5t51 -117.5q0 -66 -51 -114t-124.5 -48t-121 48t-47.5 114z" />
<glyph unicode="&#xd0;" horiz-adv-x="1531" d="M31 610v209h82v615h647q326 0 538.5 -203t212.5 -514q0 -313 -212 -515t-539 -202h-647v610h-82zM635 416h78q111 0 183.5 86t72.5 215t-73 215t-183 86h-78v-199h139v-209h-139v-194z" />
<glyph unicode="&#xd1;" horiz-adv-x="1605" d="M113 0v1434h522l356 -703v703h502v-1434h-522l-357 702v-702h-501zM391 1673q131 158 254 158q59 0 183 -53.5t163 -53.5q45 0 81 14.5t116 71.5l106 -168q-112 -139 -268 -139q-59 0 -183 52.5t-163 52.5q-80 0 -172 -97z" />
<glyph unicode="&#xd2;" horiz-adv-x="1671" d="M20 716.5q0 319.5 222.5 544t593 224.5t593 -224.5t222.5 -544t-222.5 -543.5t-593 -224t-593 224t-222.5 543.5zM553 1655l82 188l483 -170l-82 -188zM563 717q0 -127 69.5 -214t203 -87t203 87t69.5 214t-69.5 214t-203 87t-203 -87t-69.5 -214z" />
<glyph unicode="&#xd3;" horiz-adv-x="1671" d="M20 716.5q0 319.5 222.5 544t593 224.5t593 -224.5t222.5 -544t-222.5 -543.5t-593 -224t-593 224t-222.5 543.5zM553 1673l483 170l82 -188l-483 -170zM563 717q0 -127 69.5 -214t203 -87t203 87t69.5 214t-69.5 214t-203 87t-203 -87t-69.5 -214z" />
<glyph unicode="&#xd4;" horiz-adv-x="1671" d="M20 716.5q0 319.5 222.5 544t593 224.5t593 -224.5t222.5 -544t-222.5 -543.5t-593 -224t-593 224t-222.5 543.5zM543 1628l293 199l292 -199l-143 -139l-149 106l-150 -106zM563 717q0 -127 69.5 -214t203 -87t203 87t69.5 214t-69.5 214t-203 87t-203 -87t-69.5 -214z " />
<glyph unicode="&#xd5;" horiz-adv-x="1671" d="M20 716.5q0 319.5 222.5 544t593 224.5t593 -224.5t222.5 -544t-222.5 -543.5t-593 -224t-593 224t-222.5 543.5zM383 1673q131 158 254 158q59 0 183 -53.5t163 -53.5q45 0 81 14.5t116 71.5l106 -168q-112 -139 -268 -139q-59 0 -183 52.5t-163 52.5q-80 0 -172 -97z M563 717q0 -127 69.5 -214t203 -87t203 87t69.5 214t-69.5 214t-203 87t-203 -87t-69.5 -214z" />
<glyph unicode="&#xd6;" horiz-adv-x="1671" d="M20 716.5q0 319.5 222.5 544t593 224.5t593 -224.5t222.5 -544t-222.5 -543.5t-593 -224t-593 224t-222.5 543.5zM408 1661q0 76 55 129t135 53q82 0 135 -53t53 -129q0 -72 -53 -125t-135 -53q-80 0 -135 53t-55 125zM563 717q0 -127 69.5 -214t203 -87t203 87t69.5 214 t-69.5 214t-203 87t-203 -87t-69.5 -214zM885 1661q0 76 52 129t132 53q82 0 137.5 -53t55.5 -129q0 -72 -56.5 -125t-136.5 -53t-132 53t-52 125z" />
<glyph unicode="&#xd7;" horiz-adv-x="1236" d="M72 358l295 295l-295 295l252 252l294 -295l295 295l252 -252l-295 -295l295 -295l-252 -252l-295 295l-294 -295z" />
<glyph unicode="&#xd8;" horiz-adv-x="1671" d="M20 717q0 319 222.5 543.5t593.5 224.5q131 0 251 -33l74 162l139 -64l-67 -151q199 -96 308.5 -279.5t109.5 -402.5q0 -319 -222.5 -543.5t-592.5 -224.5q-127 0 -238 28l-70 -153l-147 65l63 144q-201 94 -312.5 278.5t-111.5 405.5zM563 717q0 -147 86 -232l240 529 q-33 4 -53 4q-133 0 -203 -87t-70 -214zM795 418q12 -2 41 -2q133 0 202.5 87t69.5 214q0 139 -80 225z" />
<glyph unicode="&#xd9;" horiz-adv-x="1486" d="M72 508v926h522v-893q0 -61 41 -103.5t108.5 -42.5t108.5 42t41 104v893h522v-926q0 -252 -181 -400.5t-490.5 -148.5t-490.5 148.5t-181 400.5zM461 1655l82 188l483 -170l-82 -188z" />
<glyph unicode="&#xda;" horiz-adv-x="1486" d="M72 508v926h522v-893q0 -61 41 -103.5t108.5 -42.5t108.5 42t41 104v893h522v-926q0 -252 -181 -400.5t-490.5 -148.5t-490.5 148.5t-181 400.5zM461 1673l483 170l82 -188l-483 -170z" />
<glyph unicode="&#xdb;" horiz-adv-x="1486" d="M72 508v926h522v-893q0 -61 41 -103.5t108.5 -42.5t108.5 42t41 104v893h522v-926q0 -252 -181 -400.5t-490.5 -148.5t-490.5 148.5t-181 400.5zM451 1628l292 199l293 -199l-143 -139l-150 106l-149 -106z" />
<glyph unicode="&#xdc;" horiz-adv-x="1486" d="M72 508v926h522v-893q0 -61 41 -103.5t108.5 -42.5t108.5 42t41 104v893h522v-926q0 -252 -181 -400.5t-490.5 -148.5t-490.5 148.5t-181 400.5zM315 1661q0 76 55.5 129t135.5 53q82 0 135 -53t53 -129q0 -72 -53 -125t-135 -53q-80 0 -135.5 53t-55.5 125zM793 1661 q0 76 52 129t132 53q82 0 137 -53t55 -129q0 -72 -56 -125t-136 -53t-132 53t-52 125z" />
<glyph unicode="&#xdd;" horiz-adv-x="1462" d="M-20 1434h614l151 -457l175 457h583l-710 -1434h-588l227 471zM465 1673l483 170l82 -188l-483 -170z" />
<glyph unicode="&#xde;" horiz-adv-x="1452" d="M113 0v1434h522v-166h252q248 0 401.5 -161t153.5 -390q0 -227 -154.5 -388t-400.5 -161h-252v-168h-522zM635 557h125q66 0 107.5 47t41.5 113q0 68 -41 114t-106 46h-127v-320z" />
<glyph unicode="&#xdf;" horiz-adv-x="1386" d="M92 0v907q0 567 639 568q276 0 435 -103.5t159 -292.5q0 -127 -82 -220t-219 -109q133 -10 232.5 -122t99.5 -257q0 -180 -137.5 -291t-362.5 -111q-94 0 -223 31v334q37 -8 69 -8q59 0 95.5 35.5t36.5 93.5q0 63 -42 100t-102 37h-61v303h61q68 0 111 42t43 97 q0 59 -35 92t-94 33q-63 0 -97 -38t-34 -101v-1020h-492z" />
<glyph unicode="&#xe0;" horiz-adv-x="1406" d="M31 524.5q0 245.5 127 401t329 155.5q125 0 208 -54t118 -140v164h492v-1051h-492v162q-33 -84 -117 -138.5t-209 -54.5q-205 0 -330.5 155t-125.5 400.5zM328 1268l57 213l616 -168l-61 -211zM543 524.5q0 -75.5 41 -123t104.5 -47.5t104.5 47.5t41 123t-41 122.5 t-104.5 47t-104.5 -47t-41 -122.5z" />
<glyph unicode="&#xe1;" horiz-adv-x="1406" d="M31 524.5q0 245.5 127 401t329 155.5q125 0 208 -54t118 -140v164h492v-1051h-492v162q-33 -84 -117 -138.5t-209 -54.5q-205 0 -330.5 155t-125.5 400.5zM340 1323l616 168l58 -213l-613 -166zM543 524.5q0 -75.5 41 -123t104.5 -47.5t104.5 47.5t41 123t-41 122.5 t-104.5 47t-104.5 -47t-41 -122.5z" />
<glyph unicode="&#xe2;" horiz-adv-x="1406" d="M31 524.5q0 245.5 127 401t329 155.5q125 0 208 -54t118 -140v164h492v-1051h-492v162q-33 -84 -117 -138.5t-209 -54.5q-205 0 -330.5 155t-125.5 400.5zM371 1253l305 230l305 -230l-162 -135l-143 109l-144 -109zM543 524.5q0 -75.5 41 -123t104.5 -47.5t104.5 47.5 t41 123t-41 122.5t-104.5 47t-104.5 -47t-41 -122.5z" />
<glyph unicode="&#xe3;" horiz-adv-x="1406" d="M31 524.5q0 245.5 127 401t329 155.5q125 0 208 -54t118 -140v164h492v-1051h-492v162q-33 -84 -117 -138.5t-209 -54.5q-205 0 -330.5 155t-125.5 400.5zM305 1335q109 117 223 117q76 0 160 -49t131 -49q98 0 176 67l74 -188q-108 -117 -223 -117q-76 0 -160 49 t-131 49q-98 0 -176 -67zM543 524.5q0 -75.5 41 -123t104.5 -47.5t104.5 47.5t41 123t-41 122.5t-104.5 47t-104.5 -47t-41 -122.5z" />
<glyph unicode="&#xe4;" horiz-adv-x="1406" d="M31 524.5q0 245.5 127 401t329 155.5q125 0 208 -54t118 -140v164h492v-1051h-492v162q-33 -84 -117 -138.5t-209 -54.5q-205 0 -330.5 155t-125.5 400.5zM205 1329q0 88 62.5 149.5t154.5 61.5t154.5 -61.5t62.5 -149.5t-62.5 -149.5t-154.5 -61.5t-154.5 61.5 t-62.5 149.5zM543 524.5q0 -75.5 41 -123t104.5 -47.5t104.5 47.5t41 123t-41 122.5t-104.5 47t-104.5 -47t-41 -122.5zM721 1329q0 88 62.5 149.5t154.5 61.5t154.5 -61.5t62.5 -149.5t-62.5 -149.5t-154.5 -61.5t-154.5 61.5t-62.5 149.5z" />
<glyph unicode="&#xe5;" horiz-adv-x="1406" d="M31 524.5q0 245.5 127 401t329 155.5q125 0 208 -54t118 -140v164h492v-1051h-492v162q-33 -84 -117 -138.5t-209 -54.5q-205 0 -330.5 155t-125.5 400.5zM442 1323q0 98 66.5 158.5t171 60.5t171.5 -60.5t67 -158.5t-67 -158.5t-171.5 -60.5t-171 60.5t-66.5 158.5z M543 524.5q0 -75.5 41 -123t104.5 -47.5t104.5 47.5t41 123t-41 122.5t-104.5 47t-104.5 -47t-41 -122.5zM594 1323q0 -43 24.5 -69.5t61.5 -26.5t61.5 26.5t24.5 69.5t-24.5 69.5t-61.5 26.5t-61.5 -26.5t-24.5 -69.5z" />
<glyph unicode="&#xe6;" horiz-adv-x="2093" d="M31 283q0 182 137 274q139 94 489 94h152v66q0 98 -109 98q-121 0 -120 -115h-502q16 182 174 287t450 105q246 0 379 -111q150 111 369 111q279 0 456 -143.5t177 -368.5q0 -88 -12 -154h-771q0 -68 41 -109t111 -41q55 0 93 25t46 64h471q-29 -186 -191.5 -296 t-410.5 -110q-272 0 -432 150q-160 -150 -498 -150q-219 0 -359 89t-140 235zM578 340q0 -41 28.5 -64.5t79.5 -23.5q57 0 93 33t36 92v53h-115q-123 0 -122 -90zM1300 651h291q2 76 -36.5 120t-106.5 44q-66 0 -107 -46t-41 -118z" />
<glyph unicode="&#xe7;" horiz-adv-x="1284" d="M10 526q0 256 175 411t462 155q264 0 434 -130.5t193 -351.5h-492q-25 84 -133 84q-68 0 -107.5 -45t-39.5 -122.5t39.5 -123t107.5 -45.5q109 0 133 84h492q-20 -209 -175 -338t-397 -143v-82q29 25 91 25q78 0 120.5 -46t42.5 -108q0 -68 -57 -117t-158 -49 q-92 0 -154.5 42t-66.5 102h164q8 -31 51 -31q55 0 56 61q0 53 -52 54q-37 0 -47 -25h-151v178q-244 29 -387.5 179.5t-143.5 381.5z" />
<glyph unicode="&#xe8;" d="M10 524q0 266 174 417t467 151q279 0 456 -143.5t177 -368.5q0 -92 -12 -164h-770q2 -63 46 -101.5t114 -38.5q115 0 131 60h471q-29 -174 -192 -275.5t-410 -101.5q-305 0 -478.5 146.5t-173.5 418.5zM295 1268l57 213l617 -168l-62 -211zM502 662h291q-2 72 -39 112.5 t-105 40.5q-66 0 -104.5 -41.5t-42.5 -111.5z" />
<glyph unicode="&#xe9;" d="M10 524q0 266 174 417t467 151q279 0 456 -143.5t177 -368.5q0 -92 -12 -164h-770q2 -63 46 -101.5t114 -38.5q115 0 131 60h471q-29 -174 -192 -275.5t-410 -101.5q-305 0 -478.5 146.5t-173.5 418.5zM307 1323l617 168l57 -213l-612 -166zM502 662h291q-2 72 -39 112.5 t-105 40.5q-66 0 -104.5 -41.5t-42.5 -111.5z" />
<glyph unicode="&#xea;" d="M10 524q0 266 174 417t467 151q279 0 456 -143.5t177 -368.5q0 -92 -12 -164h-770q2 -63 46 -101.5t114 -38.5q115 0 131 60h471q-29 -174 -192 -275.5t-410 -101.5q-305 0 -478.5 146.5t-173.5 418.5zM338 1253l305 230l305 -230l-162 -135l-143 109l-143 -109zM502 662 h291q-2 72 -39 112.5t-105 40.5q-66 0 -104.5 -41.5t-42.5 -111.5z" />
<glyph unicode="&#xeb;" d="M10 524q0 266 174 417t467 151q279 0 456 -143.5t177 -368.5q0 -92 -12 -164h-770q2 -63 46 -101.5t114 -38.5q115 0 131 60h471q-29 -174 -192 -275.5t-410 -101.5q-305 0 -478.5 146.5t-173.5 418.5zM172 1329q0 88 62.5 149.5t154.5 61.5t154.5 -61.5t62.5 -149.5 t-62.5 -149.5t-154.5 -61.5t-154.5 61.5t-62.5 149.5zM502 662h291q-2 72 -39 112.5t-105 40.5q-66 0 -104.5 -41.5t-42.5 -111.5zM688 1329q0 88 62.5 149.5t154.5 61.5t154.5 -61.5t62.5 -149.5t-62.5 -149.5t-154.5 -61.5t-154.5 61.5t-62.5 149.5z" />
<glyph unicode="&#xec;" horiz-adv-x="696" d="M90 1268l64 211l503 -164l-63 -211zM102 0v1051h492v-1051h-492z" />
<glyph unicode="&#xed;" horiz-adv-x="696" d="M49 1315l504 164l63 -211l-503 -164zM102 0v1051h492v-1051h-492z" />
<glyph unicode="&#xee;" horiz-adv-x="696" d="M43 1231l305 229l305 -229l-161 -135l-144 108l-143 -108zM102 0v1051h492v-1051h-492z" />
<glyph unicode="&#xef;" horiz-adv-x="696" d="M-33 1321q0 76 54.5 130t130.5 54q80 0 133 -54t53 -130t-53 -128t-133 -52q-76 0 -130.5 53t-54.5 127zM102 0v1051h492v-1051h-492zM356 1321q0 76 53.5 130t133.5 54q78 0 132 -54t54 -130q0 -74 -54 -127t-132 -53q-80 0 -133.5 53t-53.5 127z" />
<glyph unicode="&#xf0;" d="M10 526q0 211 120 354.5t329 190.5l-41 59l-178 -47l-39 138l129 32l-125 181h575l37 -54l195 52l39 -138l-146 -39l285 -407q94 -135 94 -322q0 -256 -174 -411.5t-463 -155.5t-463 155.5t-174 411.5zM502 526.5q0 -75.5 41 -123t104.5 -47.5t104.5 47.5t41 123 t-41 122.5t-104.5 47t-104.5 -47t-41 -122.5z" />
<glyph unicode="&#xf1;" horiz-adv-x="1409" d="M102 0v1051h492v-160q78 190 338 190q385 0 385 -450v-631h-502v528q0 143 -106 144q-59 0 -87 -41t-28 -129v-502h-492zM326 1335q109 117 223 117q76 0 160 -49t131 -49q98 0 176 67l74 -188q-109 -117 -224 -117q-76 0 -159.5 49t-131.5 49q-98 0 -176 -67z" />
<glyph unicode="&#xf2;" d="M10 526q0 256 174 411t463 155t463 -155t174 -411t-174 -411.5t-463 -155.5t-463 155.5t-174 411.5zM295 1268l57 213l617 -168l-62 -211zM502 526.5q0 -75.5 41 -123t104.5 -47.5t104.5 47.5t41 123t-41 122.5t-104.5 47t-104.5 -47t-41 -122.5z" />
<glyph unicode="&#xf3;" d="M10 526q0 256 174 411t463 155t463 -155t174 -411t-174 -411.5t-463 -155.5t-463 155.5t-174 411.5zM307 1323l617 168l57 -213l-612 -166zM502 526.5q0 -75.5 41 -123t104.5 -47.5t104.5 47.5t41 123t-41 122.5t-104.5 47t-104.5 -47t-41 -122.5z" />
<glyph unicode="&#xf4;" d="M10 526q0 256 174 411t463 155t463 -155t174 -411t-174 -411.5t-463 -155.5t-463 155.5t-174 411.5zM338 1253l305 230l305 -230l-162 -135l-143 109l-143 -109zM502 526.5q0 -75.5 41 -123t104.5 -47.5t104.5 47.5t41 123t-41 122.5t-104.5 47t-104.5 -47t-41 -122.5z " />
<glyph unicode="&#xf5;" d="M10 526q0 256 174 411t463 155t463 -155t174 -411t-174 -411.5t-463 -155.5t-463 155.5t-174 411.5zM272 1335q109 117 224 117q76 0 159.5 -49t130.5 -49q98 0 177 67l73 -188q-108 -117 -223 -117q-76 0 -160 49t-131 49q-98 0 -176 -67zM502 526.5q0 -75.5 41 -123 t104.5 -47.5t104.5 47.5t41 123t-41 122.5t-104.5 47t-104.5 -47t-41 -122.5z" />
<glyph unicode="&#xf6;" d="M10 526q0 256 174 411t463 155t463 -155t174 -411t-174 -411.5t-463 -155.5t-463 155.5t-174 411.5zM172 1329q0 88 62.5 149.5t154.5 61.5t154.5 -61.5t62.5 -149.5t-62.5 -149.5t-154.5 -61.5t-154.5 61.5t-62.5 149.5zM502 526.5q0 -75.5 41 -123t104.5 -47.5 t104.5 47.5t41 123t-41 122.5t-104.5 47t-104.5 -47t-41 -122.5zM688 1329q0 88 62.5 149.5t154.5 61.5t154.5 -61.5t62.5 -149.5t-62.5 -149.5t-154.5 -61.5t-154.5 61.5t-62.5 149.5z" />
<glyph unicode="&#xf7;" horiz-adv-x="1220" d="M72 467v354h1077v-354h-1077zM385 215q0 92 64.5 155.5t161 63.5t161 -63.5t64.5 -155.5t-64.5 -157.5t-161 -65.5t-161 65.5t-64.5 157.5zM385 1075q0 92 64.5 156.5t161 64.5t161 -64.5t64.5 -156.5t-64.5 -157.5t-161 -65.5t-161 65.5t-64.5 157.5z" />
<glyph unicode="&#xf8;" d="M10 526q0 256 174 411t463 155q106 0 191 -21l55 123l100 -45l-49 -111q162 -63 251 -196t89 -316q0 -256 -174 -411.5t-463 -155.5q-98 0 -184 18l-53 -114l-101 45l47 102q-164 66 -255 200t-91 316zM502 526q0 -70 35 -116l129 284q-6 2 -19 2q-63 0 -104 -47 t-41 -123zM633 356h14q63 0 104.5 47.5t41.5 122.5q0 63 -31 111z" />
<glyph unicode="&#xf9;" horiz-adv-x="1398" d="M92 420v631h502v-529q0 -143 106 -143q104 0 105 160v512h491v-1051h-491v160q-80 -191 -328 -191q-385 0 -385 451zM352 1268l58 213l616 -168l-61 -211z" />
<glyph unicode="&#xfa;" horiz-adv-x="1398" d="M92 420v631h502v-529q0 -143 106 -143q104 0 105 160v512h491v-1051h-491v160q-80 -191 -328 -191q-385 0 -385 451zM365 1323l616 168l57 -213l-612 -166z" />
<glyph unicode="&#xfb;" horiz-adv-x="1398" d="M92 420v631h502v-529q0 -143 106 -143q104 0 105 160v512h491v-1051h-491v160q-80 -191 -328 -191q-385 0 -385 451zM395 1253l305 230l306 -230l-162 -135l-144 109l-143 -109z" />
<glyph unicode="&#xfc;" horiz-adv-x="1398" d="M92 420v631h502v-529q0 -143 106 -143q104 0 105 160v512h491v-1051h-491v160q-80 -191 -328 -191q-385 0 -385 451zM229 1329q0 88 62.5 149.5t155 61.5t155 -61.5t62.5 -149.5t-62.5 -149.5t-155 -61.5t-155 61.5t-62.5 149.5zM745 1329q0 88 62.5 149.5t155 61.5 t155 -61.5t62.5 -149.5t-62.5 -149.5t-155 -61.5t-155 61.5t-62.5 149.5z" />
<glyph unicode="&#xfd;" horiz-adv-x="1398" d="M92 -18h492q0 -33 28.5 -54.5t77.5 -21.5q115 0 115 102v219q-80 -180 -324 -180q-207 0 -298 114.5t-91 336.5v553h492v-506q0 -143 106 -144q115 0 115 172v478h491v-949q0 -131 -48 -233t-122 -160q-84 -66 -180 -92.5t-260 -26.5q-305 0 -442 109q-63 53 -107.5 130 t-44.5 153zM348 1323l617 168l57 -213l-612 -166z" />
<glyph unicode="&#xfe;" horiz-adv-x="1406" d="M102 -369v1809h492v-553q31 82 118 138t210 56q201 0 327.5 -153.5t126.5 -403.5q0 -248 -127 -401.5t-327 -153.5q-125 0 -212 57.5t-116 135.5v-531h-492zM573 524.5q0 -75.5 41 -125t104.5 -49.5t104.5 49.5t41 125t-41 122.5t-104.5 47t-104.5 -47t-41 -122.5z" />
<glyph unicode="&#xff;" horiz-adv-x="1398" d="M92 -18h492q0 -33 28.5 -54.5t77.5 -21.5q115 0 115 102v219q-80 -180 -324 -180q-207 0 -298 114.5t-91 336.5v553h492v-506q0 -143 106 -144q115 0 115 172v478h491v-949q0 -131 -48 -233t-122 -160q-84 -66 -180 -92.5t-260 -26.5q-305 0 -442 109q-63 53 -107.5 130 t-44.5 153zM213 1329q0 88 62.5 149.5t154.5 61.5t154.5 -61.5t62.5 -149.5t-62.5 -149.5t-154.5 -61.5t-154.5 61.5t-62.5 149.5zM729 1329q0 88 62.5 149.5t154.5 61.5t154.5 -61.5t62.5 -149.5t-62.5 -149.5t-154.5 -61.5t-154.5 61.5t-62.5 149.5z" />
<glyph unicode="&#x152;" horiz-adv-x="1890" d="M20 717q0 297 205 507t549 210h1014v-375h-340v-170h340v-354h-340v-160h340v-375h-1014q-344 0 -549 210t-205 507zM563 717q0 -125 70 -209t203 -84h90v586h-90q-131 0 -202 -85t-71 -208z" />
<glyph unicode="&#x153;" horiz-adv-x="2076" d="M10 526q0 256 174 411t463 155q229 0 389 -101q160 100 398 101q279 0 455.5 -143.5t176.5 -368.5q0 -92 -12 -164h-770q2 -63 46 -101.5t114 -38.5q115 0 131 60h471q-29 -174 -191.5 -275.5t-410.5 -101.5q-252 0 -412 98q-158 -98 -385 -98q-289 0 -463 155.5 t-174 411.5zM502 526.5q0 -75.5 41 -123t104.5 -47.5t104.5 47.5t41 123t-41 122.5t-104.5 47t-104.5 -47t-41 -122.5zM1284 662h291q-2 72 -39 112.5t-104 40.5q-66 0 -105 -41.5t-43 -111.5z" />
<glyph unicode="&#x178;" horiz-adv-x="1462" d="M-20 1434h614l151 -457l175 457h583l-710 -1434h-588l227 471zM319 1661q0 76 55.5 129t135.5 53q82 0 135 -53t53 -129q0 -72 -53 -125t-135 -53q-80 0 -135.5 53t-55.5 125zM797 1661q0 76 52 129t132 53q82 0 137.5 -53t55.5 -129q0 -72 -56.5 -125t-136.5 -53 t-132 53t-52 125z" />
<glyph unicode="&#x2c6;" horiz-adv-x="1228" d="M186 1253l306 230l305 -230l-162 -135l-143 109l-144 -109z" />
<glyph unicode="&#x2dc;" horiz-adv-x="1228" d="M123 1335q109 117 223 117q76 0 160 -49t131 -49q98 0 176 67l74 -188q-108 -117 -223 -117q-76 0 -160 49t-131 49q-98 0 -176 -67z" />
<glyph unicode="&#x2000;" horiz-adv-x="921" />
<glyph unicode="&#x2001;" horiz-adv-x="1843" />
<glyph unicode="&#x2002;" horiz-adv-x="921" />
<glyph unicode="&#x2003;" horiz-adv-x="1843" />
<glyph unicode="&#x2004;" horiz-adv-x="614" />
<glyph unicode="&#x2005;" horiz-adv-x="460" />
<glyph unicode="&#x2006;" horiz-adv-x="307" />
<glyph unicode="&#x2007;" horiz-adv-x="307" />
<glyph unicode="&#x2008;" horiz-adv-x="230" />
<glyph unicode="&#x2009;" horiz-adv-x="368" />
<glyph unicode="&#x200a;" horiz-adv-x="102" />
<glyph unicode="&#x2010;" horiz-adv-x="827" d="M72 442v355h684v-355h-684z" />
<glyph unicode="&#x2011;" horiz-adv-x="827" d="M72 442v355h684v-355h-684z" />
<glyph unicode="&#x2012;" horiz-adv-x="827" d="M72 442v355h684v-355h-684z" />
<glyph unicode="&#x2013;" horiz-adv-x="1286" d="M72 483v273h1142v-273h-1142z" />
<glyph unicode="&#x2014;" horiz-adv-x="1652" d="M72 483v273h1509v-273h-1509z" />
<glyph unicode="&#x2018;" horiz-adv-x="649" d="M82 1069q0 225 111.5 334.5t318.5 109.5q8 0 19.5 -1t24.5 -3t22 -2v-147q-45 6 -80 6q-113 0 -174 -61q-53 -53 -64 -134q31 35 100 35q106 0 167 -70.5t61 -170.5q0 -96 -68 -165t-172 -69q-121 0 -193.5 90t-72.5 248z" />
<glyph unicode="&#x2019;" horiz-adv-x="649" d="M61 1251q0 96 68 165t172 69q121 0 193.5 -90t72.5 -248q0 -225 -111.5 -335t-318.5 -110q-8 0 -19.5 1.5t-24.5 3.5t-21 2v147q47 -6 80 -6q113 0 174 61q53 53 63 133q-31 -35 -100 -34q-106 0 -167 70.5t-61 170.5z" />
<glyph unicode="&#x201a;" horiz-adv-x="649" d="M61 123q0 96 68 164.5t172 68.5q121 0 193.5 -90t72.5 -248q0 -225 -111.5 -334.5t-318.5 -109.5q-8 0 -19.5 1t-24.5 3t-21 2v148q45 -6 80 -7q113 0 174 62q53 53 63 133q-31 -35 -100 -35q-106 0 -167 71t-61 171z" />
<glyph unicode="&#x201c;" horiz-adv-x="1196" d="M82 1069q0 225 111.5 334.5t318.5 109.5q8 0 19.5 -1t24.5 -3t22 -2v-147q-45 6 -80 6q-113 0 -174 -61q-53 -53 -64 -134q31 35 100 35q106 0 167 -70.5t61 -170.5q0 -96 -68 -165t-172 -69q-121 0 -193.5 90t-72.5 248zM629 1069q0 225 111.5 334.5t318.5 109.5 q8 0 19.5 -1t24.5 -3t21 -2v-147q-45 6 -80 6q-113 0 -174 -61q-53 -53 -63 -134q31 35 100 35q106 0 167 -70.5t61 -170.5q0 -96 -68 -165t-172 -69q-121 0 -193.5 90t-72.5 248z" />
<glyph unicode="&#x201d;" horiz-adv-x="1196" d="M61 1251q0 96 68 165t172 69q121 0 193.5 -90t72.5 -248q0 -225 -111.5 -335t-318.5 -110q-8 0 -19.5 1.5t-24.5 3.5t-21 2v147q47 -6 80 -6q113 0 174 61q53 53 63 133q-31 -35 -100 -34q-106 0 -167 70.5t-61 170.5zM608 1251q0 96 68 165t172 69q121 0 193.5 -90 t72.5 -248q0 -225 -111.5 -335t-318.5 -110q-8 0 -19.5 1.5t-24.5 3.5t-22 2v147q45 -6 80 -6q113 0 174 61q53 53 64 133q-31 -35 -100 -34q-106 0 -167 70.5t-61 170.5z" />
<glyph unicode="&#x201e;" horiz-adv-x="1196" d="M61 123q0 96 68 164.5t172 68.5q121 0 193.5 -90t72.5 -248q0 -225 -111.5 -334.5t-318.5 -109.5q-8 0 -19.5 1t-24.5 3t-21 2v148q45 -6 80 -7q113 0 174 62q53 53 63 133q-31 -35 -100 -35q-106 0 -167 71t-61 171zM608 123q0 96 68 164.5t172 68.5q121 0 193.5 -90 t72.5 -248q0 -225 -111.5 -334.5t-318.5 -109.5q-8 0 -19.5 1t-24.5 3t-22 2v148q45 -6 80 -7q113 0 174 62q53 53 64 133q-31 -35 -100 -35q-106 0 -167 71t-61 171z" />
<glyph unicode="&#x2022;" horiz-adv-x="804" d="M51 639q0 141 101.5 241.5t248.5 100.5q152 0 252.5 -99.5t100.5 -242.5t-101.5 -243.5t-251.5 -100.5q-147 0 -248.5 100.5t-101.5 243.5z" />
<glyph unicode="&#x2026;" horiz-adv-x="2043" d="M102 219.5q0 106.5 77 182t190 75.5q111 0 186.5 -75.5t75.5 -182t-75.5 -182.5t-186.5 -76q-113 0 -190 76t-77 182.5zM754 219.5q0 106.5 76.5 182t189.5 75.5q111 0 186.5 -75.5t75.5 -182t-75.5 -182.5t-186.5 -76q-113 0 -189.5 76t-76.5 182.5zM1413 219.5 q0 106.5 77 182t189 75.5q111 0 187 -75.5t76 -182t-76 -182.5t-187 -76q-113 0 -189.5 76t-76.5 182.5z" />
<glyph unicode="&#x202f;" horiz-adv-x="368" />
<glyph unicode="&#x2039;" horiz-adv-x="708" d="M0 586l485 469l203 -226l-262 -243l262 -244l-203 -225z" />
<glyph unicode="&#x203a;" horiz-adv-x="708" d="M20 342l263 244l-263 243l203 226l486 -469l-486 -469z" />
<glyph unicode="&#x205f;" horiz-adv-x="460" />
<glyph unicode="&#x20ac;" horiz-adv-x="1468" d="M20 508l62 164h53v24v37h-115l62 164h68q39 242 188 389.5t440 147.5q532 0 639 -478h-512q-14 57 -40.5 83t-80.5 26q-106 0 -135 -168h260l-61 -164h-213v-37v-24h274l-61 -164h-203q24 -180 133 -180q82 0 107 108h512q-104 -477 -619 -477q-547 0 -631 549h-127z" />
<glyph unicode="&#x2122;" horiz-adv-x="1826" d="M10 1178v256h586v-256h-141v-578h-303v578h-142zM647 600v834h408l131 -500l131 500h397v-834h-293v518l-123 -518h-221l-137 518v-518h-293z" />
<glyph unicode="&#x25fc;" horiz-adv-x="1054" d="M0 0v1055h1055v-1055h-1055z" />
<glyph unicode="&#xfb03;" horiz-adv-x="2476" d="M20 682v369h144v12q0 209 121 305t319 96q143 0 240 -30v-295q-51 6 -82 6q-49 0 -79 -20.5t-30 -57.5v-16h191v-369h-191v-682h-489v682h-144zM936 682v369h143v12q0 209 120 305t321 96q143 0 239 -30v-295q-53 6 -82 6q-49 0 -78.5 -20.5t-29.5 -57.5v-16h190v-369 h-190v-682h-490v682h-143zM1876 1329.5q0 100.5 72.5 173t179 72.5t179.5 -72.5t73 -173t-73 -173.5t-179.5 -73t-179 73t-72.5 173.5zM1882 0v1051h492v-1051h-492z" />
<glyph unicode="&#xfb04;" horiz-adv-x="2476" d="M20 682v369h144v12q0 209 121 305t319 96q143 0 240 -30v-295q-51 6 -82 6q-49 0 -79 -20.5t-30 -57.5v-16h191v-369h-191v-682h-489v682h-144zM936 682v369h143v12q0 209 120 305t321 96q143 0 239 -30v-295q-53 6 -82 6q-49 0 -78.5 -20.5t-29.5 -57.5v-16h190v-369 h-190v-682h-490v682h-143zM1882 0v1434h492v-1434h-492z" />
</font>
</defs>
</svg>
